%TF.GenerationSoftware,KiCad,Pcbnew,(5.1.10-1-10_14)*%
%TF.CreationDate,2021-07-19T22:46:51-06:00*%
%TF.ProjectId,f0-study-board,66302d73-7475-4647-992d-626f6172642e,rev?*%
%TF.SameCoordinates,Original*%
%TF.FileFunction,Copper,L4,Bot*%
%TF.FilePolarity,Positive*%
%FSLAX46Y46*%
G04 Gerber Fmt 4.6, Leading zero omitted, Abs format (unit mm)*
G04 Created by KiCad (PCBNEW (5.1.10-1-10_14)) date 2021-07-19 22:46:51*
%MOMM*%
%LPD*%
G01*
G04 APERTURE LIST*
%TA.AperFunction,EtchedComponent*%
%ADD10C,0.100000*%
%TD*%
%TA.AperFunction,SMDPad,CuDef*%
%ADD11R,1.500000X1.000000*%
%TD*%
%TA.AperFunction,ComponentPad*%
%ADD12O,1.700000X1.700000*%
%TD*%
%TA.AperFunction,ComponentPad*%
%ADD13R,1.700000X1.700000*%
%TD*%
%TA.AperFunction,ViaPad*%
%ADD14C,0.800000*%
%TD*%
%TA.AperFunction,Conductor*%
%ADD15C,0.300000*%
%TD*%
G04 APERTURE END LIST*
D10*
%TO.C,JP1*%
G36*
X134300000Y-106900000D02*
G01*
X134300000Y-107400000D01*
X134900000Y-107400000D01*
X134900000Y-106900000D01*
X134300000Y-106900000D01*
G37*
%TD*%
D11*
%TO.P,JP1,2*%
%TO.N,Net-(D2-Pad2)*%
X134600000Y-107800000D03*
%TO.P,JP1,1*%
%TO.N,PA11*%
X134600000Y-106500000D03*
%TD*%
D12*
%TO.P,J2,18*%
%TO.N,SWCLK*%
X143180000Y-114500000D03*
%TO.P,J2,17*%
%TO.N,SWDIO*%
X140640000Y-114500000D03*
%TO.P,J2,16*%
%TO.N,PB12*%
X138100000Y-114500000D03*
%TO.P,J2,15*%
%TO.N,PB11*%
X135560000Y-114500000D03*
%TO.P,J2,14*%
%TO.N,PB10*%
X133020000Y-114500000D03*
%TO.P,J2,13*%
%TO.N,PB2*%
X130480000Y-114500000D03*
%TO.P,J2,12*%
%TO.N,PB1*%
X127940000Y-114500000D03*
%TO.P,J2,11*%
%TO.N,PB0*%
X125400000Y-114500000D03*
%TO.P,J2,10*%
%TO.N,PA7*%
X122860000Y-114500000D03*
%TO.P,J2,9*%
%TO.N,PA6*%
X120320000Y-114500000D03*
%TO.P,J2,8*%
%TO.N,PA5*%
X117780000Y-114500000D03*
%TO.P,J2,7*%
%TO.N,PA4*%
X115240000Y-114500000D03*
%TO.P,J2,6*%
%TO.N,PA3*%
X112700000Y-114500000D03*
%TO.P,J2,5*%
%TO.N,PA2*%
X110160000Y-114500000D03*
%TO.P,J2,4*%
%TO.N,PA1*%
X107620000Y-114500000D03*
%TO.P,J2,3*%
%TO.N,PA0*%
X105080000Y-114500000D03*
%TO.P,J2,2*%
%TO.N,GND*%
X102540000Y-114500000D03*
D13*
%TO.P,J2,1*%
%TO.N,VCC*%
X100000000Y-114500000D03*
%TD*%
D12*
%TO.P,J1,18*%
%TO.N,PB13*%
X143180000Y-100000000D03*
%TO.P,J1,17*%
%TO.N,PB14*%
X140640000Y-100000000D03*
%TO.P,J1,16*%
%TO.N,PB15*%
X138100000Y-100000000D03*
%TO.P,J1,15*%
%TO.N,PA8*%
X135560000Y-100000000D03*
%TO.P,J1,14*%
%TO.N,PA9*%
X133020000Y-100000000D03*
%TO.P,J1,13*%
%TO.N,PA10*%
X130480000Y-100000000D03*
%TO.P,J1,12*%
%TO.N,PA11*%
X127940000Y-100000000D03*
%TO.P,J1,11*%
%TO.N,PA12*%
X125400000Y-100000000D03*
%TO.P,J1,10*%
%TO.N,PA15*%
X122860000Y-100000000D03*
%TO.P,J1,9*%
%TO.N,PB3*%
X120320000Y-100000000D03*
%TO.P,J1,8*%
%TO.N,PB4*%
X117780000Y-100000000D03*
%TO.P,J1,7*%
%TO.N,PB5*%
X115240000Y-100000000D03*
%TO.P,J1,6*%
%TO.N,PB6*%
X112700000Y-100000000D03*
%TO.P,J1,5*%
%TO.N,PB7*%
X110160000Y-100000000D03*
%TO.P,J1,4*%
%TO.N,PB8*%
X107620000Y-100000000D03*
%TO.P,J1,3*%
%TO.N,PB9*%
X105080000Y-100000000D03*
%TO.P,J1,2*%
%TO.N,GND*%
X102540000Y-100000000D03*
D13*
%TO.P,J1,1*%
%TO.N,+3V3*%
X100000000Y-100000000D03*
%TD*%
D14*
%TO.N,GND*%
X108900000Y-108200000D03*
X108900000Y-110500000D03*
X103100000Y-108600000D03*
X100500000Y-107700000D03*
X105900000Y-102800000D03*
X118800000Y-102700000D03*
X117300000Y-111200000D03*
X130700000Y-111900000D03*
X137000000Y-111700000D03*
X107800000Y-111700000D03*
X104900000Y-104000000D03*
X137100000Y-109800000D03*
X136000000Y-111700000D03*
X122100000Y-104800000D03*
X111600000Y-111800000D03*
X118250000Y-109700000D03*
%TO.N,+3V3*%
X108900000Y-106100000D03*
X107800000Y-102800000D03*
X108900000Y-104100000D03*
X118800000Y-105400000D03*
X128300000Y-111900000D03*
X140800000Y-112300000D03*
X137100000Y-104700000D03*
X120600000Y-103400000D03*
%TO.N,NRST*%
X121900000Y-107500000D03*
X113700000Y-107900000D03*
%TO.N,Net-(D2-Pad2)*%
X134600000Y-108900000D03*
%TO.N,PB10*%
X125623030Y-109701370D03*
%TO.N,PB9*%
X122400000Y-105800000D03*
%TO.N,PB8*%
X122945299Y-106667948D03*
%TO.N,PB7*%
X124500000Y-108000000D03*
%TO.N,PB6*%
X125500000Y-107750000D03*
%TO.N,PB5*%
X126445299Y-107082052D03*
%TO.N,PB4*%
X127000000Y-106250000D03*
X125503308Y-98553683D03*
%TO.N,SWCLK*%
X144500000Y-105900000D03*
X143700000Y-112800000D03*
X127383070Y-104423811D03*
%TO.N,SWDIO*%
X127600000Y-105400000D03*
X141000000Y-104700000D03*
%TO.N,PA11*%
X131462549Y-106250000D03*
%TO.N,PA4*%
X123400000Y-109692491D03*
%TO.N,PA1*%
X120800000Y-111200000D03*
%TO.N,PA0*%
X122000000Y-108700000D03*
%TO.N,/BOOT0*%
X123500000Y-107500000D03*
X114200000Y-111100000D03*
%TD*%
D15*
%TO.N,NRST*%
X114099999Y-107500001D02*
X113700000Y-107900000D01*
X121900000Y-107500000D02*
X114099999Y-107500001D01*
%TO.N,Net-(D2-Pad2)*%
X134600000Y-107800000D02*
X134600000Y-108800000D01*
%TO.N,PB10*%
X125623030Y-110333032D02*
X126800000Y-111510002D01*
X125623030Y-109701370D02*
X125623030Y-110333032D01*
X126800000Y-111510002D02*
X126800000Y-112600000D01*
X126800000Y-112600000D02*
X127200000Y-113000000D01*
X131520000Y-113000000D02*
X133020000Y-114500000D01*
X127200000Y-113000000D02*
X131520000Y-113000000D01*
%TO.N,PB9*%
X106280001Y-98799999D02*
X105080000Y-100000000D01*
X108820001Y-99423999D02*
X108196001Y-98799999D01*
X108820001Y-100436003D02*
X108820001Y-99423999D01*
X108196001Y-98799999D02*
X106280001Y-98799999D01*
X110584019Y-102200021D02*
X108820001Y-100436003D01*
X120789998Y-105800000D02*
X117190019Y-102200021D01*
X117190019Y-102200021D02*
X110584019Y-102200021D01*
X122400000Y-105800000D02*
X120789998Y-105800000D01*
%TO.N,PB8*%
X114170001Y-106550001D02*
X107620000Y-100000000D01*
X122760001Y-106550001D02*
X114170001Y-106550001D01*
%TO.N,PB7*%
X124500000Y-108000000D02*
X124500000Y-104123122D01*
X111860011Y-101700011D02*
X110160000Y-100000000D01*
X122076889Y-101700011D02*
X111860011Y-101700011D01*
X124500000Y-104123122D02*
X122076889Y-101700011D01*
%TO.N,PB6*%
X113900001Y-101200001D02*
X112700000Y-100000000D01*
X122283999Y-101200001D02*
X113900001Y-101200001D01*
X125500000Y-104416002D02*
X122283999Y-101200001D01*
X125500000Y-107750000D02*
X125500000Y-104416002D01*
%TO.N,PB5*%
X126445299Y-106805301D02*
X126099991Y-106459993D01*
X126445299Y-107082052D02*
X126445299Y-106805301D01*
X116440001Y-98799999D02*
X115240000Y-100000000D01*
X123436001Y-98799999D02*
X116440001Y-98799999D01*
X124060001Y-99423999D02*
X123436001Y-98799999D01*
X124060001Y-100436003D02*
X124060001Y-99423999D01*
X126099991Y-102475993D02*
X124060001Y-100436003D01*
X126099991Y-106459993D02*
X126099991Y-102475993D01*
%TO.N,PB4*%
X125729685Y-98553683D02*
X125503308Y-98553683D01*
X126600001Y-105850001D02*
X126600001Y-99423999D01*
X126600001Y-99423999D02*
X125729685Y-98553683D01*
X127000000Y-106250000D02*
X126600001Y-105850001D01*
%TO.N,SWCLK*%
X144500000Y-104400000D02*
X144500000Y-105900000D01*
X144049999Y-103949999D02*
X144500000Y-104400000D01*
X144500000Y-112000000D02*
X144500000Y-105900000D01*
X143700000Y-112800000D02*
X144500000Y-112000000D01*
X127856882Y-103949999D02*
X128049999Y-103949999D01*
X127383070Y-104423811D02*
X127856882Y-103949999D01*
X128049999Y-103949999D02*
X144049999Y-103949999D01*
X127866546Y-103949999D02*
X128049999Y-103949999D01*
%TO.N,SWDIO*%
X141000000Y-104700000D02*
X140200000Y-105500000D01*
X140200000Y-105500000D02*
X127400000Y-105500000D01*
%TO.N,PA11*%
X134500000Y-106600000D02*
X134600000Y-106500000D01*
X134350000Y-106250000D02*
X134600000Y-106500000D01*
X131462549Y-106250000D02*
X134350000Y-106250000D01*
%TO.N,PA4*%
X116200000Y-113300000D02*
X115240000Y-114500000D01*
X123013239Y-111686761D02*
X121900000Y-113300000D01*
X121900000Y-113300000D02*
X116200000Y-113300000D01*
X123013239Y-110079252D02*
X123400000Y-109692491D01*
X123013239Y-111686761D02*
X123013239Y-110079252D01*
%TO.N,PA1*%
X109320010Y-112799990D02*
X107620000Y-114500000D01*
X119200010Y-112799990D02*
X109320010Y-112799990D01*
X120800000Y-111200000D02*
X119200010Y-112799990D01*
%TO.N,PA0*%
X107310003Y-113299999D02*
X106280001Y-113299999D01*
X106280001Y-113299999D02*
X105080000Y-114500000D01*
X111910002Y-108700000D02*
X107310003Y-113299999D01*
X122000000Y-108700000D02*
X111910002Y-108700000D01*
%TO.N,/BOOT0*%
X123500000Y-108310002D02*
X121610002Y-110200000D01*
X123500000Y-107500000D02*
X123500000Y-108310002D01*
X118939997Y-111950001D02*
X114950001Y-111950001D01*
X120689998Y-110200000D02*
X118939997Y-111950001D01*
X121610002Y-110200000D02*
X120689998Y-110200000D01*
X114200000Y-111200000D02*
X114200000Y-111100000D01*
X114950001Y-111950001D02*
X114200000Y-111200000D01*
%TD*%
M02*
