%TF.GenerationSoftware,KiCad,Pcbnew,(5.1.10-1-10_14)*%
%TF.CreationDate,2021-07-19T22:46:51-06:00*%
%TF.ProjectId,f0-study-board,66302d73-7475-4647-992d-626f6172642e,rev?*%
%TF.SameCoordinates,Original*%
%TF.FileFunction,Soldermask,Top*%
%TF.FilePolarity,Negative*%
%FSLAX46Y46*%
G04 Gerber Fmt 4.6, Leading zero omitted, Abs format (unit mm)*
G04 Created by KiCad (PCBNEW (5.1.10-1-10_14)) date 2021-07-19 22:46:51*
%MOMM*%
%LPD*%
G01*
G04 APERTURE LIST*
%ADD10R,2.400000X0.740000*%
%ADD11R,2.400000X2.000000*%
%ADD12R,0.900000X0.800000*%
%ADD13R,1.900000X1.000000*%
%ADD14R,1.900000X1.800000*%
%ADD15R,1.300000X1.650000*%
%ADD16R,1.550000X1.425000*%
%ADD17R,1.380000X0.450000*%
%ADD18O,1.700000X1.700000*%
%ADD19R,1.700000X1.700000*%
G04 APERTURE END LIST*
%TO.C,U1*%
G36*
G01*
X121862500Y-103750000D02*
X121862500Y-102425000D01*
G75*
G02*
X121937500Y-102350000I75000J0D01*
G01*
X122087500Y-102350000D01*
G75*
G02*
X122162500Y-102425000I0J-75000D01*
G01*
X122162500Y-103750000D01*
G75*
G02*
X122087500Y-103825000I-75000J0D01*
G01*
X121937500Y-103825000D01*
G75*
G02*
X121862500Y-103750000I0J75000D01*
G01*
G37*
G36*
G01*
X122362500Y-103750000D02*
X122362500Y-102425000D01*
G75*
G02*
X122437500Y-102350000I75000J0D01*
G01*
X122587500Y-102350000D01*
G75*
G02*
X122662500Y-102425000I0J-75000D01*
G01*
X122662500Y-103750000D01*
G75*
G02*
X122587500Y-103825000I-75000J0D01*
G01*
X122437500Y-103825000D01*
G75*
G02*
X122362500Y-103750000I0J75000D01*
G01*
G37*
G36*
G01*
X122862500Y-103750000D02*
X122862500Y-102425000D01*
G75*
G02*
X122937500Y-102350000I75000J0D01*
G01*
X123087500Y-102350000D01*
G75*
G02*
X123162500Y-102425000I0J-75000D01*
G01*
X123162500Y-103750000D01*
G75*
G02*
X123087500Y-103825000I-75000J0D01*
G01*
X122937500Y-103825000D01*
G75*
G02*
X122862500Y-103750000I0J75000D01*
G01*
G37*
G36*
G01*
X123362500Y-103750000D02*
X123362500Y-102425000D01*
G75*
G02*
X123437500Y-102350000I75000J0D01*
G01*
X123587500Y-102350000D01*
G75*
G02*
X123662500Y-102425000I0J-75000D01*
G01*
X123662500Y-103750000D01*
G75*
G02*
X123587500Y-103825000I-75000J0D01*
G01*
X123437500Y-103825000D01*
G75*
G02*
X123362500Y-103750000I0J75000D01*
G01*
G37*
G36*
G01*
X123862500Y-103750000D02*
X123862500Y-102425000D01*
G75*
G02*
X123937500Y-102350000I75000J0D01*
G01*
X124087500Y-102350000D01*
G75*
G02*
X124162500Y-102425000I0J-75000D01*
G01*
X124162500Y-103750000D01*
G75*
G02*
X124087500Y-103825000I-75000J0D01*
G01*
X123937500Y-103825000D01*
G75*
G02*
X123862500Y-103750000I0J75000D01*
G01*
G37*
G36*
G01*
X124362500Y-103750000D02*
X124362500Y-102425000D01*
G75*
G02*
X124437500Y-102350000I75000J0D01*
G01*
X124587500Y-102350000D01*
G75*
G02*
X124662500Y-102425000I0J-75000D01*
G01*
X124662500Y-103750000D01*
G75*
G02*
X124587500Y-103825000I-75000J0D01*
G01*
X124437500Y-103825000D01*
G75*
G02*
X124362500Y-103750000I0J75000D01*
G01*
G37*
G36*
G01*
X124862500Y-103750000D02*
X124862500Y-102425000D01*
G75*
G02*
X124937500Y-102350000I75000J0D01*
G01*
X125087500Y-102350000D01*
G75*
G02*
X125162500Y-102425000I0J-75000D01*
G01*
X125162500Y-103750000D01*
G75*
G02*
X125087500Y-103825000I-75000J0D01*
G01*
X124937500Y-103825000D01*
G75*
G02*
X124862500Y-103750000I0J75000D01*
G01*
G37*
G36*
G01*
X125362500Y-103750000D02*
X125362500Y-102425000D01*
G75*
G02*
X125437500Y-102350000I75000J0D01*
G01*
X125587500Y-102350000D01*
G75*
G02*
X125662500Y-102425000I0J-75000D01*
G01*
X125662500Y-103750000D01*
G75*
G02*
X125587500Y-103825000I-75000J0D01*
G01*
X125437500Y-103825000D01*
G75*
G02*
X125362500Y-103750000I0J75000D01*
G01*
G37*
G36*
G01*
X125862500Y-103750000D02*
X125862500Y-102425000D01*
G75*
G02*
X125937500Y-102350000I75000J0D01*
G01*
X126087500Y-102350000D01*
G75*
G02*
X126162500Y-102425000I0J-75000D01*
G01*
X126162500Y-103750000D01*
G75*
G02*
X126087500Y-103825000I-75000J0D01*
G01*
X125937500Y-103825000D01*
G75*
G02*
X125862500Y-103750000I0J75000D01*
G01*
G37*
G36*
G01*
X126362500Y-103750000D02*
X126362500Y-102425000D01*
G75*
G02*
X126437500Y-102350000I75000J0D01*
G01*
X126587500Y-102350000D01*
G75*
G02*
X126662500Y-102425000I0J-75000D01*
G01*
X126662500Y-103750000D01*
G75*
G02*
X126587500Y-103825000I-75000J0D01*
G01*
X126437500Y-103825000D01*
G75*
G02*
X126362500Y-103750000I0J75000D01*
G01*
G37*
G36*
G01*
X126862500Y-103750000D02*
X126862500Y-102425000D01*
G75*
G02*
X126937500Y-102350000I75000J0D01*
G01*
X127087500Y-102350000D01*
G75*
G02*
X127162500Y-102425000I0J-75000D01*
G01*
X127162500Y-103750000D01*
G75*
G02*
X127087500Y-103825000I-75000J0D01*
G01*
X126937500Y-103825000D01*
G75*
G02*
X126862500Y-103750000I0J75000D01*
G01*
G37*
G36*
G01*
X127362500Y-103750000D02*
X127362500Y-102425000D01*
G75*
G02*
X127437500Y-102350000I75000J0D01*
G01*
X127587500Y-102350000D01*
G75*
G02*
X127662500Y-102425000I0J-75000D01*
G01*
X127662500Y-103750000D01*
G75*
G02*
X127587500Y-103825000I-75000J0D01*
G01*
X127437500Y-103825000D01*
G75*
G02*
X127362500Y-103750000I0J75000D01*
G01*
G37*
G36*
G01*
X128187500Y-104575000D02*
X128187500Y-104425000D01*
G75*
G02*
X128262500Y-104350000I75000J0D01*
G01*
X129587500Y-104350000D01*
G75*
G02*
X129662500Y-104425000I0J-75000D01*
G01*
X129662500Y-104575000D01*
G75*
G02*
X129587500Y-104650000I-75000J0D01*
G01*
X128262500Y-104650000D01*
G75*
G02*
X128187500Y-104575000I0J75000D01*
G01*
G37*
G36*
G01*
X128187500Y-105075000D02*
X128187500Y-104925000D01*
G75*
G02*
X128262500Y-104850000I75000J0D01*
G01*
X129587500Y-104850000D01*
G75*
G02*
X129662500Y-104925000I0J-75000D01*
G01*
X129662500Y-105075000D01*
G75*
G02*
X129587500Y-105150000I-75000J0D01*
G01*
X128262500Y-105150000D01*
G75*
G02*
X128187500Y-105075000I0J75000D01*
G01*
G37*
G36*
G01*
X128187500Y-105575000D02*
X128187500Y-105425000D01*
G75*
G02*
X128262500Y-105350000I75000J0D01*
G01*
X129587500Y-105350000D01*
G75*
G02*
X129662500Y-105425000I0J-75000D01*
G01*
X129662500Y-105575000D01*
G75*
G02*
X129587500Y-105650000I-75000J0D01*
G01*
X128262500Y-105650000D01*
G75*
G02*
X128187500Y-105575000I0J75000D01*
G01*
G37*
G36*
G01*
X128187500Y-106075000D02*
X128187500Y-105925000D01*
G75*
G02*
X128262500Y-105850000I75000J0D01*
G01*
X129587500Y-105850000D01*
G75*
G02*
X129662500Y-105925000I0J-75000D01*
G01*
X129662500Y-106075000D01*
G75*
G02*
X129587500Y-106150000I-75000J0D01*
G01*
X128262500Y-106150000D01*
G75*
G02*
X128187500Y-106075000I0J75000D01*
G01*
G37*
G36*
G01*
X128187500Y-106575000D02*
X128187500Y-106425000D01*
G75*
G02*
X128262500Y-106350000I75000J0D01*
G01*
X129587500Y-106350000D01*
G75*
G02*
X129662500Y-106425000I0J-75000D01*
G01*
X129662500Y-106575000D01*
G75*
G02*
X129587500Y-106650000I-75000J0D01*
G01*
X128262500Y-106650000D01*
G75*
G02*
X128187500Y-106575000I0J75000D01*
G01*
G37*
G36*
G01*
X128187500Y-107075000D02*
X128187500Y-106925000D01*
G75*
G02*
X128262500Y-106850000I75000J0D01*
G01*
X129587500Y-106850000D01*
G75*
G02*
X129662500Y-106925000I0J-75000D01*
G01*
X129662500Y-107075000D01*
G75*
G02*
X129587500Y-107150000I-75000J0D01*
G01*
X128262500Y-107150000D01*
G75*
G02*
X128187500Y-107075000I0J75000D01*
G01*
G37*
G36*
G01*
X128187500Y-107575000D02*
X128187500Y-107425000D01*
G75*
G02*
X128262500Y-107350000I75000J0D01*
G01*
X129587500Y-107350000D01*
G75*
G02*
X129662500Y-107425000I0J-75000D01*
G01*
X129662500Y-107575000D01*
G75*
G02*
X129587500Y-107650000I-75000J0D01*
G01*
X128262500Y-107650000D01*
G75*
G02*
X128187500Y-107575000I0J75000D01*
G01*
G37*
G36*
G01*
X128187500Y-108075000D02*
X128187500Y-107925000D01*
G75*
G02*
X128262500Y-107850000I75000J0D01*
G01*
X129587500Y-107850000D01*
G75*
G02*
X129662500Y-107925000I0J-75000D01*
G01*
X129662500Y-108075000D01*
G75*
G02*
X129587500Y-108150000I-75000J0D01*
G01*
X128262500Y-108150000D01*
G75*
G02*
X128187500Y-108075000I0J75000D01*
G01*
G37*
G36*
G01*
X128187500Y-108575000D02*
X128187500Y-108425000D01*
G75*
G02*
X128262500Y-108350000I75000J0D01*
G01*
X129587500Y-108350000D01*
G75*
G02*
X129662500Y-108425000I0J-75000D01*
G01*
X129662500Y-108575000D01*
G75*
G02*
X129587500Y-108650000I-75000J0D01*
G01*
X128262500Y-108650000D01*
G75*
G02*
X128187500Y-108575000I0J75000D01*
G01*
G37*
G36*
G01*
X128187500Y-109075000D02*
X128187500Y-108925000D01*
G75*
G02*
X128262500Y-108850000I75000J0D01*
G01*
X129587500Y-108850000D01*
G75*
G02*
X129662500Y-108925000I0J-75000D01*
G01*
X129662500Y-109075000D01*
G75*
G02*
X129587500Y-109150000I-75000J0D01*
G01*
X128262500Y-109150000D01*
G75*
G02*
X128187500Y-109075000I0J75000D01*
G01*
G37*
G36*
G01*
X128187500Y-109575000D02*
X128187500Y-109425000D01*
G75*
G02*
X128262500Y-109350000I75000J0D01*
G01*
X129587500Y-109350000D01*
G75*
G02*
X129662500Y-109425000I0J-75000D01*
G01*
X129662500Y-109575000D01*
G75*
G02*
X129587500Y-109650000I-75000J0D01*
G01*
X128262500Y-109650000D01*
G75*
G02*
X128187500Y-109575000I0J75000D01*
G01*
G37*
G36*
G01*
X128187500Y-110075000D02*
X128187500Y-109925000D01*
G75*
G02*
X128262500Y-109850000I75000J0D01*
G01*
X129587500Y-109850000D01*
G75*
G02*
X129662500Y-109925000I0J-75000D01*
G01*
X129662500Y-110075000D01*
G75*
G02*
X129587500Y-110150000I-75000J0D01*
G01*
X128262500Y-110150000D01*
G75*
G02*
X128187500Y-110075000I0J75000D01*
G01*
G37*
G36*
G01*
X127362500Y-112075000D02*
X127362500Y-110750000D01*
G75*
G02*
X127437500Y-110675000I75000J0D01*
G01*
X127587500Y-110675000D01*
G75*
G02*
X127662500Y-110750000I0J-75000D01*
G01*
X127662500Y-112075000D01*
G75*
G02*
X127587500Y-112150000I-75000J0D01*
G01*
X127437500Y-112150000D01*
G75*
G02*
X127362500Y-112075000I0J75000D01*
G01*
G37*
G36*
G01*
X126862500Y-112075000D02*
X126862500Y-110750000D01*
G75*
G02*
X126937500Y-110675000I75000J0D01*
G01*
X127087500Y-110675000D01*
G75*
G02*
X127162500Y-110750000I0J-75000D01*
G01*
X127162500Y-112075000D01*
G75*
G02*
X127087500Y-112150000I-75000J0D01*
G01*
X126937500Y-112150000D01*
G75*
G02*
X126862500Y-112075000I0J75000D01*
G01*
G37*
G36*
G01*
X126362500Y-112075000D02*
X126362500Y-110750000D01*
G75*
G02*
X126437500Y-110675000I75000J0D01*
G01*
X126587500Y-110675000D01*
G75*
G02*
X126662500Y-110750000I0J-75000D01*
G01*
X126662500Y-112075000D01*
G75*
G02*
X126587500Y-112150000I-75000J0D01*
G01*
X126437500Y-112150000D01*
G75*
G02*
X126362500Y-112075000I0J75000D01*
G01*
G37*
G36*
G01*
X125862500Y-112075000D02*
X125862500Y-110750000D01*
G75*
G02*
X125937500Y-110675000I75000J0D01*
G01*
X126087500Y-110675000D01*
G75*
G02*
X126162500Y-110750000I0J-75000D01*
G01*
X126162500Y-112075000D01*
G75*
G02*
X126087500Y-112150000I-75000J0D01*
G01*
X125937500Y-112150000D01*
G75*
G02*
X125862500Y-112075000I0J75000D01*
G01*
G37*
G36*
G01*
X125362500Y-112075000D02*
X125362500Y-110750000D01*
G75*
G02*
X125437500Y-110675000I75000J0D01*
G01*
X125587500Y-110675000D01*
G75*
G02*
X125662500Y-110750000I0J-75000D01*
G01*
X125662500Y-112075000D01*
G75*
G02*
X125587500Y-112150000I-75000J0D01*
G01*
X125437500Y-112150000D01*
G75*
G02*
X125362500Y-112075000I0J75000D01*
G01*
G37*
G36*
G01*
X124862500Y-112075000D02*
X124862500Y-110750000D01*
G75*
G02*
X124937500Y-110675000I75000J0D01*
G01*
X125087500Y-110675000D01*
G75*
G02*
X125162500Y-110750000I0J-75000D01*
G01*
X125162500Y-112075000D01*
G75*
G02*
X125087500Y-112150000I-75000J0D01*
G01*
X124937500Y-112150000D01*
G75*
G02*
X124862500Y-112075000I0J75000D01*
G01*
G37*
G36*
G01*
X124362500Y-112075000D02*
X124362500Y-110750000D01*
G75*
G02*
X124437500Y-110675000I75000J0D01*
G01*
X124587500Y-110675000D01*
G75*
G02*
X124662500Y-110750000I0J-75000D01*
G01*
X124662500Y-112075000D01*
G75*
G02*
X124587500Y-112150000I-75000J0D01*
G01*
X124437500Y-112150000D01*
G75*
G02*
X124362500Y-112075000I0J75000D01*
G01*
G37*
G36*
G01*
X123862500Y-112075000D02*
X123862500Y-110750000D01*
G75*
G02*
X123937500Y-110675000I75000J0D01*
G01*
X124087500Y-110675000D01*
G75*
G02*
X124162500Y-110750000I0J-75000D01*
G01*
X124162500Y-112075000D01*
G75*
G02*
X124087500Y-112150000I-75000J0D01*
G01*
X123937500Y-112150000D01*
G75*
G02*
X123862500Y-112075000I0J75000D01*
G01*
G37*
G36*
G01*
X123362500Y-112075000D02*
X123362500Y-110750000D01*
G75*
G02*
X123437500Y-110675000I75000J0D01*
G01*
X123587500Y-110675000D01*
G75*
G02*
X123662500Y-110750000I0J-75000D01*
G01*
X123662500Y-112075000D01*
G75*
G02*
X123587500Y-112150000I-75000J0D01*
G01*
X123437500Y-112150000D01*
G75*
G02*
X123362500Y-112075000I0J75000D01*
G01*
G37*
G36*
G01*
X122862500Y-112075000D02*
X122862500Y-110750000D01*
G75*
G02*
X122937500Y-110675000I75000J0D01*
G01*
X123087500Y-110675000D01*
G75*
G02*
X123162500Y-110750000I0J-75000D01*
G01*
X123162500Y-112075000D01*
G75*
G02*
X123087500Y-112150000I-75000J0D01*
G01*
X122937500Y-112150000D01*
G75*
G02*
X122862500Y-112075000I0J75000D01*
G01*
G37*
G36*
G01*
X122362500Y-112075000D02*
X122362500Y-110750000D01*
G75*
G02*
X122437500Y-110675000I75000J0D01*
G01*
X122587500Y-110675000D01*
G75*
G02*
X122662500Y-110750000I0J-75000D01*
G01*
X122662500Y-112075000D01*
G75*
G02*
X122587500Y-112150000I-75000J0D01*
G01*
X122437500Y-112150000D01*
G75*
G02*
X122362500Y-112075000I0J75000D01*
G01*
G37*
G36*
G01*
X121862500Y-112075000D02*
X121862500Y-110750000D01*
G75*
G02*
X121937500Y-110675000I75000J0D01*
G01*
X122087500Y-110675000D01*
G75*
G02*
X122162500Y-110750000I0J-75000D01*
G01*
X122162500Y-112075000D01*
G75*
G02*
X122087500Y-112150000I-75000J0D01*
G01*
X121937500Y-112150000D01*
G75*
G02*
X121862500Y-112075000I0J75000D01*
G01*
G37*
G36*
G01*
X119862500Y-110075000D02*
X119862500Y-109925000D01*
G75*
G02*
X119937500Y-109850000I75000J0D01*
G01*
X121262500Y-109850000D01*
G75*
G02*
X121337500Y-109925000I0J-75000D01*
G01*
X121337500Y-110075000D01*
G75*
G02*
X121262500Y-110150000I-75000J0D01*
G01*
X119937500Y-110150000D01*
G75*
G02*
X119862500Y-110075000I0J75000D01*
G01*
G37*
G36*
G01*
X119862500Y-109575000D02*
X119862500Y-109425000D01*
G75*
G02*
X119937500Y-109350000I75000J0D01*
G01*
X121262500Y-109350000D01*
G75*
G02*
X121337500Y-109425000I0J-75000D01*
G01*
X121337500Y-109575000D01*
G75*
G02*
X121262500Y-109650000I-75000J0D01*
G01*
X119937500Y-109650000D01*
G75*
G02*
X119862500Y-109575000I0J75000D01*
G01*
G37*
G36*
G01*
X119862500Y-109075000D02*
X119862500Y-108925000D01*
G75*
G02*
X119937500Y-108850000I75000J0D01*
G01*
X121262500Y-108850000D01*
G75*
G02*
X121337500Y-108925000I0J-75000D01*
G01*
X121337500Y-109075000D01*
G75*
G02*
X121262500Y-109150000I-75000J0D01*
G01*
X119937500Y-109150000D01*
G75*
G02*
X119862500Y-109075000I0J75000D01*
G01*
G37*
G36*
G01*
X119862500Y-108575000D02*
X119862500Y-108425000D01*
G75*
G02*
X119937500Y-108350000I75000J0D01*
G01*
X121262500Y-108350000D01*
G75*
G02*
X121337500Y-108425000I0J-75000D01*
G01*
X121337500Y-108575000D01*
G75*
G02*
X121262500Y-108650000I-75000J0D01*
G01*
X119937500Y-108650000D01*
G75*
G02*
X119862500Y-108575000I0J75000D01*
G01*
G37*
G36*
G01*
X119862500Y-108075000D02*
X119862500Y-107925000D01*
G75*
G02*
X119937500Y-107850000I75000J0D01*
G01*
X121262500Y-107850000D01*
G75*
G02*
X121337500Y-107925000I0J-75000D01*
G01*
X121337500Y-108075000D01*
G75*
G02*
X121262500Y-108150000I-75000J0D01*
G01*
X119937500Y-108150000D01*
G75*
G02*
X119862500Y-108075000I0J75000D01*
G01*
G37*
G36*
G01*
X119862500Y-107575000D02*
X119862500Y-107425000D01*
G75*
G02*
X119937500Y-107350000I75000J0D01*
G01*
X121262500Y-107350000D01*
G75*
G02*
X121337500Y-107425000I0J-75000D01*
G01*
X121337500Y-107575000D01*
G75*
G02*
X121262500Y-107650000I-75000J0D01*
G01*
X119937500Y-107650000D01*
G75*
G02*
X119862500Y-107575000I0J75000D01*
G01*
G37*
G36*
G01*
X119862500Y-107075000D02*
X119862500Y-106925000D01*
G75*
G02*
X119937500Y-106850000I75000J0D01*
G01*
X121262500Y-106850000D01*
G75*
G02*
X121337500Y-106925000I0J-75000D01*
G01*
X121337500Y-107075000D01*
G75*
G02*
X121262500Y-107150000I-75000J0D01*
G01*
X119937500Y-107150000D01*
G75*
G02*
X119862500Y-107075000I0J75000D01*
G01*
G37*
G36*
G01*
X119862500Y-106575000D02*
X119862500Y-106425000D01*
G75*
G02*
X119937500Y-106350000I75000J0D01*
G01*
X121262500Y-106350000D01*
G75*
G02*
X121337500Y-106425000I0J-75000D01*
G01*
X121337500Y-106575000D01*
G75*
G02*
X121262500Y-106650000I-75000J0D01*
G01*
X119937500Y-106650000D01*
G75*
G02*
X119862500Y-106575000I0J75000D01*
G01*
G37*
G36*
G01*
X119862500Y-106075000D02*
X119862500Y-105925000D01*
G75*
G02*
X119937500Y-105850000I75000J0D01*
G01*
X121262500Y-105850000D01*
G75*
G02*
X121337500Y-105925000I0J-75000D01*
G01*
X121337500Y-106075000D01*
G75*
G02*
X121262500Y-106150000I-75000J0D01*
G01*
X119937500Y-106150000D01*
G75*
G02*
X119862500Y-106075000I0J75000D01*
G01*
G37*
G36*
G01*
X119862500Y-105575000D02*
X119862500Y-105425000D01*
G75*
G02*
X119937500Y-105350000I75000J0D01*
G01*
X121262500Y-105350000D01*
G75*
G02*
X121337500Y-105425000I0J-75000D01*
G01*
X121337500Y-105575000D01*
G75*
G02*
X121262500Y-105650000I-75000J0D01*
G01*
X119937500Y-105650000D01*
G75*
G02*
X119862500Y-105575000I0J75000D01*
G01*
G37*
G36*
G01*
X119862500Y-105075000D02*
X119862500Y-104925000D01*
G75*
G02*
X119937500Y-104850000I75000J0D01*
G01*
X121262500Y-104850000D01*
G75*
G02*
X121337500Y-104925000I0J-75000D01*
G01*
X121337500Y-105075000D01*
G75*
G02*
X121262500Y-105150000I-75000J0D01*
G01*
X119937500Y-105150000D01*
G75*
G02*
X119862500Y-105075000I0J75000D01*
G01*
G37*
G36*
G01*
X119862500Y-104575000D02*
X119862500Y-104425000D01*
G75*
G02*
X119937500Y-104350000I75000J0D01*
G01*
X121262500Y-104350000D01*
G75*
G02*
X121337500Y-104425000I0J-75000D01*
G01*
X121337500Y-104575000D01*
G75*
G02*
X121262500Y-104650000I-75000J0D01*
G01*
X119937500Y-104650000D01*
G75*
G02*
X119862500Y-104575000I0J75000D01*
G01*
G37*
%TD*%
%TO.C,C1*%
G36*
G01*
X138500000Y-111525000D02*
X138500000Y-112475000D01*
G75*
G02*
X138250000Y-112725000I-250000J0D01*
G01*
X137750000Y-112725000D01*
G75*
G02*
X137500000Y-112475000I0J250000D01*
G01*
X137500000Y-111525000D01*
G75*
G02*
X137750000Y-111275000I250000J0D01*
G01*
X138250000Y-111275000D01*
G75*
G02*
X138500000Y-111525000I0J-250000D01*
G01*
G37*
G36*
G01*
X140400000Y-111525000D02*
X140400000Y-112475000D01*
G75*
G02*
X140150000Y-112725000I-250000J0D01*
G01*
X139650000Y-112725000D01*
G75*
G02*
X139400000Y-112475000I0J250000D01*
G01*
X139400000Y-111525000D01*
G75*
G02*
X139650000Y-111275000I250000J0D01*
G01*
X140150000Y-111275000D01*
G75*
G02*
X140400000Y-111525000I0J-250000D01*
G01*
G37*
%TD*%
D10*
%TO.C,J4*%
X142700000Y-109790000D03*
X138800000Y-109790000D03*
X142700000Y-108520000D03*
X138800000Y-108520000D03*
X142700000Y-107250000D03*
X138800000Y-107250000D03*
X142700000Y-105980000D03*
X138800000Y-105980000D03*
X142700000Y-104710000D03*
X138800000Y-104710000D03*
%TD*%
%TO.C,R2*%
G36*
G01*
X134950000Y-111885000D02*
X134950000Y-111515000D01*
G75*
G02*
X135085000Y-111380000I135000J0D01*
G01*
X135355000Y-111380000D01*
G75*
G02*
X135490000Y-111515000I0J-135000D01*
G01*
X135490000Y-111885000D01*
G75*
G02*
X135355000Y-112020000I-135000J0D01*
G01*
X135085000Y-112020000D01*
G75*
G02*
X134950000Y-111885000I0J135000D01*
G01*
G37*
G36*
G01*
X133930000Y-111885000D02*
X133930000Y-111515000D01*
G75*
G02*
X134065000Y-111380000I135000J0D01*
G01*
X134335000Y-111380000D01*
G75*
G02*
X134470000Y-111515000I0J-135000D01*
G01*
X134470000Y-111885000D01*
G75*
G02*
X134335000Y-112020000I-135000J0D01*
G01*
X134065000Y-112020000D01*
G75*
G02*
X133930000Y-111885000I0J135000D01*
G01*
G37*
%TD*%
%TO.C,R1*%
G36*
G01*
X112570000Y-110715000D02*
X112570000Y-111085000D01*
G75*
G02*
X112435000Y-111220000I-135000J0D01*
G01*
X112165000Y-111220000D01*
G75*
G02*
X112030000Y-111085000I0J135000D01*
G01*
X112030000Y-110715000D01*
G75*
G02*
X112165000Y-110580000I135000J0D01*
G01*
X112435000Y-110580000D01*
G75*
G02*
X112570000Y-110715000I0J-135000D01*
G01*
G37*
G36*
G01*
X113590000Y-110715000D02*
X113590000Y-111085000D01*
G75*
G02*
X113455000Y-111220000I-135000J0D01*
G01*
X113185000Y-111220000D01*
G75*
G02*
X113050000Y-111085000I0J135000D01*
G01*
X113050000Y-110715000D01*
G75*
G02*
X113185000Y-110580000I135000J0D01*
G01*
X113455000Y-110580000D01*
G75*
G02*
X113590000Y-110715000I0J-135000D01*
G01*
G37*
%TD*%
%TO.C,FB1*%
G36*
G01*
X104406250Y-106437500D02*
X103893750Y-106437500D01*
G75*
G02*
X103675000Y-106218750I0J218750D01*
G01*
X103675000Y-105781250D01*
G75*
G02*
X103893750Y-105562500I218750J0D01*
G01*
X104406250Y-105562500D01*
G75*
G02*
X104625000Y-105781250I0J-218750D01*
G01*
X104625000Y-106218750D01*
G75*
G02*
X104406250Y-106437500I-218750J0D01*
G01*
G37*
G36*
G01*
X104406250Y-108012500D02*
X103893750Y-108012500D01*
G75*
G02*
X103675000Y-107793750I0J218750D01*
G01*
X103675000Y-107356250D01*
G75*
G02*
X103893750Y-107137500I218750J0D01*
G01*
X104406250Y-107137500D01*
G75*
G02*
X104625000Y-107356250I0J-218750D01*
G01*
X104625000Y-107793750D01*
G75*
G02*
X104406250Y-108012500I-218750J0D01*
G01*
G37*
%TD*%
%TO.C,C12*%
G36*
G01*
X107300000Y-110975000D02*
X107300000Y-110025000D01*
G75*
G02*
X107550000Y-109775000I250000J0D01*
G01*
X108050000Y-109775000D01*
G75*
G02*
X108300000Y-110025000I0J-250000D01*
G01*
X108300000Y-110975000D01*
G75*
G02*
X108050000Y-111225000I-250000J0D01*
G01*
X107550000Y-111225000D01*
G75*
G02*
X107300000Y-110975000I0J250000D01*
G01*
G37*
G36*
G01*
X105400000Y-110975000D02*
X105400000Y-110025000D01*
G75*
G02*
X105650000Y-109775000I250000J0D01*
G01*
X106150000Y-109775000D01*
G75*
G02*
X106400000Y-110025000I0J-250000D01*
G01*
X106400000Y-110975000D01*
G75*
G02*
X106150000Y-111225000I-250000J0D01*
G01*
X105650000Y-111225000D01*
G75*
G02*
X105400000Y-110975000I0J250000D01*
G01*
G37*
%TD*%
%TO.C,C11*%
G36*
G01*
X106400000Y-103525000D02*
X106400000Y-104475000D01*
G75*
G02*
X106150000Y-104725000I-250000J0D01*
G01*
X105650000Y-104725000D01*
G75*
G02*
X105400000Y-104475000I0J250000D01*
G01*
X105400000Y-103525000D01*
G75*
G02*
X105650000Y-103275000I250000J0D01*
G01*
X106150000Y-103275000D01*
G75*
G02*
X106400000Y-103525000I0J-250000D01*
G01*
G37*
G36*
G01*
X108300000Y-103525000D02*
X108300000Y-104475000D01*
G75*
G02*
X108050000Y-104725000I-250000J0D01*
G01*
X107550000Y-104725000D01*
G75*
G02*
X107300000Y-104475000I0J250000D01*
G01*
X107300000Y-103525000D01*
G75*
G02*
X107550000Y-103275000I250000J0D01*
G01*
X108050000Y-103275000D01*
G75*
G02*
X108300000Y-103525000I0J-250000D01*
G01*
G37*
%TD*%
%TO.C,C10*%
G36*
G01*
X116280000Y-111370000D02*
X116280000Y-111030000D01*
G75*
G02*
X116420000Y-110890000I140000J0D01*
G01*
X116700000Y-110890000D01*
G75*
G02*
X116840000Y-111030000I0J-140000D01*
G01*
X116840000Y-111370000D01*
G75*
G02*
X116700000Y-111510000I-140000J0D01*
G01*
X116420000Y-111510000D01*
G75*
G02*
X116280000Y-111370000I0J140000D01*
G01*
G37*
G36*
G01*
X115320000Y-111370000D02*
X115320000Y-111030000D01*
G75*
G02*
X115460000Y-110890000I140000J0D01*
G01*
X115740000Y-110890000D01*
G75*
G02*
X115880000Y-111030000I0J-140000D01*
G01*
X115880000Y-111370000D01*
G75*
G02*
X115740000Y-111510000I-140000J0D01*
G01*
X115460000Y-111510000D01*
G75*
G02*
X115320000Y-111370000I0J140000D01*
G01*
G37*
%TD*%
%TO.C,C9*%
G36*
G01*
X116280000Y-103470000D02*
X116280000Y-103130000D01*
G75*
G02*
X116420000Y-102990000I140000J0D01*
G01*
X116700000Y-102990000D01*
G75*
G02*
X116840000Y-103130000I0J-140000D01*
G01*
X116840000Y-103470000D01*
G75*
G02*
X116700000Y-103610000I-140000J0D01*
G01*
X116420000Y-103610000D01*
G75*
G02*
X116280000Y-103470000I0J140000D01*
G01*
G37*
G36*
G01*
X115320000Y-103470000D02*
X115320000Y-103130000D01*
G75*
G02*
X115460000Y-102990000I140000J0D01*
G01*
X115740000Y-102990000D01*
G75*
G02*
X115880000Y-103130000I0J-140000D01*
G01*
X115880000Y-103470000D01*
G75*
G02*
X115740000Y-103610000I-140000J0D01*
G01*
X115460000Y-103610000D01*
G75*
G02*
X115320000Y-103470000I0J140000D01*
G01*
G37*
%TD*%
%TO.C,C8*%
G36*
G01*
X110820000Y-111070000D02*
X110820000Y-110730000D01*
G75*
G02*
X110960000Y-110590000I140000J0D01*
G01*
X111240000Y-110590000D01*
G75*
G02*
X111380000Y-110730000I0J-140000D01*
G01*
X111380000Y-111070000D01*
G75*
G02*
X111240000Y-111210000I-140000J0D01*
G01*
X110960000Y-111210000D01*
G75*
G02*
X110820000Y-111070000I0J140000D01*
G01*
G37*
G36*
G01*
X109860000Y-111070000D02*
X109860000Y-110730000D01*
G75*
G02*
X110000000Y-110590000I140000J0D01*
G01*
X110280000Y-110590000D01*
G75*
G02*
X110420000Y-110730000I0J-140000D01*
G01*
X110420000Y-111070000D01*
G75*
G02*
X110280000Y-111210000I-140000J0D01*
G01*
X110000000Y-111210000D01*
G75*
G02*
X109860000Y-111070000I0J140000D01*
G01*
G37*
%TD*%
%TO.C,C7*%
G36*
G01*
X112530000Y-103220000D02*
X112870000Y-103220000D01*
G75*
G02*
X113010000Y-103360000I0J-140000D01*
G01*
X113010000Y-103640000D01*
G75*
G02*
X112870000Y-103780000I-140000J0D01*
G01*
X112530000Y-103780000D01*
G75*
G02*
X112390000Y-103640000I0J140000D01*
G01*
X112390000Y-103360000D01*
G75*
G02*
X112530000Y-103220000I140000J0D01*
G01*
G37*
G36*
G01*
X112530000Y-102260000D02*
X112870000Y-102260000D01*
G75*
G02*
X113010000Y-102400000I0J-140000D01*
G01*
X113010000Y-102680000D01*
G75*
G02*
X112870000Y-102820000I-140000J0D01*
G01*
X112530000Y-102820000D01*
G75*
G02*
X112390000Y-102680000I0J140000D01*
G01*
X112390000Y-102400000D01*
G75*
G02*
X112530000Y-102260000I140000J0D01*
G01*
G37*
%TD*%
%TO.C,C6*%
G36*
G01*
X111330000Y-103220000D02*
X111670000Y-103220000D01*
G75*
G02*
X111810000Y-103360000I0J-140000D01*
G01*
X111810000Y-103640000D01*
G75*
G02*
X111670000Y-103780000I-140000J0D01*
G01*
X111330000Y-103780000D01*
G75*
G02*
X111190000Y-103640000I0J140000D01*
G01*
X111190000Y-103360000D01*
G75*
G02*
X111330000Y-103220000I140000J0D01*
G01*
G37*
G36*
G01*
X111330000Y-102260000D02*
X111670000Y-102260000D01*
G75*
G02*
X111810000Y-102400000I0J-140000D01*
G01*
X111810000Y-102680000D01*
G75*
G02*
X111670000Y-102820000I-140000J0D01*
G01*
X111330000Y-102820000D01*
G75*
G02*
X111190000Y-102680000I0J140000D01*
G01*
X111190000Y-102400000D01*
G75*
G02*
X111330000Y-102260000I140000J0D01*
G01*
G37*
%TD*%
%TO.C,C4*%
G36*
G01*
X129700000Y-112070000D02*
X129700000Y-111730000D01*
G75*
G02*
X129840000Y-111590000I140000J0D01*
G01*
X130120000Y-111590000D01*
G75*
G02*
X130260000Y-111730000I0J-140000D01*
G01*
X130260000Y-112070000D01*
G75*
G02*
X130120000Y-112210000I-140000J0D01*
G01*
X129840000Y-112210000D01*
G75*
G02*
X129700000Y-112070000I0J140000D01*
G01*
G37*
G36*
G01*
X128740000Y-112070000D02*
X128740000Y-111730000D01*
G75*
G02*
X128880000Y-111590000I140000J0D01*
G01*
X129160000Y-111590000D01*
G75*
G02*
X129300000Y-111730000I0J-140000D01*
G01*
X129300000Y-112070000D01*
G75*
G02*
X129160000Y-112210000I-140000J0D01*
G01*
X128880000Y-112210000D01*
G75*
G02*
X128740000Y-112070000I0J140000D01*
G01*
G37*
%TD*%
%TO.C,C3*%
G36*
G01*
X120180000Y-102430000D02*
X120180000Y-102770000D01*
G75*
G02*
X120040000Y-102910000I-140000J0D01*
G01*
X119760000Y-102910000D01*
G75*
G02*
X119620000Y-102770000I0J140000D01*
G01*
X119620000Y-102430000D01*
G75*
G02*
X119760000Y-102290000I140000J0D01*
G01*
X120040000Y-102290000D01*
G75*
G02*
X120180000Y-102430000I0J-140000D01*
G01*
G37*
G36*
G01*
X121140000Y-102430000D02*
X121140000Y-102770000D01*
G75*
G02*
X121000000Y-102910000I-140000J0D01*
G01*
X120720000Y-102910000D01*
G75*
G02*
X120580000Y-102770000I0J140000D01*
G01*
X120580000Y-102430000D01*
G75*
G02*
X120720000Y-102290000I140000J0D01*
G01*
X121000000Y-102290000D01*
G75*
G02*
X121140000Y-102430000I0J-140000D01*
G01*
G37*
%TD*%
%TO.C,C2*%
G36*
G01*
X118970000Y-103820000D02*
X118630000Y-103820000D01*
G75*
G02*
X118490000Y-103680000I0J140000D01*
G01*
X118490000Y-103400000D01*
G75*
G02*
X118630000Y-103260000I140000J0D01*
G01*
X118970000Y-103260000D01*
G75*
G02*
X119110000Y-103400000I0J-140000D01*
G01*
X119110000Y-103680000D01*
G75*
G02*
X118970000Y-103820000I-140000J0D01*
G01*
G37*
G36*
G01*
X118970000Y-104780000D02*
X118630000Y-104780000D01*
G75*
G02*
X118490000Y-104640000I0J140000D01*
G01*
X118490000Y-104360000D01*
G75*
G02*
X118630000Y-104220000I140000J0D01*
G01*
X118970000Y-104220000D01*
G75*
G02*
X119110000Y-104360000I0J-140000D01*
G01*
X119110000Y-104640000D01*
G75*
G02*
X118970000Y-104780000I-140000J0D01*
G01*
G37*
%TD*%
D11*
%TO.C,Y1*%
X116050000Y-109100000D03*
X116050000Y-105400000D03*
%TD*%
D12*
%TO.C,U2*%
X105850000Y-107250000D03*
X107850000Y-106300000D03*
X107850000Y-108200000D03*
%TD*%
%TO.C,SW1*%
G36*
G01*
X110650000Y-104500000D02*
X112250000Y-104500000D01*
G75*
G02*
X112450000Y-104700000I0J-200000D01*
G01*
X112450000Y-105100000D01*
G75*
G02*
X112250000Y-105300000I-200000J0D01*
G01*
X110650000Y-105300000D01*
G75*
G02*
X110450000Y-105100000I0J200000D01*
G01*
X110450000Y-104700000D01*
G75*
G02*
X110650000Y-104500000I200000J0D01*
G01*
G37*
G36*
G01*
X110650000Y-108700000D02*
X112250000Y-108700000D01*
G75*
G02*
X112450000Y-108900000I0J-200000D01*
G01*
X112450000Y-109300000D01*
G75*
G02*
X112250000Y-109500000I-200000J0D01*
G01*
X110650000Y-109500000D01*
G75*
G02*
X110450000Y-109300000I0J200000D01*
G01*
X110450000Y-108900000D01*
G75*
G02*
X110650000Y-108700000I200000J0D01*
G01*
G37*
%TD*%
%TO.C,L1*%
G36*
G01*
X110372500Y-102825000D02*
X110027500Y-102825000D01*
G75*
G02*
X109880000Y-102677500I0J147500D01*
G01*
X109880000Y-102382500D01*
G75*
G02*
X110027500Y-102235000I147500J0D01*
G01*
X110372500Y-102235000D01*
G75*
G02*
X110520000Y-102382500I0J-147500D01*
G01*
X110520000Y-102677500D01*
G75*
G02*
X110372500Y-102825000I-147500J0D01*
G01*
G37*
G36*
G01*
X110372500Y-103795000D02*
X110027500Y-103795000D01*
G75*
G02*
X109880000Y-103647500I0J147500D01*
G01*
X109880000Y-103352500D01*
G75*
G02*
X110027500Y-103205000I147500J0D01*
G01*
X110372500Y-103205000D01*
G75*
G02*
X110520000Y-103352500I0J-147500D01*
G01*
X110520000Y-103647500D01*
G75*
G02*
X110372500Y-103795000I-147500J0D01*
G01*
G37*
%TD*%
D13*
%TO.C,J3*%
X99200000Y-108800000D03*
D14*
X99200000Y-106100000D03*
D15*
X99200000Y-110625000D03*
X99200000Y-103875000D03*
D16*
X101775000Y-109737500D03*
X101775000Y-104762500D03*
D17*
X101860000Y-108550000D03*
X101860000Y-107900000D03*
X101860000Y-107250000D03*
X101860000Y-106600000D03*
X101860000Y-105950000D03*
%TD*%
D18*
%TO.C,J2*%
X143180000Y-114500000D03*
X140640000Y-114500000D03*
X138100000Y-114500000D03*
X135560000Y-114500000D03*
X133020000Y-114500000D03*
X130480000Y-114500000D03*
X127940000Y-114500000D03*
X125400000Y-114500000D03*
X122860000Y-114500000D03*
X120320000Y-114500000D03*
X117780000Y-114500000D03*
X115240000Y-114500000D03*
X112700000Y-114500000D03*
X110160000Y-114500000D03*
X107620000Y-114500000D03*
X105080000Y-114500000D03*
X102540000Y-114500000D03*
D19*
X100000000Y-114500000D03*
%TD*%
D18*
%TO.C,J1*%
X143180000Y-100000000D03*
X140640000Y-100000000D03*
X138100000Y-100000000D03*
X135560000Y-100000000D03*
X133020000Y-100000000D03*
X130480000Y-100000000D03*
X127940000Y-100000000D03*
X125400000Y-100000000D03*
X122860000Y-100000000D03*
X120320000Y-100000000D03*
X117780000Y-100000000D03*
X115240000Y-100000000D03*
X112700000Y-100000000D03*
X110160000Y-100000000D03*
X107620000Y-100000000D03*
X105080000Y-100000000D03*
X102540000Y-100000000D03*
D19*
X100000000Y-100000000D03*
%TD*%
%TO.C,D2*%
G36*
G01*
X135137500Y-110556250D02*
X135137500Y-110043750D01*
G75*
G02*
X135356250Y-109825000I218750J0D01*
G01*
X135793750Y-109825000D01*
G75*
G02*
X136012500Y-110043750I0J-218750D01*
G01*
X136012500Y-110556250D01*
G75*
G02*
X135793750Y-110775000I-218750J0D01*
G01*
X135356250Y-110775000D01*
G75*
G02*
X135137500Y-110556250I0J218750D01*
G01*
G37*
G36*
G01*
X133562500Y-110556250D02*
X133562500Y-110043750D01*
G75*
G02*
X133781250Y-109825000I218750J0D01*
G01*
X134218750Y-109825000D01*
G75*
G02*
X134437500Y-110043750I0J-218750D01*
G01*
X134437500Y-110556250D01*
G75*
G02*
X134218750Y-110775000I-218750J0D01*
G01*
X133781250Y-110775000D01*
G75*
G02*
X133562500Y-110556250I0J218750D01*
G01*
G37*
%TD*%
M02*
