%TF.GenerationSoftware,KiCad,Pcbnew,(5.1.10-1-10_14)*%
%TF.CreationDate,2021-07-19T22:46:51-06:00*%
%TF.ProjectId,f0-study-board,66302d73-7475-4647-992d-626f6172642e,rev?*%
%TF.SameCoordinates,Original*%
%TF.FileFunction,Copper,L1,Top*%
%TF.FilePolarity,Positive*%
%FSLAX46Y46*%
G04 Gerber Fmt 4.6, Leading zero omitted, Abs format (unit mm)*
G04 Created by KiCad (PCBNEW (5.1.10-1-10_14)) date 2021-07-19 22:46:51*
%MOMM*%
%LPD*%
G01*
G04 APERTURE LIST*
%TA.AperFunction,SMDPad,CuDef*%
%ADD10R,2.400000X0.740000*%
%TD*%
%TA.AperFunction,SMDPad,CuDef*%
%ADD11R,2.400000X2.000000*%
%TD*%
%TA.AperFunction,SMDPad,CuDef*%
%ADD12R,0.900000X0.800000*%
%TD*%
%TA.AperFunction,SMDPad,CuDef*%
%ADD13R,1.900000X1.000000*%
%TD*%
%TA.AperFunction,SMDPad,CuDef*%
%ADD14R,1.900000X1.800000*%
%TD*%
%TA.AperFunction,SMDPad,CuDef*%
%ADD15R,1.300000X1.650000*%
%TD*%
%TA.AperFunction,SMDPad,CuDef*%
%ADD16R,1.550000X1.425000*%
%TD*%
%TA.AperFunction,SMDPad,CuDef*%
%ADD17R,1.380000X0.450000*%
%TD*%
%TA.AperFunction,ComponentPad*%
%ADD18O,1.700000X1.700000*%
%TD*%
%TA.AperFunction,ComponentPad*%
%ADD19R,1.700000X1.700000*%
%TD*%
%TA.AperFunction,ViaPad*%
%ADD20C,0.800000*%
%TD*%
%TA.AperFunction,Conductor*%
%ADD21C,0.300000*%
%TD*%
%TA.AperFunction,Conductor*%
%ADD22C,1.000000*%
%TD*%
%TA.AperFunction,Conductor*%
%ADD23C,0.500000*%
%TD*%
%TA.AperFunction,Conductor*%
%ADD24C,0.750000*%
%TD*%
%TA.AperFunction,Conductor*%
%ADD25C,0.100000*%
%TD*%
G04 APERTURE END LIST*
%TO.P,U1,48*%
%TO.N,+3V3*%
%TA.AperFunction,SMDPad,CuDef*%
G36*
G01*
X121862500Y-103750000D02*
X121862500Y-102425000D01*
G75*
G02*
X121937500Y-102350000I75000J0D01*
G01*
X122087500Y-102350000D01*
G75*
G02*
X122162500Y-102425000I0J-75000D01*
G01*
X122162500Y-103750000D01*
G75*
G02*
X122087500Y-103825000I-75000J0D01*
G01*
X121937500Y-103825000D01*
G75*
G02*
X121862500Y-103750000I0J75000D01*
G01*
G37*
%TD.AperFunction*%
%TO.P,U1,47*%
%TO.N,GND*%
%TA.AperFunction,SMDPad,CuDef*%
G36*
G01*
X122362500Y-103750000D02*
X122362500Y-102425000D01*
G75*
G02*
X122437500Y-102350000I75000J0D01*
G01*
X122587500Y-102350000D01*
G75*
G02*
X122662500Y-102425000I0J-75000D01*
G01*
X122662500Y-103750000D01*
G75*
G02*
X122587500Y-103825000I-75000J0D01*
G01*
X122437500Y-103825000D01*
G75*
G02*
X122362500Y-103750000I0J75000D01*
G01*
G37*
%TD.AperFunction*%
%TO.P,U1,46*%
%TO.N,PB9*%
%TA.AperFunction,SMDPad,CuDef*%
G36*
G01*
X122862500Y-103750000D02*
X122862500Y-102425000D01*
G75*
G02*
X122937500Y-102350000I75000J0D01*
G01*
X123087500Y-102350000D01*
G75*
G02*
X123162500Y-102425000I0J-75000D01*
G01*
X123162500Y-103750000D01*
G75*
G02*
X123087500Y-103825000I-75000J0D01*
G01*
X122937500Y-103825000D01*
G75*
G02*
X122862500Y-103750000I0J75000D01*
G01*
G37*
%TD.AperFunction*%
%TO.P,U1,45*%
%TO.N,PB8*%
%TA.AperFunction,SMDPad,CuDef*%
G36*
G01*
X123362500Y-103750000D02*
X123362500Y-102425000D01*
G75*
G02*
X123437500Y-102350000I75000J0D01*
G01*
X123587500Y-102350000D01*
G75*
G02*
X123662500Y-102425000I0J-75000D01*
G01*
X123662500Y-103750000D01*
G75*
G02*
X123587500Y-103825000I-75000J0D01*
G01*
X123437500Y-103825000D01*
G75*
G02*
X123362500Y-103750000I0J75000D01*
G01*
G37*
%TD.AperFunction*%
%TO.P,U1,44*%
%TO.N,/BOOT0*%
%TA.AperFunction,SMDPad,CuDef*%
G36*
G01*
X123862500Y-103750000D02*
X123862500Y-102425000D01*
G75*
G02*
X123937500Y-102350000I75000J0D01*
G01*
X124087500Y-102350000D01*
G75*
G02*
X124162500Y-102425000I0J-75000D01*
G01*
X124162500Y-103750000D01*
G75*
G02*
X124087500Y-103825000I-75000J0D01*
G01*
X123937500Y-103825000D01*
G75*
G02*
X123862500Y-103750000I0J75000D01*
G01*
G37*
%TD.AperFunction*%
%TO.P,U1,43*%
%TO.N,PB7*%
%TA.AperFunction,SMDPad,CuDef*%
G36*
G01*
X124362500Y-103750000D02*
X124362500Y-102425000D01*
G75*
G02*
X124437500Y-102350000I75000J0D01*
G01*
X124587500Y-102350000D01*
G75*
G02*
X124662500Y-102425000I0J-75000D01*
G01*
X124662500Y-103750000D01*
G75*
G02*
X124587500Y-103825000I-75000J0D01*
G01*
X124437500Y-103825000D01*
G75*
G02*
X124362500Y-103750000I0J75000D01*
G01*
G37*
%TD.AperFunction*%
%TO.P,U1,42*%
%TO.N,PB6*%
%TA.AperFunction,SMDPad,CuDef*%
G36*
G01*
X124862500Y-103750000D02*
X124862500Y-102425000D01*
G75*
G02*
X124937500Y-102350000I75000J0D01*
G01*
X125087500Y-102350000D01*
G75*
G02*
X125162500Y-102425000I0J-75000D01*
G01*
X125162500Y-103750000D01*
G75*
G02*
X125087500Y-103825000I-75000J0D01*
G01*
X124937500Y-103825000D01*
G75*
G02*
X124862500Y-103750000I0J75000D01*
G01*
G37*
%TD.AperFunction*%
%TO.P,U1,41*%
%TO.N,PB5*%
%TA.AperFunction,SMDPad,CuDef*%
G36*
G01*
X125362500Y-103750000D02*
X125362500Y-102425000D01*
G75*
G02*
X125437500Y-102350000I75000J0D01*
G01*
X125587500Y-102350000D01*
G75*
G02*
X125662500Y-102425000I0J-75000D01*
G01*
X125662500Y-103750000D01*
G75*
G02*
X125587500Y-103825000I-75000J0D01*
G01*
X125437500Y-103825000D01*
G75*
G02*
X125362500Y-103750000I0J75000D01*
G01*
G37*
%TD.AperFunction*%
%TO.P,U1,40*%
%TO.N,PB4*%
%TA.AperFunction,SMDPad,CuDef*%
G36*
G01*
X125862500Y-103750000D02*
X125862500Y-102425000D01*
G75*
G02*
X125937500Y-102350000I75000J0D01*
G01*
X126087500Y-102350000D01*
G75*
G02*
X126162500Y-102425000I0J-75000D01*
G01*
X126162500Y-103750000D01*
G75*
G02*
X126087500Y-103825000I-75000J0D01*
G01*
X125937500Y-103825000D01*
G75*
G02*
X125862500Y-103750000I0J75000D01*
G01*
G37*
%TD.AperFunction*%
%TO.P,U1,39*%
%TO.N,PB3*%
%TA.AperFunction,SMDPad,CuDef*%
G36*
G01*
X126362500Y-103750000D02*
X126362500Y-102425000D01*
G75*
G02*
X126437500Y-102350000I75000J0D01*
G01*
X126587500Y-102350000D01*
G75*
G02*
X126662500Y-102425000I0J-75000D01*
G01*
X126662500Y-103750000D01*
G75*
G02*
X126587500Y-103825000I-75000J0D01*
G01*
X126437500Y-103825000D01*
G75*
G02*
X126362500Y-103750000I0J75000D01*
G01*
G37*
%TD.AperFunction*%
%TO.P,U1,38*%
%TO.N,PA15*%
%TA.AperFunction,SMDPad,CuDef*%
G36*
G01*
X126862500Y-103750000D02*
X126862500Y-102425000D01*
G75*
G02*
X126937500Y-102350000I75000J0D01*
G01*
X127087500Y-102350000D01*
G75*
G02*
X127162500Y-102425000I0J-75000D01*
G01*
X127162500Y-103750000D01*
G75*
G02*
X127087500Y-103825000I-75000J0D01*
G01*
X126937500Y-103825000D01*
G75*
G02*
X126862500Y-103750000I0J75000D01*
G01*
G37*
%TD.AperFunction*%
%TO.P,U1,37*%
%TO.N,SWCLK*%
%TA.AperFunction,SMDPad,CuDef*%
G36*
G01*
X127362500Y-103750000D02*
X127362500Y-102425000D01*
G75*
G02*
X127437500Y-102350000I75000J0D01*
G01*
X127587500Y-102350000D01*
G75*
G02*
X127662500Y-102425000I0J-75000D01*
G01*
X127662500Y-103750000D01*
G75*
G02*
X127587500Y-103825000I-75000J0D01*
G01*
X127437500Y-103825000D01*
G75*
G02*
X127362500Y-103750000I0J75000D01*
G01*
G37*
%TD.AperFunction*%
%TO.P,U1,36*%
%TO.N,Net-(U1-Pad36)*%
%TA.AperFunction,SMDPad,CuDef*%
G36*
G01*
X128187500Y-104575000D02*
X128187500Y-104425000D01*
G75*
G02*
X128262500Y-104350000I75000J0D01*
G01*
X129587500Y-104350000D01*
G75*
G02*
X129662500Y-104425000I0J-75000D01*
G01*
X129662500Y-104575000D01*
G75*
G02*
X129587500Y-104650000I-75000J0D01*
G01*
X128262500Y-104650000D01*
G75*
G02*
X128187500Y-104575000I0J75000D01*
G01*
G37*
%TD.AperFunction*%
%TO.P,U1,35*%
%TO.N,Net-(U1-Pad35)*%
%TA.AperFunction,SMDPad,CuDef*%
G36*
G01*
X128187500Y-105075000D02*
X128187500Y-104925000D01*
G75*
G02*
X128262500Y-104850000I75000J0D01*
G01*
X129587500Y-104850000D01*
G75*
G02*
X129662500Y-104925000I0J-75000D01*
G01*
X129662500Y-105075000D01*
G75*
G02*
X129587500Y-105150000I-75000J0D01*
G01*
X128262500Y-105150000D01*
G75*
G02*
X128187500Y-105075000I0J75000D01*
G01*
G37*
%TD.AperFunction*%
%TO.P,U1,34*%
%TO.N,SWDIO*%
%TA.AperFunction,SMDPad,CuDef*%
G36*
G01*
X128187500Y-105575000D02*
X128187500Y-105425000D01*
G75*
G02*
X128262500Y-105350000I75000J0D01*
G01*
X129587500Y-105350000D01*
G75*
G02*
X129662500Y-105425000I0J-75000D01*
G01*
X129662500Y-105575000D01*
G75*
G02*
X129587500Y-105650000I-75000J0D01*
G01*
X128262500Y-105650000D01*
G75*
G02*
X128187500Y-105575000I0J75000D01*
G01*
G37*
%TD.AperFunction*%
%TO.P,U1,33*%
%TO.N,PA12*%
%TA.AperFunction,SMDPad,CuDef*%
G36*
G01*
X128187500Y-106075000D02*
X128187500Y-105925000D01*
G75*
G02*
X128262500Y-105850000I75000J0D01*
G01*
X129587500Y-105850000D01*
G75*
G02*
X129662500Y-105925000I0J-75000D01*
G01*
X129662500Y-106075000D01*
G75*
G02*
X129587500Y-106150000I-75000J0D01*
G01*
X128262500Y-106150000D01*
G75*
G02*
X128187500Y-106075000I0J75000D01*
G01*
G37*
%TD.AperFunction*%
%TO.P,U1,32*%
%TO.N,PA11*%
%TA.AperFunction,SMDPad,CuDef*%
G36*
G01*
X128187500Y-106575000D02*
X128187500Y-106425000D01*
G75*
G02*
X128262500Y-106350000I75000J0D01*
G01*
X129587500Y-106350000D01*
G75*
G02*
X129662500Y-106425000I0J-75000D01*
G01*
X129662500Y-106575000D01*
G75*
G02*
X129587500Y-106650000I-75000J0D01*
G01*
X128262500Y-106650000D01*
G75*
G02*
X128187500Y-106575000I0J75000D01*
G01*
G37*
%TD.AperFunction*%
%TO.P,U1,31*%
%TO.N,PA10*%
%TA.AperFunction,SMDPad,CuDef*%
G36*
G01*
X128187500Y-107075000D02*
X128187500Y-106925000D01*
G75*
G02*
X128262500Y-106850000I75000J0D01*
G01*
X129587500Y-106850000D01*
G75*
G02*
X129662500Y-106925000I0J-75000D01*
G01*
X129662500Y-107075000D01*
G75*
G02*
X129587500Y-107150000I-75000J0D01*
G01*
X128262500Y-107150000D01*
G75*
G02*
X128187500Y-107075000I0J75000D01*
G01*
G37*
%TD.AperFunction*%
%TO.P,U1,30*%
%TO.N,PA9*%
%TA.AperFunction,SMDPad,CuDef*%
G36*
G01*
X128187500Y-107575000D02*
X128187500Y-107425000D01*
G75*
G02*
X128262500Y-107350000I75000J0D01*
G01*
X129587500Y-107350000D01*
G75*
G02*
X129662500Y-107425000I0J-75000D01*
G01*
X129662500Y-107575000D01*
G75*
G02*
X129587500Y-107650000I-75000J0D01*
G01*
X128262500Y-107650000D01*
G75*
G02*
X128187500Y-107575000I0J75000D01*
G01*
G37*
%TD.AperFunction*%
%TO.P,U1,29*%
%TO.N,PA8*%
%TA.AperFunction,SMDPad,CuDef*%
G36*
G01*
X128187500Y-108075000D02*
X128187500Y-107925000D01*
G75*
G02*
X128262500Y-107850000I75000J0D01*
G01*
X129587500Y-107850000D01*
G75*
G02*
X129662500Y-107925000I0J-75000D01*
G01*
X129662500Y-108075000D01*
G75*
G02*
X129587500Y-108150000I-75000J0D01*
G01*
X128262500Y-108150000D01*
G75*
G02*
X128187500Y-108075000I0J75000D01*
G01*
G37*
%TD.AperFunction*%
%TO.P,U1,28*%
%TO.N,PB15*%
%TA.AperFunction,SMDPad,CuDef*%
G36*
G01*
X128187500Y-108575000D02*
X128187500Y-108425000D01*
G75*
G02*
X128262500Y-108350000I75000J0D01*
G01*
X129587500Y-108350000D01*
G75*
G02*
X129662500Y-108425000I0J-75000D01*
G01*
X129662500Y-108575000D01*
G75*
G02*
X129587500Y-108650000I-75000J0D01*
G01*
X128262500Y-108650000D01*
G75*
G02*
X128187500Y-108575000I0J75000D01*
G01*
G37*
%TD.AperFunction*%
%TO.P,U1,27*%
%TO.N,PB14*%
%TA.AperFunction,SMDPad,CuDef*%
G36*
G01*
X128187500Y-109075000D02*
X128187500Y-108925000D01*
G75*
G02*
X128262500Y-108850000I75000J0D01*
G01*
X129587500Y-108850000D01*
G75*
G02*
X129662500Y-108925000I0J-75000D01*
G01*
X129662500Y-109075000D01*
G75*
G02*
X129587500Y-109150000I-75000J0D01*
G01*
X128262500Y-109150000D01*
G75*
G02*
X128187500Y-109075000I0J75000D01*
G01*
G37*
%TD.AperFunction*%
%TO.P,U1,26*%
%TO.N,PB13*%
%TA.AperFunction,SMDPad,CuDef*%
G36*
G01*
X128187500Y-109575000D02*
X128187500Y-109425000D01*
G75*
G02*
X128262500Y-109350000I75000J0D01*
G01*
X129587500Y-109350000D01*
G75*
G02*
X129662500Y-109425000I0J-75000D01*
G01*
X129662500Y-109575000D01*
G75*
G02*
X129587500Y-109650000I-75000J0D01*
G01*
X128262500Y-109650000D01*
G75*
G02*
X128187500Y-109575000I0J75000D01*
G01*
G37*
%TD.AperFunction*%
%TO.P,U1,25*%
%TO.N,PB12*%
%TA.AperFunction,SMDPad,CuDef*%
G36*
G01*
X128187500Y-110075000D02*
X128187500Y-109925000D01*
G75*
G02*
X128262500Y-109850000I75000J0D01*
G01*
X129587500Y-109850000D01*
G75*
G02*
X129662500Y-109925000I0J-75000D01*
G01*
X129662500Y-110075000D01*
G75*
G02*
X129587500Y-110150000I-75000J0D01*
G01*
X128262500Y-110150000D01*
G75*
G02*
X128187500Y-110075000I0J75000D01*
G01*
G37*
%TD.AperFunction*%
%TO.P,U1,24*%
%TO.N,+3V3*%
%TA.AperFunction,SMDPad,CuDef*%
G36*
G01*
X127362500Y-112075000D02*
X127362500Y-110750000D01*
G75*
G02*
X127437500Y-110675000I75000J0D01*
G01*
X127587500Y-110675000D01*
G75*
G02*
X127662500Y-110750000I0J-75000D01*
G01*
X127662500Y-112075000D01*
G75*
G02*
X127587500Y-112150000I-75000J0D01*
G01*
X127437500Y-112150000D01*
G75*
G02*
X127362500Y-112075000I0J75000D01*
G01*
G37*
%TD.AperFunction*%
%TO.P,U1,23*%
%TO.N,GND*%
%TA.AperFunction,SMDPad,CuDef*%
G36*
G01*
X126862500Y-112075000D02*
X126862500Y-110750000D01*
G75*
G02*
X126937500Y-110675000I75000J0D01*
G01*
X127087500Y-110675000D01*
G75*
G02*
X127162500Y-110750000I0J-75000D01*
G01*
X127162500Y-112075000D01*
G75*
G02*
X127087500Y-112150000I-75000J0D01*
G01*
X126937500Y-112150000D01*
G75*
G02*
X126862500Y-112075000I0J75000D01*
G01*
G37*
%TD.AperFunction*%
%TO.P,U1,22*%
%TO.N,PB11*%
%TA.AperFunction,SMDPad,CuDef*%
G36*
G01*
X126362500Y-112075000D02*
X126362500Y-110750000D01*
G75*
G02*
X126437500Y-110675000I75000J0D01*
G01*
X126587500Y-110675000D01*
G75*
G02*
X126662500Y-110750000I0J-75000D01*
G01*
X126662500Y-112075000D01*
G75*
G02*
X126587500Y-112150000I-75000J0D01*
G01*
X126437500Y-112150000D01*
G75*
G02*
X126362500Y-112075000I0J75000D01*
G01*
G37*
%TD.AperFunction*%
%TO.P,U1,21*%
%TO.N,PB10*%
%TA.AperFunction,SMDPad,CuDef*%
G36*
G01*
X125862500Y-112075000D02*
X125862500Y-110750000D01*
G75*
G02*
X125937500Y-110675000I75000J0D01*
G01*
X126087500Y-110675000D01*
G75*
G02*
X126162500Y-110750000I0J-75000D01*
G01*
X126162500Y-112075000D01*
G75*
G02*
X126087500Y-112150000I-75000J0D01*
G01*
X125937500Y-112150000D01*
G75*
G02*
X125862500Y-112075000I0J75000D01*
G01*
G37*
%TD.AperFunction*%
%TO.P,U1,20*%
%TO.N,PB2*%
%TA.AperFunction,SMDPad,CuDef*%
G36*
G01*
X125362500Y-112075000D02*
X125362500Y-110750000D01*
G75*
G02*
X125437500Y-110675000I75000J0D01*
G01*
X125587500Y-110675000D01*
G75*
G02*
X125662500Y-110750000I0J-75000D01*
G01*
X125662500Y-112075000D01*
G75*
G02*
X125587500Y-112150000I-75000J0D01*
G01*
X125437500Y-112150000D01*
G75*
G02*
X125362500Y-112075000I0J75000D01*
G01*
G37*
%TD.AperFunction*%
%TO.P,U1,19*%
%TO.N,PB1*%
%TA.AperFunction,SMDPad,CuDef*%
G36*
G01*
X124862500Y-112075000D02*
X124862500Y-110750000D01*
G75*
G02*
X124937500Y-110675000I75000J0D01*
G01*
X125087500Y-110675000D01*
G75*
G02*
X125162500Y-110750000I0J-75000D01*
G01*
X125162500Y-112075000D01*
G75*
G02*
X125087500Y-112150000I-75000J0D01*
G01*
X124937500Y-112150000D01*
G75*
G02*
X124862500Y-112075000I0J75000D01*
G01*
G37*
%TD.AperFunction*%
%TO.P,U1,18*%
%TO.N,PB0*%
%TA.AperFunction,SMDPad,CuDef*%
G36*
G01*
X124362500Y-112075000D02*
X124362500Y-110750000D01*
G75*
G02*
X124437500Y-110675000I75000J0D01*
G01*
X124587500Y-110675000D01*
G75*
G02*
X124662500Y-110750000I0J-75000D01*
G01*
X124662500Y-112075000D01*
G75*
G02*
X124587500Y-112150000I-75000J0D01*
G01*
X124437500Y-112150000D01*
G75*
G02*
X124362500Y-112075000I0J75000D01*
G01*
G37*
%TD.AperFunction*%
%TO.P,U1,17*%
%TO.N,PA7*%
%TA.AperFunction,SMDPad,CuDef*%
G36*
G01*
X123862500Y-112075000D02*
X123862500Y-110750000D01*
G75*
G02*
X123937500Y-110675000I75000J0D01*
G01*
X124087500Y-110675000D01*
G75*
G02*
X124162500Y-110750000I0J-75000D01*
G01*
X124162500Y-112075000D01*
G75*
G02*
X124087500Y-112150000I-75000J0D01*
G01*
X123937500Y-112150000D01*
G75*
G02*
X123862500Y-112075000I0J75000D01*
G01*
G37*
%TD.AperFunction*%
%TO.P,U1,16*%
%TO.N,PA6*%
%TA.AperFunction,SMDPad,CuDef*%
G36*
G01*
X123362500Y-112075000D02*
X123362500Y-110750000D01*
G75*
G02*
X123437500Y-110675000I75000J0D01*
G01*
X123587500Y-110675000D01*
G75*
G02*
X123662500Y-110750000I0J-75000D01*
G01*
X123662500Y-112075000D01*
G75*
G02*
X123587500Y-112150000I-75000J0D01*
G01*
X123437500Y-112150000D01*
G75*
G02*
X123362500Y-112075000I0J75000D01*
G01*
G37*
%TD.AperFunction*%
%TO.P,U1,15*%
%TO.N,PA5*%
%TA.AperFunction,SMDPad,CuDef*%
G36*
G01*
X122862500Y-112075000D02*
X122862500Y-110750000D01*
G75*
G02*
X122937500Y-110675000I75000J0D01*
G01*
X123087500Y-110675000D01*
G75*
G02*
X123162500Y-110750000I0J-75000D01*
G01*
X123162500Y-112075000D01*
G75*
G02*
X123087500Y-112150000I-75000J0D01*
G01*
X122937500Y-112150000D01*
G75*
G02*
X122862500Y-112075000I0J75000D01*
G01*
G37*
%TD.AperFunction*%
%TO.P,U1,14*%
%TO.N,PA4*%
%TA.AperFunction,SMDPad,CuDef*%
G36*
G01*
X122362500Y-112075000D02*
X122362500Y-110750000D01*
G75*
G02*
X122437500Y-110675000I75000J0D01*
G01*
X122587500Y-110675000D01*
G75*
G02*
X122662500Y-110750000I0J-75000D01*
G01*
X122662500Y-112075000D01*
G75*
G02*
X122587500Y-112150000I-75000J0D01*
G01*
X122437500Y-112150000D01*
G75*
G02*
X122362500Y-112075000I0J75000D01*
G01*
G37*
%TD.AperFunction*%
%TO.P,U1,13*%
%TO.N,PA3*%
%TA.AperFunction,SMDPad,CuDef*%
G36*
G01*
X121862500Y-112075000D02*
X121862500Y-110750000D01*
G75*
G02*
X121937500Y-110675000I75000J0D01*
G01*
X122087500Y-110675000D01*
G75*
G02*
X122162500Y-110750000I0J-75000D01*
G01*
X122162500Y-112075000D01*
G75*
G02*
X122087500Y-112150000I-75000J0D01*
G01*
X121937500Y-112150000D01*
G75*
G02*
X121862500Y-112075000I0J75000D01*
G01*
G37*
%TD.AperFunction*%
%TO.P,U1,12*%
%TO.N,PA2*%
%TA.AperFunction,SMDPad,CuDef*%
G36*
G01*
X119862500Y-110075000D02*
X119862500Y-109925000D01*
G75*
G02*
X119937500Y-109850000I75000J0D01*
G01*
X121262500Y-109850000D01*
G75*
G02*
X121337500Y-109925000I0J-75000D01*
G01*
X121337500Y-110075000D01*
G75*
G02*
X121262500Y-110150000I-75000J0D01*
G01*
X119937500Y-110150000D01*
G75*
G02*
X119862500Y-110075000I0J75000D01*
G01*
G37*
%TD.AperFunction*%
%TO.P,U1,11*%
%TO.N,PA1*%
%TA.AperFunction,SMDPad,CuDef*%
G36*
G01*
X119862500Y-109575000D02*
X119862500Y-109425000D01*
G75*
G02*
X119937500Y-109350000I75000J0D01*
G01*
X121262500Y-109350000D01*
G75*
G02*
X121337500Y-109425000I0J-75000D01*
G01*
X121337500Y-109575000D01*
G75*
G02*
X121262500Y-109650000I-75000J0D01*
G01*
X119937500Y-109650000D01*
G75*
G02*
X119862500Y-109575000I0J75000D01*
G01*
G37*
%TD.AperFunction*%
%TO.P,U1,10*%
%TO.N,PA0*%
%TA.AperFunction,SMDPad,CuDef*%
G36*
G01*
X119862500Y-109075000D02*
X119862500Y-108925000D01*
G75*
G02*
X119937500Y-108850000I75000J0D01*
G01*
X121262500Y-108850000D01*
G75*
G02*
X121337500Y-108925000I0J-75000D01*
G01*
X121337500Y-109075000D01*
G75*
G02*
X121262500Y-109150000I-75000J0D01*
G01*
X119937500Y-109150000D01*
G75*
G02*
X119862500Y-109075000I0J75000D01*
G01*
G37*
%TD.AperFunction*%
%TO.P,U1,9*%
%TO.N,+3.3VA*%
%TA.AperFunction,SMDPad,CuDef*%
G36*
G01*
X119862500Y-108575000D02*
X119862500Y-108425000D01*
G75*
G02*
X119937500Y-108350000I75000J0D01*
G01*
X121262500Y-108350000D01*
G75*
G02*
X121337500Y-108425000I0J-75000D01*
G01*
X121337500Y-108575000D01*
G75*
G02*
X121262500Y-108650000I-75000J0D01*
G01*
X119937500Y-108650000D01*
G75*
G02*
X119862500Y-108575000I0J75000D01*
G01*
G37*
%TD.AperFunction*%
%TO.P,U1,8*%
%TO.N,GND*%
%TA.AperFunction,SMDPad,CuDef*%
G36*
G01*
X119862500Y-108075000D02*
X119862500Y-107925000D01*
G75*
G02*
X119937500Y-107850000I75000J0D01*
G01*
X121262500Y-107850000D01*
G75*
G02*
X121337500Y-107925000I0J-75000D01*
G01*
X121337500Y-108075000D01*
G75*
G02*
X121262500Y-108150000I-75000J0D01*
G01*
X119937500Y-108150000D01*
G75*
G02*
X119862500Y-108075000I0J75000D01*
G01*
G37*
%TD.AperFunction*%
%TO.P,U1,7*%
%TO.N,NRST*%
%TA.AperFunction,SMDPad,CuDef*%
G36*
G01*
X119862500Y-107575000D02*
X119862500Y-107425000D01*
G75*
G02*
X119937500Y-107350000I75000J0D01*
G01*
X121262500Y-107350000D01*
G75*
G02*
X121337500Y-107425000I0J-75000D01*
G01*
X121337500Y-107575000D01*
G75*
G02*
X121262500Y-107650000I-75000J0D01*
G01*
X119937500Y-107650000D01*
G75*
G02*
X119862500Y-107575000I0J75000D01*
G01*
G37*
%TD.AperFunction*%
%TO.P,U1,6*%
%TO.N,/OSC_OUT*%
%TA.AperFunction,SMDPad,CuDef*%
G36*
G01*
X119862500Y-107075000D02*
X119862500Y-106925000D01*
G75*
G02*
X119937500Y-106850000I75000J0D01*
G01*
X121262500Y-106850000D01*
G75*
G02*
X121337500Y-106925000I0J-75000D01*
G01*
X121337500Y-107075000D01*
G75*
G02*
X121262500Y-107150000I-75000J0D01*
G01*
X119937500Y-107150000D01*
G75*
G02*
X119862500Y-107075000I0J75000D01*
G01*
G37*
%TD.AperFunction*%
%TO.P,U1,5*%
%TO.N,/OSC_IN*%
%TA.AperFunction,SMDPad,CuDef*%
G36*
G01*
X119862500Y-106575000D02*
X119862500Y-106425000D01*
G75*
G02*
X119937500Y-106350000I75000J0D01*
G01*
X121262500Y-106350000D01*
G75*
G02*
X121337500Y-106425000I0J-75000D01*
G01*
X121337500Y-106575000D01*
G75*
G02*
X121262500Y-106650000I-75000J0D01*
G01*
X119937500Y-106650000D01*
G75*
G02*
X119862500Y-106575000I0J75000D01*
G01*
G37*
%TD.AperFunction*%
%TO.P,U1,4*%
%TO.N,Net-(U1-Pad4)*%
%TA.AperFunction,SMDPad,CuDef*%
G36*
G01*
X119862500Y-106075000D02*
X119862500Y-105925000D01*
G75*
G02*
X119937500Y-105850000I75000J0D01*
G01*
X121262500Y-105850000D01*
G75*
G02*
X121337500Y-105925000I0J-75000D01*
G01*
X121337500Y-106075000D01*
G75*
G02*
X121262500Y-106150000I-75000J0D01*
G01*
X119937500Y-106150000D01*
G75*
G02*
X119862500Y-106075000I0J75000D01*
G01*
G37*
%TD.AperFunction*%
%TO.P,U1,3*%
%TO.N,Net-(U1-Pad3)*%
%TA.AperFunction,SMDPad,CuDef*%
G36*
G01*
X119862500Y-105575000D02*
X119862500Y-105425000D01*
G75*
G02*
X119937500Y-105350000I75000J0D01*
G01*
X121262500Y-105350000D01*
G75*
G02*
X121337500Y-105425000I0J-75000D01*
G01*
X121337500Y-105575000D01*
G75*
G02*
X121262500Y-105650000I-75000J0D01*
G01*
X119937500Y-105650000D01*
G75*
G02*
X119862500Y-105575000I0J75000D01*
G01*
G37*
%TD.AperFunction*%
%TO.P,U1,2*%
%TO.N,Net-(U1-Pad2)*%
%TA.AperFunction,SMDPad,CuDef*%
G36*
G01*
X119862500Y-105075000D02*
X119862500Y-104925000D01*
G75*
G02*
X119937500Y-104850000I75000J0D01*
G01*
X121262500Y-104850000D01*
G75*
G02*
X121337500Y-104925000I0J-75000D01*
G01*
X121337500Y-105075000D01*
G75*
G02*
X121262500Y-105150000I-75000J0D01*
G01*
X119937500Y-105150000D01*
G75*
G02*
X119862500Y-105075000I0J75000D01*
G01*
G37*
%TD.AperFunction*%
%TO.P,U1,1*%
%TO.N,+3V3*%
%TA.AperFunction,SMDPad,CuDef*%
G36*
G01*
X119862500Y-104575000D02*
X119862500Y-104425000D01*
G75*
G02*
X119937500Y-104350000I75000J0D01*
G01*
X121262500Y-104350000D01*
G75*
G02*
X121337500Y-104425000I0J-75000D01*
G01*
X121337500Y-104575000D01*
G75*
G02*
X121262500Y-104650000I-75000J0D01*
G01*
X119937500Y-104650000D01*
G75*
G02*
X119862500Y-104575000I0J75000D01*
G01*
G37*
%TD.AperFunction*%
%TD*%
%TO.P,C1,2*%
%TO.N,GND*%
%TA.AperFunction,SMDPad,CuDef*%
G36*
G01*
X138500000Y-111525000D02*
X138500000Y-112475000D01*
G75*
G02*
X138250000Y-112725000I-250000J0D01*
G01*
X137750000Y-112725000D01*
G75*
G02*
X137500000Y-112475000I0J250000D01*
G01*
X137500000Y-111525000D01*
G75*
G02*
X137750000Y-111275000I250000J0D01*
G01*
X138250000Y-111275000D01*
G75*
G02*
X138500000Y-111525000I0J-250000D01*
G01*
G37*
%TD.AperFunction*%
%TO.P,C1,1*%
%TO.N,+3V3*%
%TA.AperFunction,SMDPad,CuDef*%
G36*
G01*
X140400000Y-111525000D02*
X140400000Y-112475000D01*
G75*
G02*
X140150000Y-112725000I-250000J0D01*
G01*
X139650000Y-112725000D01*
G75*
G02*
X139400000Y-112475000I0J250000D01*
G01*
X139400000Y-111525000D01*
G75*
G02*
X139650000Y-111275000I250000J0D01*
G01*
X140150000Y-111275000D01*
G75*
G02*
X140400000Y-111525000I0J-250000D01*
G01*
G37*
%TD.AperFunction*%
%TD*%
D10*
%TO.P,J4,10*%
%TO.N,NRST*%
X142700000Y-109790000D03*
%TO.P,J4,9*%
%TO.N,GND*%
X138800000Y-109790000D03*
%TO.P,J4,8*%
%TO.N,Net-(J4-Pad8)*%
X142700000Y-108520000D03*
%TO.P,J4,7*%
%TO.N,Net-(J4-Pad7)*%
X138800000Y-108520000D03*
%TO.P,J4,6*%
%TO.N,Net-(J4-Pad6)*%
X142700000Y-107250000D03*
%TO.P,J4,5*%
%TO.N,GND*%
X138800000Y-107250000D03*
%TO.P,J4,4*%
%TO.N,SWCLK*%
X142700000Y-105980000D03*
%TO.P,J4,3*%
%TO.N,GND*%
X138800000Y-105980000D03*
%TO.P,J4,2*%
%TO.N,SWDIO*%
X142700000Y-104710000D03*
%TO.P,J4,1*%
%TO.N,+3V3*%
X138800000Y-104710000D03*
%TD*%
%TO.P,R2,2*%
%TO.N,GND*%
%TA.AperFunction,SMDPad,CuDef*%
G36*
G01*
X134950000Y-111885000D02*
X134950000Y-111515000D01*
G75*
G02*
X135085000Y-111380000I135000J0D01*
G01*
X135355000Y-111380000D01*
G75*
G02*
X135490000Y-111515000I0J-135000D01*
G01*
X135490000Y-111885000D01*
G75*
G02*
X135355000Y-112020000I-135000J0D01*
G01*
X135085000Y-112020000D01*
G75*
G02*
X134950000Y-111885000I0J135000D01*
G01*
G37*
%TD.AperFunction*%
%TO.P,R2,1*%
%TO.N,Net-(D2-Pad1)*%
%TA.AperFunction,SMDPad,CuDef*%
G36*
G01*
X133930000Y-111885000D02*
X133930000Y-111515000D01*
G75*
G02*
X134065000Y-111380000I135000J0D01*
G01*
X134335000Y-111380000D01*
G75*
G02*
X134470000Y-111515000I0J-135000D01*
G01*
X134470000Y-111885000D01*
G75*
G02*
X134335000Y-112020000I-135000J0D01*
G01*
X134065000Y-112020000D01*
G75*
G02*
X133930000Y-111885000I0J135000D01*
G01*
G37*
%TD.AperFunction*%
%TD*%
%TO.P,R1,2*%
%TO.N,GND*%
%TA.AperFunction,SMDPad,CuDef*%
G36*
G01*
X112570000Y-110715000D02*
X112570000Y-111085000D01*
G75*
G02*
X112435000Y-111220000I-135000J0D01*
G01*
X112165000Y-111220000D01*
G75*
G02*
X112030000Y-111085000I0J135000D01*
G01*
X112030000Y-110715000D01*
G75*
G02*
X112165000Y-110580000I135000J0D01*
G01*
X112435000Y-110580000D01*
G75*
G02*
X112570000Y-110715000I0J-135000D01*
G01*
G37*
%TD.AperFunction*%
%TO.P,R1,1*%
%TO.N,/BOOT0*%
%TA.AperFunction,SMDPad,CuDef*%
G36*
G01*
X113590000Y-110715000D02*
X113590000Y-111085000D01*
G75*
G02*
X113455000Y-111220000I-135000J0D01*
G01*
X113185000Y-111220000D01*
G75*
G02*
X113050000Y-111085000I0J135000D01*
G01*
X113050000Y-110715000D01*
G75*
G02*
X113185000Y-110580000I135000J0D01*
G01*
X113455000Y-110580000D01*
G75*
G02*
X113590000Y-110715000I0J-135000D01*
G01*
G37*
%TD.AperFunction*%
%TD*%
%TO.P,FB1,2*%
%TO.N,+5V*%
%TA.AperFunction,SMDPad,CuDef*%
G36*
G01*
X104406250Y-106437500D02*
X103893750Y-106437500D01*
G75*
G02*
X103675000Y-106218750I0J218750D01*
G01*
X103675000Y-105781250D01*
G75*
G02*
X103893750Y-105562500I218750J0D01*
G01*
X104406250Y-105562500D01*
G75*
G02*
X104625000Y-105781250I0J-218750D01*
G01*
X104625000Y-106218750D01*
G75*
G02*
X104406250Y-106437500I-218750J0D01*
G01*
G37*
%TD.AperFunction*%
%TO.P,FB1,1*%
%TO.N,VCC*%
%TA.AperFunction,SMDPad,CuDef*%
G36*
G01*
X104406250Y-108012500D02*
X103893750Y-108012500D01*
G75*
G02*
X103675000Y-107793750I0J218750D01*
G01*
X103675000Y-107356250D01*
G75*
G02*
X103893750Y-107137500I218750J0D01*
G01*
X104406250Y-107137500D01*
G75*
G02*
X104625000Y-107356250I0J-218750D01*
G01*
X104625000Y-107793750D01*
G75*
G02*
X104406250Y-108012500I-218750J0D01*
G01*
G37*
%TD.AperFunction*%
%TD*%
%TO.P,C12,2*%
%TO.N,GND*%
%TA.AperFunction,SMDPad,CuDef*%
G36*
G01*
X107300000Y-110975000D02*
X107300000Y-110025000D01*
G75*
G02*
X107550000Y-109775000I250000J0D01*
G01*
X108050000Y-109775000D01*
G75*
G02*
X108300000Y-110025000I0J-250000D01*
G01*
X108300000Y-110975000D01*
G75*
G02*
X108050000Y-111225000I-250000J0D01*
G01*
X107550000Y-111225000D01*
G75*
G02*
X107300000Y-110975000I0J250000D01*
G01*
G37*
%TD.AperFunction*%
%TO.P,C12,1*%
%TO.N,VCC*%
%TA.AperFunction,SMDPad,CuDef*%
G36*
G01*
X105400000Y-110975000D02*
X105400000Y-110025000D01*
G75*
G02*
X105650000Y-109775000I250000J0D01*
G01*
X106150000Y-109775000D01*
G75*
G02*
X106400000Y-110025000I0J-250000D01*
G01*
X106400000Y-110975000D01*
G75*
G02*
X106150000Y-111225000I-250000J0D01*
G01*
X105650000Y-111225000D01*
G75*
G02*
X105400000Y-110975000I0J250000D01*
G01*
G37*
%TD.AperFunction*%
%TD*%
%TO.P,C11,2*%
%TO.N,GND*%
%TA.AperFunction,SMDPad,CuDef*%
G36*
G01*
X106400000Y-103525000D02*
X106400000Y-104475000D01*
G75*
G02*
X106150000Y-104725000I-250000J0D01*
G01*
X105650000Y-104725000D01*
G75*
G02*
X105400000Y-104475000I0J250000D01*
G01*
X105400000Y-103525000D01*
G75*
G02*
X105650000Y-103275000I250000J0D01*
G01*
X106150000Y-103275000D01*
G75*
G02*
X106400000Y-103525000I0J-250000D01*
G01*
G37*
%TD.AperFunction*%
%TO.P,C11,1*%
%TO.N,+3V3*%
%TA.AperFunction,SMDPad,CuDef*%
G36*
G01*
X108300000Y-103525000D02*
X108300000Y-104475000D01*
G75*
G02*
X108050000Y-104725000I-250000J0D01*
G01*
X107550000Y-104725000D01*
G75*
G02*
X107300000Y-104475000I0J250000D01*
G01*
X107300000Y-103525000D01*
G75*
G02*
X107550000Y-103275000I250000J0D01*
G01*
X108050000Y-103275000D01*
G75*
G02*
X108300000Y-103525000I0J-250000D01*
G01*
G37*
%TD.AperFunction*%
%TD*%
%TO.P,C10,2*%
%TO.N,GND*%
%TA.AperFunction,SMDPad,CuDef*%
G36*
G01*
X116280000Y-111370000D02*
X116280000Y-111030000D01*
G75*
G02*
X116420000Y-110890000I140000J0D01*
G01*
X116700000Y-110890000D01*
G75*
G02*
X116840000Y-111030000I0J-140000D01*
G01*
X116840000Y-111370000D01*
G75*
G02*
X116700000Y-111510000I-140000J0D01*
G01*
X116420000Y-111510000D01*
G75*
G02*
X116280000Y-111370000I0J140000D01*
G01*
G37*
%TD.AperFunction*%
%TO.P,C10,1*%
%TO.N,/OSC_OUT*%
%TA.AperFunction,SMDPad,CuDef*%
G36*
G01*
X115320000Y-111370000D02*
X115320000Y-111030000D01*
G75*
G02*
X115460000Y-110890000I140000J0D01*
G01*
X115740000Y-110890000D01*
G75*
G02*
X115880000Y-111030000I0J-140000D01*
G01*
X115880000Y-111370000D01*
G75*
G02*
X115740000Y-111510000I-140000J0D01*
G01*
X115460000Y-111510000D01*
G75*
G02*
X115320000Y-111370000I0J140000D01*
G01*
G37*
%TD.AperFunction*%
%TD*%
%TO.P,C9,2*%
%TO.N,GND*%
%TA.AperFunction,SMDPad,CuDef*%
G36*
G01*
X116280000Y-103470000D02*
X116280000Y-103130000D01*
G75*
G02*
X116420000Y-102990000I140000J0D01*
G01*
X116700000Y-102990000D01*
G75*
G02*
X116840000Y-103130000I0J-140000D01*
G01*
X116840000Y-103470000D01*
G75*
G02*
X116700000Y-103610000I-140000J0D01*
G01*
X116420000Y-103610000D01*
G75*
G02*
X116280000Y-103470000I0J140000D01*
G01*
G37*
%TD.AperFunction*%
%TO.P,C9,1*%
%TO.N,/OSC_IN*%
%TA.AperFunction,SMDPad,CuDef*%
G36*
G01*
X115320000Y-103470000D02*
X115320000Y-103130000D01*
G75*
G02*
X115460000Y-102990000I140000J0D01*
G01*
X115740000Y-102990000D01*
G75*
G02*
X115880000Y-103130000I0J-140000D01*
G01*
X115880000Y-103470000D01*
G75*
G02*
X115740000Y-103610000I-140000J0D01*
G01*
X115460000Y-103610000D01*
G75*
G02*
X115320000Y-103470000I0J140000D01*
G01*
G37*
%TD.AperFunction*%
%TD*%
%TO.P,C8,2*%
%TO.N,GND*%
%TA.AperFunction,SMDPad,CuDef*%
G36*
G01*
X110820000Y-111070000D02*
X110820000Y-110730000D01*
G75*
G02*
X110960000Y-110590000I140000J0D01*
G01*
X111240000Y-110590000D01*
G75*
G02*
X111380000Y-110730000I0J-140000D01*
G01*
X111380000Y-111070000D01*
G75*
G02*
X111240000Y-111210000I-140000J0D01*
G01*
X110960000Y-111210000D01*
G75*
G02*
X110820000Y-111070000I0J140000D01*
G01*
G37*
%TD.AperFunction*%
%TO.P,C8,1*%
%TO.N,NRST*%
%TA.AperFunction,SMDPad,CuDef*%
G36*
G01*
X109860000Y-111070000D02*
X109860000Y-110730000D01*
G75*
G02*
X110000000Y-110590000I140000J0D01*
G01*
X110280000Y-110590000D01*
G75*
G02*
X110420000Y-110730000I0J-140000D01*
G01*
X110420000Y-111070000D01*
G75*
G02*
X110280000Y-111210000I-140000J0D01*
G01*
X110000000Y-111210000D01*
G75*
G02*
X109860000Y-111070000I0J140000D01*
G01*
G37*
%TD.AperFunction*%
%TD*%
%TO.P,C7,2*%
%TO.N,GND*%
%TA.AperFunction,SMDPad,CuDef*%
G36*
G01*
X112530000Y-103220000D02*
X112870000Y-103220000D01*
G75*
G02*
X113010000Y-103360000I0J-140000D01*
G01*
X113010000Y-103640000D01*
G75*
G02*
X112870000Y-103780000I-140000J0D01*
G01*
X112530000Y-103780000D01*
G75*
G02*
X112390000Y-103640000I0J140000D01*
G01*
X112390000Y-103360000D01*
G75*
G02*
X112530000Y-103220000I140000J0D01*
G01*
G37*
%TD.AperFunction*%
%TO.P,C7,1*%
%TO.N,+3.3VA*%
%TA.AperFunction,SMDPad,CuDef*%
G36*
G01*
X112530000Y-102260000D02*
X112870000Y-102260000D01*
G75*
G02*
X113010000Y-102400000I0J-140000D01*
G01*
X113010000Y-102680000D01*
G75*
G02*
X112870000Y-102820000I-140000J0D01*
G01*
X112530000Y-102820000D01*
G75*
G02*
X112390000Y-102680000I0J140000D01*
G01*
X112390000Y-102400000D01*
G75*
G02*
X112530000Y-102260000I140000J0D01*
G01*
G37*
%TD.AperFunction*%
%TD*%
%TO.P,C6,2*%
%TO.N,GND*%
%TA.AperFunction,SMDPad,CuDef*%
G36*
G01*
X111330000Y-103220000D02*
X111670000Y-103220000D01*
G75*
G02*
X111810000Y-103360000I0J-140000D01*
G01*
X111810000Y-103640000D01*
G75*
G02*
X111670000Y-103780000I-140000J0D01*
G01*
X111330000Y-103780000D01*
G75*
G02*
X111190000Y-103640000I0J140000D01*
G01*
X111190000Y-103360000D01*
G75*
G02*
X111330000Y-103220000I140000J0D01*
G01*
G37*
%TD.AperFunction*%
%TO.P,C6,1*%
%TO.N,+3.3VA*%
%TA.AperFunction,SMDPad,CuDef*%
G36*
G01*
X111330000Y-102260000D02*
X111670000Y-102260000D01*
G75*
G02*
X111810000Y-102400000I0J-140000D01*
G01*
X111810000Y-102680000D01*
G75*
G02*
X111670000Y-102820000I-140000J0D01*
G01*
X111330000Y-102820000D01*
G75*
G02*
X111190000Y-102680000I0J140000D01*
G01*
X111190000Y-102400000D01*
G75*
G02*
X111330000Y-102260000I140000J0D01*
G01*
G37*
%TD.AperFunction*%
%TD*%
%TO.P,C4,2*%
%TO.N,GND*%
%TA.AperFunction,SMDPad,CuDef*%
G36*
G01*
X129700000Y-112070000D02*
X129700000Y-111730000D01*
G75*
G02*
X129840000Y-111590000I140000J0D01*
G01*
X130120000Y-111590000D01*
G75*
G02*
X130260000Y-111730000I0J-140000D01*
G01*
X130260000Y-112070000D01*
G75*
G02*
X130120000Y-112210000I-140000J0D01*
G01*
X129840000Y-112210000D01*
G75*
G02*
X129700000Y-112070000I0J140000D01*
G01*
G37*
%TD.AperFunction*%
%TO.P,C4,1*%
%TO.N,+3V3*%
%TA.AperFunction,SMDPad,CuDef*%
G36*
G01*
X128740000Y-112070000D02*
X128740000Y-111730000D01*
G75*
G02*
X128880000Y-111590000I140000J0D01*
G01*
X129160000Y-111590000D01*
G75*
G02*
X129300000Y-111730000I0J-140000D01*
G01*
X129300000Y-112070000D01*
G75*
G02*
X129160000Y-112210000I-140000J0D01*
G01*
X128880000Y-112210000D01*
G75*
G02*
X128740000Y-112070000I0J140000D01*
G01*
G37*
%TD.AperFunction*%
%TD*%
%TO.P,C3,2*%
%TO.N,GND*%
%TA.AperFunction,SMDPad,CuDef*%
G36*
G01*
X120180000Y-102430000D02*
X120180000Y-102770000D01*
G75*
G02*
X120040000Y-102910000I-140000J0D01*
G01*
X119760000Y-102910000D01*
G75*
G02*
X119620000Y-102770000I0J140000D01*
G01*
X119620000Y-102430000D01*
G75*
G02*
X119760000Y-102290000I140000J0D01*
G01*
X120040000Y-102290000D01*
G75*
G02*
X120180000Y-102430000I0J-140000D01*
G01*
G37*
%TD.AperFunction*%
%TO.P,C3,1*%
%TO.N,+3V3*%
%TA.AperFunction,SMDPad,CuDef*%
G36*
G01*
X121140000Y-102430000D02*
X121140000Y-102770000D01*
G75*
G02*
X121000000Y-102910000I-140000J0D01*
G01*
X120720000Y-102910000D01*
G75*
G02*
X120580000Y-102770000I0J140000D01*
G01*
X120580000Y-102430000D01*
G75*
G02*
X120720000Y-102290000I140000J0D01*
G01*
X121000000Y-102290000D01*
G75*
G02*
X121140000Y-102430000I0J-140000D01*
G01*
G37*
%TD.AperFunction*%
%TD*%
%TO.P,C2,2*%
%TO.N,GND*%
%TA.AperFunction,SMDPad,CuDef*%
G36*
G01*
X118970000Y-103820000D02*
X118630000Y-103820000D01*
G75*
G02*
X118490000Y-103680000I0J140000D01*
G01*
X118490000Y-103400000D01*
G75*
G02*
X118630000Y-103260000I140000J0D01*
G01*
X118970000Y-103260000D01*
G75*
G02*
X119110000Y-103400000I0J-140000D01*
G01*
X119110000Y-103680000D01*
G75*
G02*
X118970000Y-103820000I-140000J0D01*
G01*
G37*
%TD.AperFunction*%
%TO.P,C2,1*%
%TO.N,+3V3*%
%TA.AperFunction,SMDPad,CuDef*%
G36*
G01*
X118970000Y-104780000D02*
X118630000Y-104780000D01*
G75*
G02*
X118490000Y-104640000I0J140000D01*
G01*
X118490000Y-104360000D01*
G75*
G02*
X118630000Y-104220000I140000J0D01*
G01*
X118970000Y-104220000D01*
G75*
G02*
X119110000Y-104360000I0J-140000D01*
G01*
X119110000Y-104640000D01*
G75*
G02*
X118970000Y-104780000I-140000J0D01*
G01*
G37*
%TD.AperFunction*%
%TD*%
D11*
%TO.P,Y1,2*%
%TO.N,/OSC_OUT*%
X116050000Y-109100000D03*
%TO.P,Y1,1*%
%TO.N,/OSC_IN*%
X116050000Y-105400000D03*
%TD*%
D12*
%TO.P,U2,3*%
%TO.N,VCC*%
X105850000Y-107250000D03*
%TO.P,U2,2*%
%TO.N,+3V3*%
X107850000Y-106300000D03*
%TO.P,U2,1*%
%TO.N,GND*%
X107850000Y-108200000D03*
%TD*%
%TO.P,SW1,1*%
%TO.N,GND*%
%TA.AperFunction,SMDPad,CuDef*%
G36*
G01*
X110650000Y-104500000D02*
X112250000Y-104500000D01*
G75*
G02*
X112450000Y-104700000I0J-200000D01*
G01*
X112450000Y-105100000D01*
G75*
G02*
X112250000Y-105300000I-200000J0D01*
G01*
X110650000Y-105300000D01*
G75*
G02*
X110450000Y-105100000I0J200000D01*
G01*
X110450000Y-104700000D01*
G75*
G02*
X110650000Y-104500000I200000J0D01*
G01*
G37*
%TD.AperFunction*%
%TO.P,SW1,2*%
%TO.N,NRST*%
%TA.AperFunction,SMDPad,CuDef*%
G36*
G01*
X110650000Y-108700000D02*
X112250000Y-108700000D01*
G75*
G02*
X112450000Y-108900000I0J-200000D01*
G01*
X112450000Y-109300000D01*
G75*
G02*
X112250000Y-109500000I-200000J0D01*
G01*
X110650000Y-109500000D01*
G75*
G02*
X110450000Y-109300000I0J200000D01*
G01*
X110450000Y-108900000D01*
G75*
G02*
X110650000Y-108700000I200000J0D01*
G01*
G37*
%TD.AperFunction*%
%TD*%
%TO.P,L1,2*%
%TO.N,+3.3VA*%
%TA.AperFunction,SMDPad,CuDef*%
G36*
G01*
X110372500Y-102825000D02*
X110027500Y-102825000D01*
G75*
G02*
X109880000Y-102677500I0J147500D01*
G01*
X109880000Y-102382500D01*
G75*
G02*
X110027500Y-102235000I147500J0D01*
G01*
X110372500Y-102235000D01*
G75*
G02*
X110520000Y-102382500I0J-147500D01*
G01*
X110520000Y-102677500D01*
G75*
G02*
X110372500Y-102825000I-147500J0D01*
G01*
G37*
%TD.AperFunction*%
%TO.P,L1,1*%
%TO.N,+3V3*%
%TA.AperFunction,SMDPad,CuDef*%
G36*
G01*
X110372500Y-103795000D02*
X110027500Y-103795000D01*
G75*
G02*
X109880000Y-103647500I0J147500D01*
G01*
X109880000Y-103352500D01*
G75*
G02*
X110027500Y-103205000I147500J0D01*
G01*
X110372500Y-103205000D01*
G75*
G02*
X110520000Y-103352500I0J-147500D01*
G01*
X110520000Y-103647500D01*
G75*
G02*
X110372500Y-103795000I-147500J0D01*
G01*
G37*
%TD.AperFunction*%
%TD*%
D13*
%TO.P,J3,6*%
%TO.N,Net-(J3-Pad6)*%
X99200000Y-108800000D03*
D14*
X99200000Y-106100000D03*
D15*
X99200000Y-110625000D03*
X99200000Y-103875000D03*
D16*
X101775000Y-109737500D03*
X101775000Y-104762500D03*
D17*
%TO.P,J3,5*%
%TO.N,GND*%
X101860000Y-108550000D03*
%TO.P,J3,4*%
%TO.N,Net-(J3-Pad4)*%
X101860000Y-107900000D03*
%TO.P,J3,3*%
%TO.N,Net-(J3-Pad3)*%
X101860000Y-107250000D03*
%TO.P,J3,2*%
%TO.N,Net-(J3-Pad2)*%
X101860000Y-106600000D03*
%TO.P,J3,1*%
%TO.N,+5V*%
X101860000Y-105950000D03*
%TD*%
D18*
%TO.P,J2,18*%
%TO.N,SWCLK*%
X143180000Y-114500000D03*
%TO.P,J2,17*%
%TO.N,SWDIO*%
X140640000Y-114500000D03*
%TO.P,J2,16*%
%TO.N,PB12*%
X138100000Y-114500000D03*
%TO.P,J2,15*%
%TO.N,PB11*%
X135560000Y-114500000D03*
%TO.P,J2,14*%
%TO.N,PB10*%
X133020000Y-114500000D03*
%TO.P,J2,13*%
%TO.N,PB2*%
X130480000Y-114500000D03*
%TO.P,J2,12*%
%TO.N,PB1*%
X127940000Y-114500000D03*
%TO.P,J2,11*%
%TO.N,PB0*%
X125400000Y-114500000D03*
%TO.P,J2,10*%
%TO.N,PA7*%
X122860000Y-114500000D03*
%TO.P,J2,9*%
%TO.N,PA6*%
X120320000Y-114500000D03*
%TO.P,J2,8*%
%TO.N,PA5*%
X117780000Y-114500000D03*
%TO.P,J2,7*%
%TO.N,PA4*%
X115240000Y-114500000D03*
%TO.P,J2,6*%
%TO.N,PA3*%
X112700000Y-114500000D03*
%TO.P,J2,5*%
%TO.N,PA2*%
X110160000Y-114500000D03*
%TO.P,J2,4*%
%TO.N,PA1*%
X107620000Y-114500000D03*
%TO.P,J2,3*%
%TO.N,PA0*%
X105080000Y-114500000D03*
%TO.P,J2,2*%
%TO.N,GND*%
X102540000Y-114500000D03*
D19*
%TO.P,J2,1*%
%TO.N,VCC*%
X100000000Y-114500000D03*
%TD*%
D18*
%TO.P,J1,18*%
%TO.N,PB13*%
X143180000Y-100000000D03*
%TO.P,J1,17*%
%TO.N,PB14*%
X140640000Y-100000000D03*
%TO.P,J1,16*%
%TO.N,PB15*%
X138100000Y-100000000D03*
%TO.P,J1,15*%
%TO.N,PA8*%
X135560000Y-100000000D03*
%TO.P,J1,14*%
%TO.N,PA9*%
X133020000Y-100000000D03*
%TO.P,J1,13*%
%TO.N,PA10*%
X130480000Y-100000000D03*
%TO.P,J1,12*%
%TO.N,PA11*%
X127940000Y-100000000D03*
%TO.P,J1,11*%
%TO.N,PA12*%
X125400000Y-100000000D03*
%TO.P,J1,10*%
%TO.N,PA15*%
X122860000Y-100000000D03*
%TO.P,J1,9*%
%TO.N,PB3*%
X120320000Y-100000000D03*
%TO.P,J1,8*%
%TO.N,PB4*%
X117780000Y-100000000D03*
%TO.P,J1,7*%
%TO.N,PB5*%
X115240000Y-100000000D03*
%TO.P,J1,6*%
%TO.N,PB6*%
X112700000Y-100000000D03*
%TO.P,J1,5*%
%TO.N,PB7*%
X110160000Y-100000000D03*
%TO.P,J1,4*%
%TO.N,PB8*%
X107620000Y-100000000D03*
%TO.P,J1,3*%
%TO.N,PB9*%
X105080000Y-100000000D03*
%TO.P,J1,2*%
%TO.N,GND*%
X102540000Y-100000000D03*
D19*
%TO.P,J1,1*%
%TO.N,+3V3*%
X100000000Y-100000000D03*
%TD*%
%TO.P,D2,2*%
%TO.N,Net-(D2-Pad2)*%
%TA.AperFunction,SMDPad,CuDef*%
G36*
G01*
X135137500Y-110556250D02*
X135137500Y-110043750D01*
G75*
G02*
X135356250Y-109825000I218750J0D01*
G01*
X135793750Y-109825000D01*
G75*
G02*
X136012500Y-110043750I0J-218750D01*
G01*
X136012500Y-110556250D01*
G75*
G02*
X135793750Y-110775000I-218750J0D01*
G01*
X135356250Y-110775000D01*
G75*
G02*
X135137500Y-110556250I0J218750D01*
G01*
G37*
%TD.AperFunction*%
%TO.P,D2,1*%
%TO.N,Net-(D2-Pad1)*%
%TA.AperFunction,SMDPad,CuDef*%
G36*
G01*
X133562500Y-110556250D02*
X133562500Y-110043750D01*
G75*
G02*
X133781250Y-109825000I218750J0D01*
G01*
X134218750Y-109825000D01*
G75*
G02*
X134437500Y-110043750I0J-218750D01*
G01*
X134437500Y-110556250D01*
G75*
G02*
X134218750Y-110775000I-218750J0D01*
G01*
X133781250Y-110775000D01*
G75*
G02*
X133562500Y-110556250I0J218750D01*
G01*
G37*
%TD.AperFunction*%
%TD*%
D20*
%TO.N,GND*%
X108900000Y-108200000D03*
X108900000Y-110500000D03*
X103100000Y-108600000D03*
X100500000Y-107700000D03*
X105900000Y-102800000D03*
X118800000Y-102700000D03*
X117300000Y-111200000D03*
X130700000Y-111900000D03*
X137000000Y-111700000D03*
X107800000Y-111700000D03*
X104900000Y-104000000D03*
X137100000Y-109800000D03*
X136000000Y-111700000D03*
X122100000Y-104800000D03*
X111600000Y-111800000D03*
X118250000Y-109700000D03*
%TO.N,+3V3*%
X108900000Y-106100000D03*
X107800000Y-102800000D03*
X108900000Y-104100000D03*
X118800000Y-105400000D03*
X128300000Y-111900000D03*
X140800000Y-112300000D03*
X137100000Y-104700000D03*
X120600000Y-103400000D03*
%TO.N,NRST*%
X121900000Y-107500000D03*
X113700000Y-107900000D03*
%TO.N,Net-(D2-Pad2)*%
X134600000Y-108900000D03*
%TO.N,PB10*%
X125623030Y-109701370D03*
%TO.N,PB9*%
X122400000Y-105800000D03*
%TO.N,PB8*%
X122945299Y-106667948D03*
%TO.N,PB7*%
X124500000Y-108000000D03*
%TO.N,PB6*%
X125500000Y-107750000D03*
%TO.N,PB5*%
X126445299Y-107082052D03*
%TO.N,PB4*%
X127000000Y-106250000D03*
X125503308Y-98553683D03*
%TO.N,SWCLK*%
X144500000Y-105900000D03*
X143700000Y-112800000D03*
X127383070Y-104423811D03*
%TO.N,SWDIO*%
X127600000Y-105400000D03*
X141000000Y-104700000D03*
%TO.N,PA11*%
X131462549Y-106250000D03*
%TO.N,PA4*%
X123400000Y-109692491D03*
%TO.N,PA1*%
X120800000Y-111200000D03*
%TO.N,PA0*%
X122000000Y-108700000D03*
%TO.N,/BOOT0*%
X123500000Y-107500000D03*
X114200000Y-111100000D03*
%TD*%
D21*
%TO.N,GND*%
X118800000Y-103540000D02*
X118960000Y-103540000D01*
X119900000Y-102600000D02*
X119900000Y-102557020D01*
D22*
X107800000Y-108250000D02*
X107850000Y-108200000D01*
X107800000Y-110500000D02*
X107800000Y-108250000D01*
X107800000Y-108250000D02*
X107800000Y-108250000D01*
D23*
X107800000Y-110500000D02*
X108900000Y-110500000D01*
X107850000Y-108200000D02*
X108900000Y-108200000D01*
D21*
X101810000Y-108600000D02*
X101860000Y-108550000D01*
X103050000Y-108550000D02*
X103100000Y-108600000D01*
X101860000Y-108550000D02*
X103050000Y-108550000D01*
D23*
X105900000Y-102800000D02*
X105900000Y-104000000D01*
D21*
X108900000Y-108200000D02*
X109600000Y-108200000D01*
X111450000Y-106350000D02*
X111450000Y-104900000D01*
X109600000Y-108200000D02*
X111450000Y-106350000D01*
X118800000Y-102700000D02*
X118800000Y-103540000D01*
X118560000Y-103300000D02*
X118800000Y-103540000D01*
X116560000Y-103300000D02*
X118560000Y-103300000D01*
X119800000Y-102700000D02*
X119900000Y-102600000D01*
X118800000Y-102700000D02*
X119800000Y-102700000D01*
D23*
X107800000Y-111700000D02*
X107800000Y-110500000D01*
X104900000Y-104000000D02*
X105900000Y-104000000D01*
D21*
X138800000Y-109790000D02*
X140010000Y-109790000D01*
X140010000Y-109790000D02*
X140500000Y-109300000D01*
X140300000Y-107250000D02*
X138800000Y-107250000D01*
X140500000Y-107450000D02*
X140300000Y-107250000D01*
X140500000Y-109300000D02*
X140500000Y-107450000D01*
X138800000Y-105980000D02*
X138800000Y-107250000D01*
D23*
X138790000Y-109800000D02*
X138800000Y-109790000D01*
X137100000Y-109800000D02*
X138790000Y-109800000D01*
X100500000Y-107700000D02*
X100500000Y-107900000D01*
D21*
X100784315Y-108550000D02*
X101860000Y-108550000D01*
X100500000Y-108265685D02*
X100784315Y-108550000D01*
X100500000Y-107700000D02*
X100500000Y-108265685D01*
X135220000Y-111700000D02*
X136000000Y-111700000D01*
X130000000Y-111900000D02*
X130700000Y-111900000D01*
X130000000Y-112210000D02*
X130000000Y-111900000D01*
X129559999Y-112650001D02*
X130000000Y-112210000D01*
X127150000Y-112650001D02*
X129559999Y-112650001D01*
X127012500Y-112512501D02*
X127150000Y-112650001D01*
X127012500Y-111412500D02*
X127012500Y-112512501D01*
X122512500Y-103087500D02*
X122512500Y-104387500D01*
D23*
X137000000Y-111700000D02*
X138000000Y-111700000D01*
D21*
X122512500Y-104387500D02*
X122100000Y-104800000D01*
X111100000Y-111300000D02*
X111600000Y-111800000D01*
X111100000Y-110900000D02*
X111100000Y-111300000D01*
X112300000Y-111100000D02*
X111600000Y-111800000D01*
X112300000Y-110900000D02*
X112300000Y-111100000D01*
D23*
X111500000Y-104850000D02*
X111450000Y-104900000D01*
X111500000Y-103500000D02*
X111500000Y-104850000D01*
X111500000Y-103500000D02*
X112700000Y-103500000D01*
D21*
X120600000Y-108000000D02*
X119500000Y-108000000D01*
X118250000Y-109250000D02*
X118250000Y-109700000D01*
X119500000Y-108000000D02*
X118250000Y-109250000D01*
X116560000Y-111200000D02*
X117300000Y-111200000D01*
D22*
%TO.N,+3V3*%
X107850000Y-104050000D02*
X107800000Y-104000000D01*
X107850000Y-106300000D02*
X107850000Y-104050000D01*
X107800000Y-104000000D02*
X107800000Y-104000000D01*
X107800000Y-104000000D02*
X107800000Y-104000000D01*
D23*
X108700000Y-106300000D02*
X108900000Y-106100000D01*
X107850000Y-106300000D02*
X108700000Y-106300000D01*
X108800000Y-104000000D02*
X108900000Y-104100000D01*
X107800000Y-104000000D02*
X108800000Y-104000000D01*
X107800000Y-104000000D02*
X107800000Y-102800000D01*
D21*
X118800000Y-105400000D02*
X118800000Y-104500000D01*
X118800000Y-104500000D02*
X119600000Y-104500000D01*
X119600000Y-104500000D02*
X120600000Y-104500000D01*
D23*
X138790000Y-104700000D02*
X138800000Y-104710000D01*
X137100000Y-104700000D02*
X138790000Y-104700000D01*
D21*
X127812500Y-111412500D02*
X128300000Y-111900000D01*
X127512500Y-111412500D02*
X127812500Y-111412500D01*
X128300000Y-111900000D02*
X129040000Y-111900000D01*
X121525000Y-102600000D02*
X122012500Y-103087500D01*
X120860000Y-102600000D02*
X121525000Y-102600000D01*
X122012500Y-103787500D02*
X122012500Y-103087500D01*
X121300000Y-104500000D02*
X122012500Y-103787500D01*
X120600000Y-104500000D02*
X121300000Y-104500000D01*
X120600000Y-102860000D02*
X120860000Y-102600000D01*
X120600000Y-103400000D02*
X120600000Y-102860000D01*
D23*
X140500000Y-112300000D02*
X139900000Y-111700000D01*
X140800000Y-112300000D02*
X140500000Y-112300000D01*
X109600000Y-104100000D02*
X110200000Y-103500000D01*
X108900000Y-104100000D02*
X109600000Y-104100000D01*
%TO.N,+3.3VA*%
X111490000Y-102530000D02*
X111500000Y-102540000D01*
X110200000Y-102530000D02*
X111490000Y-102530000D01*
X111500000Y-102540000D02*
X112700000Y-102540000D01*
D21*
X119761442Y-108500000D02*
X120600000Y-108500000D01*
X119000000Y-111110002D02*
X119000000Y-109261442D01*
X114950001Y-111552981D02*
X115347021Y-111950001D01*
X118160001Y-111950001D02*
X119000000Y-111110002D01*
X114950001Y-110739999D02*
X114950001Y-111552981D01*
X119000000Y-109261442D02*
X119761442Y-108500000D01*
X114450001Y-110239999D02*
X114950001Y-110739999D01*
X113010000Y-102540000D02*
X114450001Y-103980001D01*
X114450001Y-103980001D02*
X114450001Y-110239999D01*
X115347021Y-111950001D02*
X118160001Y-111950001D01*
X112700000Y-102540000D02*
X113010000Y-102540000D01*
%TO.N,NRST*%
X120600000Y-107500000D02*
X121800000Y-107500000D01*
X112650000Y-107900000D02*
X111450000Y-109100000D01*
X113700000Y-107900000D02*
X112650000Y-107900000D01*
X108959999Y-115459999D02*
X108959999Y-112080001D01*
X144700000Y-115300000D02*
X144299999Y-115700001D01*
X108959999Y-112080001D02*
X110140000Y-110900000D01*
X144299999Y-115700001D02*
X109200001Y-115700001D01*
X144700000Y-111790000D02*
X144700000Y-115300000D01*
X109200001Y-115700001D02*
X108959999Y-115459999D01*
X142700000Y-109790000D02*
X144700000Y-111790000D01*
X110140000Y-110410000D02*
X111450000Y-109100000D01*
X110140000Y-110900000D02*
X110140000Y-110410000D01*
%TO.N,/OSC_IN*%
X115600000Y-104950000D02*
X116050000Y-105400000D01*
X115600000Y-103300000D02*
X115600000Y-104950000D01*
X117150000Y-106500000D02*
X116050000Y-105400000D01*
X120600000Y-106500000D02*
X117150000Y-106500000D01*
%TO.N,/OSC_OUT*%
X115600000Y-109550000D02*
X116050000Y-109100000D01*
X115600000Y-111200000D02*
X115600000Y-109550000D01*
X118150000Y-107000000D02*
X116050000Y-109100000D01*
X120600000Y-107000000D02*
X118150000Y-107000000D01*
D22*
%TO.N,VCC*%
X105525000Y-107575000D02*
X105850000Y-107250000D01*
X104150000Y-107575000D02*
X105525000Y-107575000D01*
X105850000Y-110450000D02*
X105900000Y-110500000D01*
X105850000Y-107250000D02*
X105850000Y-110450000D01*
X100000000Y-114500000D02*
X100000000Y-113100000D01*
X100000000Y-113100000D02*
X101000000Y-112100000D01*
X104300000Y-112100000D02*
X105900000Y-110500000D01*
X101000000Y-112100000D02*
X104300000Y-112100000D01*
D21*
%TO.N,Net-(D2-Pad2)*%
X135500000Y-110225000D02*
X135575000Y-110300000D01*
X134600000Y-109325000D02*
X135575000Y-110300000D01*
X134600000Y-108900000D02*
X134600000Y-109325000D01*
%TO.N,Net-(D2-Pad1)*%
X134000000Y-111500000D02*
X134200000Y-111700000D01*
X134000000Y-110300000D02*
X134000000Y-111500000D01*
D24*
%TO.N,+5V*%
X104150000Y-106000000D02*
X103190000Y-106000000D01*
D21*
%TO.N,PB15*%
X128925000Y-108500000D02*
X132475758Y-108500000D01*
X135099990Y-103985770D02*
X136585780Y-102499980D01*
X135099990Y-105875768D02*
X135099990Y-103985770D01*
X132475758Y-108500000D02*
X135099990Y-105875768D01*
X136585780Y-101514220D02*
X138100000Y-100000000D01*
X136585780Y-102499980D02*
X136585780Y-101514220D01*
%TO.N,PB14*%
X140640000Y-100000000D02*
X140640000Y-101560000D01*
X136792890Y-102999990D02*
X135600000Y-104192880D01*
X139200010Y-102999990D02*
X136792890Y-102999990D01*
X135600000Y-104192880D02*
X135600000Y-106082878D01*
X140640000Y-101560000D02*
X139200010Y-102999990D01*
X132682878Y-109000000D02*
X128925000Y-109000000D01*
X135600000Y-106082878D02*
X132682878Y-109000000D01*
%TO.N,PB13*%
X132889998Y-109500000D02*
X136100000Y-106289998D01*
X128925000Y-109500000D02*
X132889998Y-109500000D01*
X136100000Y-106289998D02*
X136100000Y-104400000D01*
X136100000Y-104400000D02*
X137000000Y-103500000D01*
X139680000Y-103500000D02*
X143180000Y-100000000D01*
X137000000Y-103500000D02*
X139680000Y-103500000D01*
%TO.N,PB12*%
X128925000Y-110000000D02*
X129710002Y-110000000D01*
X136399989Y-112799989D02*
X138100000Y-114500000D01*
X133417111Y-112799989D02*
X136399989Y-112799989D01*
X130617122Y-110000000D02*
X133417111Y-112799989D01*
X128925000Y-110000000D02*
X130617122Y-110000000D01*
%TO.N,PB11*%
X126512500Y-111412500D02*
X126512500Y-110187500D01*
X126512500Y-110187500D02*
X126800000Y-109900000D01*
X131060001Y-111149999D02*
X132500000Y-112589998D01*
X128736441Y-111149999D02*
X131060001Y-111149999D01*
X127486442Y-109900000D02*
X128736441Y-111149999D01*
X126800000Y-109900000D02*
X127486442Y-109900000D01*
X132500000Y-112589998D02*
X132500000Y-113100000D01*
X134359999Y-113299999D02*
X135560000Y-114500000D01*
X132699999Y-113299999D02*
X134359999Y-113299999D01*
X132500000Y-113100000D02*
X132699999Y-113299999D01*
%TO.N,PB10*%
X126012500Y-110090840D02*
X125623030Y-109701370D01*
X126012500Y-111412500D02*
X126012500Y-110090840D01*
%TO.N,PB9*%
X123012500Y-105187500D02*
X122400000Y-105800000D01*
X123012500Y-103087500D02*
X123012500Y-105187500D01*
%TO.N,PB8*%
X123512500Y-106100747D02*
X122945299Y-106667948D01*
X123512500Y-103087500D02*
X123512500Y-106100747D01*
%TO.N,PB7*%
X110160000Y-99440000D02*
X110160000Y-100000000D01*
X124512500Y-107987500D02*
X124500000Y-108000000D01*
X124512500Y-103087500D02*
X124512500Y-107987500D01*
%TO.N,PB6*%
X125012500Y-107262500D02*
X125500000Y-107750000D01*
X125012500Y-103087500D02*
X125012500Y-107262500D01*
%TO.N,PB5*%
X125512500Y-106149253D02*
X126445299Y-107082052D01*
X125512500Y-103087500D02*
X125512500Y-106149253D01*
%TO.N,PB4*%
X126012500Y-105262500D02*
X127000000Y-106250000D01*
X126012500Y-103087500D02*
X126012500Y-105262500D01*
X119226317Y-98553683D02*
X117780000Y-100000000D01*
X125503308Y-98553683D02*
X119226317Y-98553683D01*
%TO.N,PB3*%
X120320000Y-100000000D02*
X120810020Y-100000000D01*
X122020010Y-101700010D02*
X120320000Y-100000000D01*
X126512500Y-103087500D02*
X126512500Y-102219620D01*
X125992890Y-101700010D02*
X122020010Y-101700010D01*
X126512500Y-102219620D02*
X125992890Y-101700010D01*
%TO.N,PB2*%
X129279999Y-113299999D02*
X130480000Y-114500000D01*
X127100000Y-113300000D02*
X129279999Y-113299999D01*
X125949719Y-112688277D02*
X127100000Y-113300000D01*
X125600000Y-112400000D02*
X125949719Y-112688277D01*
X125512500Y-112312500D02*
X125600000Y-112400000D01*
X125512500Y-111412500D02*
X125512500Y-112312500D01*
%TO.N,PB1*%
X126000000Y-113299999D02*
X127940000Y-114500000D01*
X125012500Y-112712500D02*
X126000000Y-113299999D01*
X125012500Y-111412500D02*
X125012500Y-112712500D01*
%TO.N,PB0*%
X124512500Y-113612500D02*
X125400000Y-114500000D01*
X124512500Y-111412500D02*
X124512500Y-113612500D01*
%TO.N,PA15*%
X126200000Y-101200000D02*
X124060000Y-101200000D01*
X127012500Y-102012500D02*
X126200000Y-101200000D01*
X124060000Y-101200000D02*
X122860000Y-100000000D01*
X127012500Y-103087500D02*
X127012500Y-102012500D01*
%TO.N,SWCLK*%
X127512500Y-103087500D02*
X127512500Y-102487500D01*
X142580000Y-106100000D02*
X142700000Y-105980000D01*
X142780000Y-105900000D02*
X142700000Y-105980000D01*
X144500000Y-105900000D02*
X142780000Y-105900000D01*
X143180000Y-113320000D02*
X143700000Y-112800000D01*
X143180000Y-114500000D02*
X143180000Y-113320000D01*
X127512500Y-104294381D02*
X127383070Y-104423811D01*
X127512500Y-103087500D02*
X127512500Y-104294381D01*
%TO.N,SWDIO*%
X128925000Y-105500000D02*
X127400000Y-105500000D01*
X141010000Y-104710000D02*
X141000000Y-104700000D01*
X142700000Y-104710000D02*
X141010000Y-104710000D01*
X140640000Y-114500000D02*
X141800000Y-113340000D01*
X141800000Y-113340000D02*
X141800000Y-111300000D01*
X141000010Y-104909990D02*
X141200000Y-104710000D01*
X141000010Y-110500010D02*
X141000010Y-104909990D01*
X141200000Y-104710000D02*
X142700000Y-104710000D01*
X141800000Y-111300000D02*
X141000010Y-110500010D01*
%TO.N,PA12*%
X131800001Y-105499999D02*
X132599940Y-104700060D01*
X130602547Y-106000000D02*
X131102548Y-105499999D01*
X131102548Y-105499999D02*
X131800001Y-105499999D01*
X128925000Y-106000000D02*
X130602547Y-106000000D01*
X132599940Y-103036960D02*
X131262991Y-101700011D01*
X132599940Y-104700060D02*
X132599940Y-103036960D01*
X128699989Y-101700011D02*
X128699978Y-101700000D01*
X131262991Y-101700011D02*
X128699989Y-101700011D01*
X128699978Y-101700000D02*
X127700000Y-101700000D01*
X126000000Y-100000000D02*
X125400000Y-100000000D01*
X127700000Y-101700000D02*
X126000000Y-100000000D01*
%TO.N,PA11*%
X129140001Y-101200001D02*
X127940000Y-100000000D01*
X131482981Y-101200001D02*
X129140001Y-101200001D01*
X133099950Y-102816970D02*
X131482981Y-101200001D01*
X133099950Y-104978690D02*
X133099950Y-102816970D01*
X131212549Y-106500000D02*
X131462549Y-106250000D01*
X128925000Y-106500000D02*
X131212549Y-106500000D01*
X133099950Y-104978690D02*
X131789320Y-106289320D01*
X131750000Y-106250000D02*
X131462549Y-106250000D01*
X131789320Y-106289320D02*
X131750000Y-106250000D01*
%TO.N,PA10*%
X128925000Y-107000000D02*
X131785760Y-107000000D01*
X131785760Y-107000000D02*
X133599960Y-105185800D01*
X133599960Y-105185800D02*
X133599960Y-101800000D01*
X131243998Y-100000000D02*
X130480000Y-100000000D01*
X133043998Y-101800000D02*
X131243998Y-100000000D01*
X133599960Y-101800000D02*
X133043998Y-101800000D01*
%TO.N,PA9*%
X128925000Y-107500000D02*
X131992880Y-107500000D01*
X134099970Y-105392910D02*
X134099970Y-101079970D01*
X134099970Y-101079970D02*
X133020000Y-100000000D01*
X131992880Y-107500000D02*
X134099970Y-105392910D01*
%TO.N,PA8*%
X135560000Y-100000000D02*
X135560000Y-102818640D01*
X135560000Y-102818640D02*
X134599980Y-103778660D01*
X132200000Y-108000000D02*
X128925000Y-108000000D01*
X134599980Y-105600020D02*
X132200000Y-108000000D01*
X134599980Y-103778660D02*
X134599980Y-105600020D01*
%TO.N,PA7*%
X124012500Y-113347500D02*
X122860000Y-114500000D01*
X124012500Y-111412500D02*
X124012500Y-113347500D01*
%TO.N,PA6*%
X123512500Y-111412500D02*
X123512500Y-112687500D01*
X123512500Y-112687500D02*
X123000000Y-113200000D01*
X121620000Y-113200000D02*
X120320000Y-114500000D01*
X123000000Y-113200000D02*
X121620000Y-113200000D01*
%TO.N,PA5*%
X123012500Y-111412500D02*
X123012500Y-112480380D01*
X119580010Y-112699990D02*
X117780000Y-114500000D01*
X122792890Y-112699990D02*
X119580010Y-112699990D01*
X123012500Y-112480380D02*
X122792890Y-112699990D01*
%TO.N,PA4*%
X122512500Y-111412500D02*
X122512500Y-110193230D01*
X122899261Y-110193230D02*
X123400000Y-109692491D01*
X122512500Y-110193230D02*
X122899261Y-110193230D01*
%TO.N,PA3*%
X122012500Y-111412500D02*
X121225020Y-112199980D01*
X119372900Y-112199980D02*
X118272881Y-113299999D01*
X121225020Y-112199980D02*
X119372900Y-112199980D01*
X113900001Y-113299999D02*
X112700000Y-114500000D01*
X118272881Y-113299999D02*
X113900001Y-113299999D01*
%TO.N,PA2*%
X111860011Y-112799989D02*
X110160000Y-114500000D01*
X118000000Y-112799989D02*
X111860011Y-112799989D01*
X120600000Y-110300000D02*
X118000000Y-112799989D01*
X120600000Y-110000000D02*
X120600000Y-110300000D01*
%TO.N,PA1*%
X120600000Y-109500000D02*
X121500000Y-109500000D01*
X121687510Y-109687510D02*
X121687510Y-110312490D01*
X121500000Y-109500000D02*
X121687510Y-109687510D01*
X121687510Y-110312490D02*
X120800000Y-111200000D01*
%TO.N,PA0*%
X121700000Y-109000000D02*
X122000000Y-108700000D01*
X120600000Y-109000000D02*
X121700000Y-109000000D01*
D22*
%TO.N,Net-(J3-Pad6)*%
X99200000Y-103875000D02*
X99200000Y-106100000D01*
X99200000Y-106100000D02*
X99200000Y-108800000D01*
X99200000Y-108800000D02*
X99200000Y-110625000D01*
D23*
X100087500Y-109737500D02*
X99200000Y-110625000D01*
X101775000Y-109737500D02*
X100087500Y-109737500D01*
X100087500Y-104762500D02*
X99200000Y-103875000D01*
X101775000Y-104762500D02*
X100087500Y-104762500D01*
D21*
%TO.N,/BOOT0*%
X124012500Y-106987500D02*
X123500000Y-107500000D01*
X124012500Y-103087500D02*
X124012500Y-106987500D01*
X114000000Y-110900000D02*
X114200000Y-111100000D01*
X113320000Y-110900000D02*
X114000000Y-110900000D01*
%TD*%
D25*
%TO.N,+5V*%
X103417000Y-105731500D02*
X103481500Y-105796000D01*
X103946000Y-105796000D01*
X103946000Y-105776000D01*
X104354000Y-105776000D01*
X104354000Y-105796000D01*
X104374000Y-105796000D01*
X104374000Y-106204000D01*
X104354000Y-106204000D01*
X104354000Y-106224000D01*
X103946000Y-106224000D01*
X103946000Y-106204000D01*
X103481500Y-106204000D01*
X103417000Y-106268500D01*
X103416945Y-106275950D01*
X102786877Y-106168377D01*
X102743500Y-106125000D01*
X102562275Y-106125000D01*
X102550000Y-106123791D01*
X101636000Y-106123791D01*
X101636000Y-105775000D01*
X101656000Y-105775000D01*
X101656000Y-105750000D01*
X102064000Y-105750000D01*
X102064000Y-105775000D01*
X102743500Y-105775000D01*
X102778345Y-105740155D01*
X103416604Y-105677886D01*
X103417000Y-105731500D01*
%TA.AperFunction,Conductor*%
G36*
X103417000Y-105731500D02*
G01*
X103481500Y-105796000D01*
X103946000Y-105796000D01*
X103946000Y-105776000D01*
X104354000Y-105776000D01*
X104354000Y-105796000D01*
X104374000Y-105796000D01*
X104374000Y-106204000D01*
X104354000Y-106204000D01*
X104354000Y-106224000D01*
X103946000Y-106224000D01*
X103946000Y-106204000D01*
X103481500Y-106204000D01*
X103417000Y-106268500D01*
X103416945Y-106275950D01*
X102786877Y-106168377D01*
X102743500Y-106125000D01*
X102562275Y-106125000D01*
X102550000Y-106123791D01*
X101636000Y-106123791D01*
X101636000Y-105775000D01*
X101656000Y-105775000D01*
X101656000Y-105750000D01*
X102064000Y-105750000D01*
X102064000Y-105775000D01*
X102743500Y-105775000D01*
X102778345Y-105740155D01*
X103416604Y-105677886D01*
X103417000Y-105731500D01*
G37*
%TD.AperFunction*%
%TD*%
M02*
