%TF.GenerationSoftware,KiCad,Pcbnew,(5.1.10-1-10_14)*%
%TF.CreationDate,2021-07-19T22:46:51-06:00*%
%TF.ProjectId,f0-study-board,66302d73-7475-4647-992d-626f6172642e,rev?*%
%TF.SameCoordinates,Original*%
%TF.FileFunction,Legend,Bot*%
%TF.FilePolarity,Positive*%
%FSLAX46Y46*%
G04 Gerber Fmt 4.6, Leading zero omitted, Abs format (unit mm)*
G04 Created by KiCad (PCBNEW (5.1.10-1-10_14)) date 2021-07-19 22:46:51*
%MOMM*%
%LPD*%
G01*
G04 APERTURE LIST*
%ADD10C,0.120000*%
%ADD11C,0.150000*%
G04 APERTURE END LIST*
D10*
%TO.C,JP1*%
X133600000Y-105750000D02*
X133600000Y-108550000D01*
X133600000Y-108550000D02*
X135600000Y-108550000D01*
X135600000Y-108550000D02*
X135600000Y-105750000D01*
X135600000Y-105750000D02*
X133600000Y-105750000D01*
%TO.C,J2*%
X98670000Y-113170000D02*
X98670000Y-114500000D01*
X100000000Y-113170000D02*
X98670000Y-113170000D01*
X101270000Y-113170000D02*
X101270000Y-115830000D01*
X101270000Y-115830000D02*
X144510000Y-115830000D01*
X101270000Y-113170000D02*
X144510000Y-113170000D01*
X144510000Y-113170000D02*
X144510000Y-115830000D01*
%TO.C,J1*%
X98670000Y-98670000D02*
X98670000Y-100000000D01*
X100000000Y-98670000D02*
X98670000Y-98670000D01*
X101270000Y-98670000D02*
X101270000Y-101330000D01*
X101270000Y-101330000D02*
X144510000Y-101330000D01*
X101270000Y-98670000D02*
X144510000Y-98670000D01*
X144510000Y-98670000D02*
X144510000Y-101330000D01*
%TO.C,JP1*%
D11*
X135433333Y-104252380D02*
X135433333Y-104966666D01*
X135480952Y-105109523D01*
X135576190Y-105204761D01*
X135719047Y-105252380D01*
X135814285Y-105252380D01*
X134957142Y-105252380D02*
X134957142Y-104252380D01*
X134576190Y-104252380D01*
X134480952Y-104300000D01*
X134433333Y-104347619D01*
X134385714Y-104442857D01*
X134385714Y-104585714D01*
X134433333Y-104680952D01*
X134480952Y-104728571D01*
X134576190Y-104776190D01*
X134957142Y-104776190D01*
X133433333Y-105252380D02*
X134004761Y-105252380D01*
X133719047Y-105252380D02*
X133719047Y-104252380D01*
X133814285Y-104395238D01*
X133909523Y-104490476D01*
X134004761Y-104538095D01*
%TD*%
M02*
