M48
; DRILL file {KiCad (5.1.10-1-10_14)} date Monday, July 19, 2021 at 10:46:49 PM
; FORMAT={-:-/ absolute / inch / decimal}
; #@! TF.CreationDate,2021-07-19T22:46:49-06:00
; #@! TF.GenerationSoftware,Kicad,Pcbnew,(5.1.10-1-10_14)
; #@! TF.FileFunction,Plated,1,4,PTH
FMAT,2
INCH
T1C0.0157
T2C0.0394
%
G90
G05
T1
X3.9567Y-4.2402
X4.0591Y-4.2756
X4.1299Y-4.0945
X4.1693Y-4.0472
X4.2441Y-4.0472
X4.2441Y-4.3976
X4.2874Y-4.0984
X4.2874Y-4.1772
X4.2874Y-4.2598
X4.2874Y-4.3504
X4.3937Y-4.4016
X4.4764Y-4.248
X4.4961Y-4.374
X4.6181Y-4.378
X4.6555Y-4.3189
X4.6772Y-4.0433
X4.6772Y-4.1496
X4.748Y-4.0709
X4.7559Y-4.378
X4.7992Y-4.2323
X4.8031Y-4.2795
X4.8071Y-4.126
X4.8189Y-4.1654
X4.8404Y-4.1995
X4.8583Y-4.3186
X4.8622Y-4.2323
X4.9016Y-4.252
X4.9409Y-4.2421
X4.9411Y-3.8801
X4.9458Y-4.319
X4.9782Y-4.2158
X5.0Y-4.1831
X5.0151Y-4.1112
X5.0236Y-4.1496
X5.0512Y-4.4055
X5.1457Y-4.4055
X5.1757Y-4.1831
X5.2992Y-4.2874
X5.3543Y-4.3976
X5.3937Y-4.3976
X5.3976Y-4.122
X5.3976Y-4.3228
X5.5433Y-4.4213
X5.5512Y-4.122
X5.6575Y-4.4409
X5.689Y-4.1693
T2
X3.937Y-3.937
X3.937Y-4.5079
X4.037Y-3.937
X4.037Y-4.5079
X4.137Y-3.937
X4.137Y-4.5079
X4.237Y-3.937
X4.237Y-4.5079
X4.337Y-3.937
X4.337Y-4.5079
X4.437Y-3.937
X4.437Y-4.5079
X4.537Y-3.937
X4.537Y-4.5079
X4.637Y-3.937
X4.637Y-4.5079
X4.737Y-3.937
X4.737Y-4.5079
X4.837Y-3.937
X4.837Y-4.5079
X4.937Y-3.937
X4.937Y-4.5079
X5.037Y-3.937
X5.037Y-4.5079
X5.137Y-3.937
X5.137Y-4.5079
X5.237Y-3.937
X5.237Y-4.5079
X5.337Y-3.937
X5.337Y-4.5079
X5.437Y-3.937
X5.437Y-4.5079
X5.537Y-3.937
X5.537Y-4.5079
X5.637Y-3.937
X5.637Y-4.5079
T0
M30
