%TF.GenerationSoftware,KiCad,Pcbnew,(5.1.10-1-10_14)*%
%TF.CreationDate,2021-07-19T22:46:51-06:00*%
%TF.ProjectId,f0-study-board,66302d73-7475-4647-992d-626f6172642e,rev?*%
%TF.SameCoordinates,Original*%
%TF.FileFunction,Copper,L2,Inr*%
%TF.FilePolarity,Positive*%
%FSLAX46Y46*%
G04 Gerber Fmt 4.6, Leading zero omitted, Abs format (unit mm)*
G04 Created by KiCad (PCBNEW (5.1.10-1-10_14)) date 2021-07-19 22:46:51*
%MOMM*%
%LPD*%
G01*
G04 APERTURE LIST*
%TA.AperFunction,ComponentPad*%
%ADD10O,1.700000X1.700000*%
%TD*%
%TA.AperFunction,ComponentPad*%
%ADD11R,1.700000X1.700000*%
%TD*%
%TA.AperFunction,ViaPad*%
%ADD12C,0.800000*%
%TD*%
%TA.AperFunction,Conductor*%
%ADD13C,0.254000*%
%TD*%
%TA.AperFunction,Conductor*%
%ADD14C,0.100000*%
%TD*%
G04 APERTURE END LIST*
D10*
%TO.N,SWCLK*%
%TO.C,J2*%
X143180000Y-114500000D03*
%TO.N,SWDIO*%
X140640000Y-114500000D03*
%TO.N,PB12*%
X138100000Y-114500000D03*
%TO.N,PB11*%
X135560000Y-114500000D03*
%TO.N,PB10*%
X133020000Y-114500000D03*
%TO.N,PB2*%
X130480000Y-114500000D03*
%TO.N,PB1*%
X127940000Y-114500000D03*
%TO.N,PB0*%
X125400000Y-114500000D03*
%TO.N,PA7*%
X122860000Y-114500000D03*
%TO.N,PA6*%
X120320000Y-114500000D03*
%TO.N,PA5*%
X117780000Y-114500000D03*
%TO.N,PA4*%
X115240000Y-114500000D03*
%TO.N,PA3*%
X112700000Y-114500000D03*
%TO.N,PA2*%
X110160000Y-114500000D03*
%TO.N,PA1*%
X107620000Y-114500000D03*
%TO.N,PA0*%
X105080000Y-114500000D03*
%TO.N,GND*%
X102540000Y-114500000D03*
D11*
%TO.N,VCC*%
X100000000Y-114500000D03*
%TD*%
D10*
%TO.N,PB13*%
%TO.C,J1*%
X143180000Y-100000000D03*
%TO.N,PB14*%
X140640000Y-100000000D03*
%TO.N,PB15*%
X138100000Y-100000000D03*
%TO.N,PA8*%
X135560000Y-100000000D03*
%TO.N,PA9*%
X133020000Y-100000000D03*
%TO.N,PA10*%
X130480000Y-100000000D03*
%TO.N,PA11*%
X127940000Y-100000000D03*
%TO.N,PA12*%
X125400000Y-100000000D03*
%TO.N,PA15*%
X122860000Y-100000000D03*
%TO.N,PB3*%
X120320000Y-100000000D03*
%TO.N,PB4*%
X117780000Y-100000000D03*
%TO.N,PB5*%
X115240000Y-100000000D03*
%TO.N,PB6*%
X112700000Y-100000000D03*
%TO.N,PB7*%
X110160000Y-100000000D03*
%TO.N,PB8*%
X107620000Y-100000000D03*
%TO.N,PB9*%
X105080000Y-100000000D03*
%TO.N,GND*%
X102540000Y-100000000D03*
D11*
%TO.N,+3V3*%
X100000000Y-100000000D03*
%TD*%
D12*
%TO.N,GND*%
X108900000Y-108200000D03*
X108900000Y-110500000D03*
X103100000Y-108600000D03*
X100500000Y-107700000D03*
X105900000Y-102800000D03*
X118800000Y-102700000D03*
X117300000Y-111200000D03*
X130700000Y-111900000D03*
X137000000Y-111700000D03*
X107800000Y-111700000D03*
X104900000Y-104000000D03*
X137100000Y-109800000D03*
X136000000Y-111700000D03*
X122100000Y-104800000D03*
X111600000Y-111800000D03*
X118250000Y-109700000D03*
%TO.N,+3V3*%
X108900000Y-106100000D03*
X107800000Y-102800000D03*
X108900000Y-104100000D03*
X118800000Y-105400000D03*
X128300000Y-111900000D03*
X140800000Y-112300000D03*
X137100000Y-104700000D03*
X120600000Y-103400000D03*
%TO.N,NRST*%
X121900000Y-107500000D03*
X113700000Y-107900000D03*
%TO.N,Net-(D2-Pad2)*%
X134600000Y-108900000D03*
%TO.N,PB10*%
X125623030Y-109701370D03*
%TO.N,PB9*%
X122400000Y-105800000D03*
%TO.N,PB8*%
X122945299Y-106667948D03*
%TO.N,PB7*%
X124500000Y-108000000D03*
%TO.N,PB6*%
X125500000Y-107750000D03*
%TO.N,PB5*%
X126445299Y-107082052D03*
%TO.N,PB4*%
X127000000Y-106250000D03*
X125503308Y-98553683D03*
%TO.N,SWCLK*%
X144500000Y-105900000D03*
X143700000Y-112800000D03*
X127383070Y-104423811D03*
%TO.N,SWDIO*%
X127600000Y-105400000D03*
X141000000Y-104700000D03*
%TO.N,PA11*%
X131462549Y-106250000D03*
%TO.N,PA4*%
X123400000Y-109692491D03*
%TO.N,PA1*%
X120800000Y-111200000D03*
%TO.N,PA0*%
X122000000Y-108700000D03*
%TO.N,/BOOT0*%
X123500000Y-107500000D03*
X114200000Y-111100000D03*
%TD*%
D13*
%TO.N,GND*%
X124586103Y-98063427D02*
X124508082Y-98251785D01*
X124468308Y-98451744D01*
X124468308Y-98655622D01*
X124500073Y-98815318D01*
X124453368Y-98846525D01*
X124246525Y-99053368D01*
X124130000Y-99227760D01*
X124013475Y-99053368D01*
X123806632Y-98846525D01*
X123563411Y-98684010D01*
X123293158Y-98572068D01*
X123006260Y-98515000D01*
X122713740Y-98515000D01*
X122426842Y-98572068D01*
X122156589Y-98684010D01*
X121913368Y-98846525D01*
X121706525Y-99053368D01*
X121590000Y-99227760D01*
X121473475Y-99053368D01*
X121266632Y-98846525D01*
X121023411Y-98684010D01*
X120753158Y-98572068D01*
X120466260Y-98515000D01*
X120173740Y-98515000D01*
X119886842Y-98572068D01*
X119616589Y-98684010D01*
X119373368Y-98846525D01*
X119166525Y-99053368D01*
X119050000Y-99227760D01*
X118933475Y-99053368D01*
X118726632Y-98846525D01*
X118483411Y-98684010D01*
X118213158Y-98572068D01*
X117926260Y-98515000D01*
X117633740Y-98515000D01*
X117346842Y-98572068D01*
X117076589Y-98684010D01*
X116833368Y-98846525D01*
X116626525Y-99053368D01*
X116510000Y-99227760D01*
X116393475Y-99053368D01*
X116186632Y-98846525D01*
X115943411Y-98684010D01*
X115673158Y-98572068D01*
X115386260Y-98515000D01*
X115093740Y-98515000D01*
X114806842Y-98572068D01*
X114536589Y-98684010D01*
X114293368Y-98846525D01*
X114086525Y-99053368D01*
X113970000Y-99227760D01*
X113853475Y-99053368D01*
X113646632Y-98846525D01*
X113403411Y-98684010D01*
X113133158Y-98572068D01*
X112846260Y-98515000D01*
X112553740Y-98515000D01*
X112266842Y-98572068D01*
X111996589Y-98684010D01*
X111753368Y-98846525D01*
X111546525Y-99053368D01*
X111430000Y-99227760D01*
X111313475Y-99053368D01*
X111106632Y-98846525D01*
X110863411Y-98684010D01*
X110593158Y-98572068D01*
X110306260Y-98515000D01*
X110013740Y-98515000D01*
X109726842Y-98572068D01*
X109456589Y-98684010D01*
X109213368Y-98846525D01*
X109006525Y-99053368D01*
X108890000Y-99227760D01*
X108773475Y-99053368D01*
X108566632Y-98846525D01*
X108323411Y-98684010D01*
X108053158Y-98572068D01*
X107766260Y-98515000D01*
X107473740Y-98515000D01*
X107186842Y-98572068D01*
X106916589Y-98684010D01*
X106673368Y-98846525D01*
X106466525Y-99053368D01*
X106350000Y-99227760D01*
X106233475Y-99053368D01*
X106026632Y-98846525D01*
X105783411Y-98684010D01*
X105513158Y-98572068D01*
X105226260Y-98515000D01*
X104933740Y-98515000D01*
X104646842Y-98572068D01*
X104376589Y-98684010D01*
X104133368Y-98846525D01*
X103926525Y-99053368D01*
X103804805Y-99235534D01*
X103735178Y-99118645D01*
X103540269Y-98902412D01*
X103306920Y-98728359D01*
X103044099Y-98603175D01*
X102896890Y-98558524D01*
X102667000Y-98679845D01*
X102667000Y-99873000D01*
X102687000Y-99873000D01*
X102687000Y-100127000D01*
X102667000Y-100127000D01*
X102667000Y-101320155D01*
X102896890Y-101441476D01*
X103044099Y-101396825D01*
X103306920Y-101271641D01*
X103540269Y-101097588D01*
X103735178Y-100881355D01*
X103804805Y-100764466D01*
X103926525Y-100946632D01*
X104133368Y-101153475D01*
X104376589Y-101315990D01*
X104646842Y-101427932D01*
X104933740Y-101485000D01*
X105226260Y-101485000D01*
X105513158Y-101427932D01*
X105783411Y-101315990D01*
X106026632Y-101153475D01*
X106233475Y-100946632D01*
X106350000Y-100772240D01*
X106466525Y-100946632D01*
X106673368Y-101153475D01*
X106916589Y-101315990D01*
X107186842Y-101427932D01*
X107473740Y-101485000D01*
X107766260Y-101485000D01*
X108053158Y-101427932D01*
X108323411Y-101315990D01*
X108566632Y-101153475D01*
X108773475Y-100946632D01*
X108890000Y-100772240D01*
X109006525Y-100946632D01*
X109213368Y-101153475D01*
X109456589Y-101315990D01*
X109726842Y-101427932D01*
X110013740Y-101485000D01*
X110306260Y-101485000D01*
X110593158Y-101427932D01*
X110863411Y-101315990D01*
X111106632Y-101153475D01*
X111313475Y-100946632D01*
X111430000Y-100772240D01*
X111546525Y-100946632D01*
X111753368Y-101153475D01*
X111996589Y-101315990D01*
X112266842Y-101427932D01*
X112553740Y-101485000D01*
X112846260Y-101485000D01*
X113133158Y-101427932D01*
X113403411Y-101315990D01*
X113646632Y-101153475D01*
X113853475Y-100946632D01*
X113970000Y-100772240D01*
X114086525Y-100946632D01*
X114293368Y-101153475D01*
X114536589Y-101315990D01*
X114806842Y-101427932D01*
X115093740Y-101485000D01*
X115386260Y-101485000D01*
X115673158Y-101427932D01*
X115943411Y-101315990D01*
X116186632Y-101153475D01*
X116393475Y-100946632D01*
X116510000Y-100772240D01*
X116626525Y-100946632D01*
X116833368Y-101153475D01*
X117076589Y-101315990D01*
X117346842Y-101427932D01*
X117633740Y-101485000D01*
X117926260Y-101485000D01*
X118213158Y-101427932D01*
X118483411Y-101315990D01*
X118726632Y-101153475D01*
X118933475Y-100946632D01*
X119050000Y-100772240D01*
X119166525Y-100946632D01*
X119373368Y-101153475D01*
X119616589Y-101315990D01*
X119886842Y-101427932D01*
X120173740Y-101485000D01*
X120466260Y-101485000D01*
X120753158Y-101427932D01*
X121023411Y-101315990D01*
X121266632Y-101153475D01*
X121473475Y-100946632D01*
X121590000Y-100772240D01*
X121706525Y-100946632D01*
X121913368Y-101153475D01*
X122156589Y-101315990D01*
X122426842Y-101427932D01*
X122713740Y-101485000D01*
X123006260Y-101485000D01*
X123293158Y-101427932D01*
X123563411Y-101315990D01*
X123806632Y-101153475D01*
X124013475Y-100946632D01*
X124130000Y-100772240D01*
X124246525Y-100946632D01*
X124453368Y-101153475D01*
X124696589Y-101315990D01*
X124966842Y-101427932D01*
X125253740Y-101485000D01*
X125546260Y-101485000D01*
X125833158Y-101427932D01*
X126103411Y-101315990D01*
X126346632Y-101153475D01*
X126553475Y-100946632D01*
X126670000Y-100772240D01*
X126786525Y-100946632D01*
X126993368Y-101153475D01*
X127236589Y-101315990D01*
X127506842Y-101427932D01*
X127793740Y-101485000D01*
X128086260Y-101485000D01*
X128373158Y-101427932D01*
X128643411Y-101315990D01*
X128886632Y-101153475D01*
X129093475Y-100946632D01*
X129210000Y-100772240D01*
X129326525Y-100946632D01*
X129533368Y-101153475D01*
X129776589Y-101315990D01*
X130046842Y-101427932D01*
X130333740Y-101485000D01*
X130626260Y-101485000D01*
X130913158Y-101427932D01*
X131183411Y-101315990D01*
X131426632Y-101153475D01*
X131633475Y-100946632D01*
X131750000Y-100772240D01*
X131866525Y-100946632D01*
X132073368Y-101153475D01*
X132316589Y-101315990D01*
X132586842Y-101427932D01*
X132873740Y-101485000D01*
X133166260Y-101485000D01*
X133453158Y-101427932D01*
X133723411Y-101315990D01*
X133966632Y-101153475D01*
X134173475Y-100946632D01*
X134290000Y-100772240D01*
X134406525Y-100946632D01*
X134613368Y-101153475D01*
X134856589Y-101315990D01*
X135126842Y-101427932D01*
X135413740Y-101485000D01*
X135706260Y-101485000D01*
X135993158Y-101427932D01*
X136263411Y-101315990D01*
X136506632Y-101153475D01*
X136713475Y-100946632D01*
X136830000Y-100772240D01*
X136946525Y-100946632D01*
X137153368Y-101153475D01*
X137396589Y-101315990D01*
X137666842Y-101427932D01*
X137953740Y-101485000D01*
X138246260Y-101485000D01*
X138533158Y-101427932D01*
X138803411Y-101315990D01*
X139046632Y-101153475D01*
X139253475Y-100946632D01*
X139370000Y-100772240D01*
X139486525Y-100946632D01*
X139693368Y-101153475D01*
X139936589Y-101315990D01*
X140206842Y-101427932D01*
X140493740Y-101485000D01*
X140786260Y-101485000D01*
X141073158Y-101427932D01*
X141343411Y-101315990D01*
X141586632Y-101153475D01*
X141793475Y-100946632D01*
X141910000Y-100772240D01*
X142026525Y-100946632D01*
X142233368Y-101153475D01*
X142476589Y-101315990D01*
X142746842Y-101427932D01*
X143033740Y-101485000D01*
X143326260Y-101485000D01*
X143613158Y-101427932D01*
X143883411Y-101315990D01*
X144126632Y-101153475D01*
X144333475Y-100946632D01*
X144495990Y-100703411D01*
X144607932Y-100433158D01*
X144665000Y-100146260D01*
X144665000Y-99853740D01*
X144607932Y-99566842D01*
X144495990Y-99296589D01*
X144333475Y-99053368D01*
X144126632Y-98846525D01*
X143883411Y-98684010D01*
X143613158Y-98572068D01*
X143326260Y-98515000D01*
X143033740Y-98515000D01*
X142746842Y-98572068D01*
X142476589Y-98684010D01*
X142233368Y-98846525D01*
X142026525Y-99053368D01*
X141910000Y-99227760D01*
X141793475Y-99053368D01*
X141586632Y-98846525D01*
X141343411Y-98684010D01*
X141073158Y-98572068D01*
X140786260Y-98515000D01*
X140493740Y-98515000D01*
X140206842Y-98572068D01*
X139936589Y-98684010D01*
X139693368Y-98846525D01*
X139486525Y-99053368D01*
X139370000Y-99227760D01*
X139253475Y-99053368D01*
X139046632Y-98846525D01*
X138803411Y-98684010D01*
X138533158Y-98572068D01*
X138246260Y-98515000D01*
X137953740Y-98515000D01*
X137666842Y-98572068D01*
X137396589Y-98684010D01*
X137153368Y-98846525D01*
X136946525Y-99053368D01*
X136830000Y-99227760D01*
X136713475Y-99053368D01*
X136506632Y-98846525D01*
X136263411Y-98684010D01*
X135993158Y-98572068D01*
X135706260Y-98515000D01*
X135413740Y-98515000D01*
X135126842Y-98572068D01*
X134856589Y-98684010D01*
X134613368Y-98846525D01*
X134406525Y-99053368D01*
X134290000Y-99227760D01*
X134173475Y-99053368D01*
X133966632Y-98846525D01*
X133723411Y-98684010D01*
X133453158Y-98572068D01*
X133166260Y-98515000D01*
X132873740Y-98515000D01*
X132586842Y-98572068D01*
X132316589Y-98684010D01*
X132073368Y-98846525D01*
X131866525Y-99053368D01*
X131750000Y-99227760D01*
X131633475Y-99053368D01*
X131426632Y-98846525D01*
X131183411Y-98684010D01*
X130913158Y-98572068D01*
X130626260Y-98515000D01*
X130333740Y-98515000D01*
X130046842Y-98572068D01*
X129776589Y-98684010D01*
X129533368Y-98846525D01*
X129326525Y-99053368D01*
X129210000Y-99227760D01*
X129093475Y-99053368D01*
X128886632Y-98846525D01*
X128643411Y-98684010D01*
X128373158Y-98572068D01*
X128086260Y-98515000D01*
X127793740Y-98515000D01*
X127506842Y-98572068D01*
X127236589Y-98684010D01*
X126993368Y-98846525D01*
X126786525Y-99053368D01*
X126670000Y-99227760D01*
X126553475Y-99053368D01*
X126456695Y-98956588D01*
X126498534Y-98855581D01*
X126538308Y-98655622D01*
X126538308Y-98451744D01*
X126498534Y-98251785D01*
X126420513Y-98063427D01*
X126317997Y-97910000D01*
X144840000Y-97910000D01*
X144840000Y-104920557D01*
X144801898Y-104904774D01*
X144601939Y-104865000D01*
X144398061Y-104865000D01*
X144198102Y-104904774D01*
X144009744Y-104982795D01*
X143840226Y-105096063D01*
X143696063Y-105240226D01*
X143582795Y-105409744D01*
X143504774Y-105598102D01*
X143465000Y-105798061D01*
X143465000Y-106001939D01*
X143504774Y-106201898D01*
X143582795Y-106390256D01*
X143696063Y-106559774D01*
X143840226Y-106703937D01*
X144009744Y-106817205D01*
X144198102Y-106895226D01*
X144398061Y-106935000D01*
X144601939Y-106935000D01*
X144801898Y-106895226D01*
X144840000Y-106879443D01*
X144840001Y-116590000D01*
X98410000Y-116590000D01*
X98410000Y-113650000D01*
X98511928Y-113650000D01*
X98511928Y-115350000D01*
X98524188Y-115474482D01*
X98560498Y-115594180D01*
X98619463Y-115704494D01*
X98698815Y-115801185D01*
X98795506Y-115880537D01*
X98905820Y-115939502D01*
X99025518Y-115975812D01*
X99150000Y-115988072D01*
X100850000Y-115988072D01*
X100974482Y-115975812D01*
X101094180Y-115939502D01*
X101204494Y-115880537D01*
X101301185Y-115801185D01*
X101380537Y-115704494D01*
X101439502Y-115594180D01*
X101463966Y-115513534D01*
X101539731Y-115597588D01*
X101773080Y-115771641D01*
X102035901Y-115896825D01*
X102183110Y-115941476D01*
X102413000Y-115820155D01*
X102413000Y-114627000D01*
X102393000Y-114627000D01*
X102393000Y-114373000D01*
X102413000Y-114373000D01*
X102413000Y-113179845D01*
X102667000Y-113179845D01*
X102667000Y-114373000D01*
X102687000Y-114373000D01*
X102687000Y-114627000D01*
X102667000Y-114627000D01*
X102667000Y-115820155D01*
X102896890Y-115941476D01*
X103044099Y-115896825D01*
X103306920Y-115771641D01*
X103540269Y-115597588D01*
X103735178Y-115381355D01*
X103804805Y-115264466D01*
X103926525Y-115446632D01*
X104133368Y-115653475D01*
X104376589Y-115815990D01*
X104646842Y-115927932D01*
X104933740Y-115985000D01*
X105226260Y-115985000D01*
X105513158Y-115927932D01*
X105783411Y-115815990D01*
X106026632Y-115653475D01*
X106233475Y-115446632D01*
X106350000Y-115272240D01*
X106466525Y-115446632D01*
X106673368Y-115653475D01*
X106916589Y-115815990D01*
X107186842Y-115927932D01*
X107473740Y-115985000D01*
X107766260Y-115985000D01*
X108053158Y-115927932D01*
X108323411Y-115815990D01*
X108566632Y-115653475D01*
X108773475Y-115446632D01*
X108890000Y-115272240D01*
X109006525Y-115446632D01*
X109213368Y-115653475D01*
X109456589Y-115815990D01*
X109726842Y-115927932D01*
X110013740Y-115985000D01*
X110306260Y-115985000D01*
X110593158Y-115927932D01*
X110863411Y-115815990D01*
X111106632Y-115653475D01*
X111313475Y-115446632D01*
X111430000Y-115272240D01*
X111546525Y-115446632D01*
X111753368Y-115653475D01*
X111996589Y-115815990D01*
X112266842Y-115927932D01*
X112553740Y-115985000D01*
X112846260Y-115985000D01*
X113133158Y-115927932D01*
X113403411Y-115815990D01*
X113646632Y-115653475D01*
X113853475Y-115446632D01*
X113970000Y-115272240D01*
X114086525Y-115446632D01*
X114293368Y-115653475D01*
X114536589Y-115815990D01*
X114806842Y-115927932D01*
X115093740Y-115985000D01*
X115386260Y-115985000D01*
X115673158Y-115927932D01*
X115943411Y-115815990D01*
X116186632Y-115653475D01*
X116393475Y-115446632D01*
X116510000Y-115272240D01*
X116626525Y-115446632D01*
X116833368Y-115653475D01*
X117076589Y-115815990D01*
X117346842Y-115927932D01*
X117633740Y-115985000D01*
X117926260Y-115985000D01*
X118213158Y-115927932D01*
X118483411Y-115815990D01*
X118726632Y-115653475D01*
X118933475Y-115446632D01*
X119050000Y-115272240D01*
X119166525Y-115446632D01*
X119373368Y-115653475D01*
X119616589Y-115815990D01*
X119886842Y-115927932D01*
X120173740Y-115985000D01*
X120466260Y-115985000D01*
X120753158Y-115927932D01*
X121023411Y-115815990D01*
X121266632Y-115653475D01*
X121473475Y-115446632D01*
X121590000Y-115272240D01*
X121706525Y-115446632D01*
X121913368Y-115653475D01*
X122156589Y-115815990D01*
X122426842Y-115927932D01*
X122713740Y-115985000D01*
X123006260Y-115985000D01*
X123293158Y-115927932D01*
X123563411Y-115815990D01*
X123806632Y-115653475D01*
X124013475Y-115446632D01*
X124130000Y-115272240D01*
X124246525Y-115446632D01*
X124453368Y-115653475D01*
X124696589Y-115815990D01*
X124966842Y-115927932D01*
X125253740Y-115985000D01*
X125546260Y-115985000D01*
X125833158Y-115927932D01*
X126103411Y-115815990D01*
X126346632Y-115653475D01*
X126553475Y-115446632D01*
X126670000Y-115272240D01*
X126786525Y-115446632D01*
X126993368Y-115653475D01*
X127236589Y-115815990D01*
X127506842Y-115927932D01*
X127793740Y-115985000D01*
X128086260Y-115985000D01*
X128373158Y-115927932D01*
X128643411Y-115815990D01*
X128886632Y-115653475D01*
X129093475Y-115446632D01*
X129210000Y-115272240D01*
X129326525Y-115446632D01*
X129533368Y-115653475D01*
X129776589Y-115815990D01*
X130046842Y-115927932D01*
X130333740Y-115985000D01*
X130626260Y-115985000D01*
X130913158Y-115927932D01*
X131183411Y-115815990D01*
X131426632Y-115653475D01*
X131633475Y-115446632D01*
X131750000Y-115272240D01*
X131866525Y-115446632D01*
X132073368Y-115653475D01*
X132316589Y-115815990D01*
X132586842Y-115927932D01*
X132873740Y-115985000D01*
X133166260Y-115985000D01*
X133453158Y-115927932D01*
X133723411Y-115815990D01*
X133966632Y-115653475D01*
X134173475Y-115446632D01*
X134290000Y-115272240D01*
X134406525Y-115446632D01*
X134613368Y-115653475D01*
X134856589Y-115815990D01*
X135126842Y-115927932D01*
X135413740Y-115985000D01*
X135706260Y-115985000D01*
X135993158Y-115927932D01*
X136263411Y-115815990D01*
X136506632Y-115653475D01*
X136713475Y-115446632D01*
X136830000Y-115272240D01*
X136946525Y-115446632D01*
X137153368Y-115653475D01*
X137396589Y-115815990D01*
X137666842Y-115927932D01*
X137953740Y-115985000D01*
X138246260Y-115985000D01*
X138533158Y-115927932D01*
X138803411Y-115815990D01*
X139046632Y-115653475D01*
X139253475Y-115446632D01*
X139370000Y-115272240D01*
X139486525Y-115446632D01*
X139693368Y-115653475D01*
X139936589Y-115815990D01*
X140206842Y-115927932D01*
X140493740Y-115985000D01*
X140786260Y-115985000D01*
X141073158Y-115927932D01*
X141343411Y-115815990D01*
X141586632Y-115653475D01*
X141793475Y-115446632D01*
X141910000Y-115272240D01*
X142026525Y-115446632D01*
X142233368Y-115653475D01*
X142476589Y-115815990D01*
X142746842Y-115927932D01*
X143033740Y-115985000D01*
X143326260Y-115985000D01*
X143613158Y-115927932D01*
X143883411Y-115815990D01*
X144126632Y-115653475D01*
X144333475Y-115446632D01*
X144495990Y-115203411D01*
X144607932Y-114933158D01*
X144665000Y-114646260D01*
X144665000Y-114353740D01*
X144607932Y-114066842D01*
X144495990Y-113796589D01*
X144364264Y-113599447D01*
X144503937Y-113459774D01*
X144617205Y-113290256D01*
X144695226Y-113101898D01*
X144735000Y-112901939D01*
X144735000Y-112698061D01*
X144695226Y-112498102D01*
X144617205Y-112309744D01*
X144503937Y-112140226D01*
X144359774Y-111996063D01*
X144190256Y-111882795D01*
X144001898Y-111804774D01*
X143801939Y-111765000D01*
X143598061Y-111765000D01*
X143398102Y-111804774D01*
X143209744Y-111882795D01*
X143040226Y-111996063D01*
X142896063Y-112140226D01*
X142782795Y-112309744D01*
X142704774Y-112498102D01*
X142665000Y-112698061D01*
X142665000Y-112901939D01*
X142702494Y-113090437D01*
X142476589Y-113184010D01*
X142233368Y-113346525D01*
X142026525Y-113553368D01*
X141910000Y-113727760D01*
X141793475Y-113553368D01*
X141586632Y-113346525D01*
X141343411Y-113184010D01*
X141341266Y-113183121D01*
X141459774Y-113103937D01*
X141603937Y-112959774D01*
X141717205Y-112790256D01*
X141795226Y-112601898D01*
X141835000Y-112401939D01*
X141835000Y-112198061D01*
X141795226Y-111998102D01*
X141717205Y-111809744D01*
X141603937Y-111640226D01*
X141459774Y-111496063D01*
X141290256Y-111382795D01*
X141101898Y-111304774D01*
X140901939Y-111265000D01*
X140698061Y-111265000D01*
X140498102Y-111304774D01*
X140309744Y-111382795D01*
X140140226Y-111496063D01*
X139996063Y-111640226D01*
X139882795Y-111809744D01*
X139804774Y-111998102D01*
X139765000Y-112198061D01*
X139765000Y-112401939D01*
X139804774Y-112601898D01*
X139882795Y-112790256D01*
X139996063Y-112959774D01*
X140137203Y-113100914D01*
X139936589Y-113184010D01*
X139693368Y-113346525D01*
X139486525Y-113553368D01*
X139370000Y-113727760D01*
X139253475Y-113553368D01*
X139046632Y-113346525D01*
X138803411Y-113184010D01*
X138533158Y-113072068D01*
X138246260Y-113015000D01*
X137953740Y-113015000D01*
X137666842Y-113072068D01*
X137396589Y-113184010D01*
X137153368Y-113346525D01*
X136946525Y-113553368D01*
X136830000Y-113727760D01*
X136713475Y-113553368D01*
X136506632Y-113346525D01*
X136263411Y-113184010D01*
X135993158Y-113072068D01*
X135706260Y-113015000D01*
X135413740Y-113015000D01*
X135126842Y-113072068D01*
X134856589Y-113184010D01*
X134613368Y-113346525D01*
X134406525Y-113553368D01*
X134290000Y-113727760D01*
X134173475Y-113553368D01*
X133966632Y-113346525D01*
X133723411Y-113184010D01*
X133453158Y-113072068D01*
X133166260Y-113015000D01*
X132873740Y-113015000D01*
X132586842Y-113072068D01*
X132316589Y-113184010D01*
X132073368Y-113346525D01*
X131866525Y-113553368D01*
X131750000Y-113727760D01*
X131633475Y-113553368D01*
X131426632Y-113346525D01*
X131183411Y-113184010D01*
X130913158Y-113072068D01*
X130626260Y-113015000D01*
X130333740Y-113015000D01*
X130046842Y-113072068D01*
X129776589Y-113184010D01*
X129533368Y-113346525D01*
X129326525Y-113553368D01*
X129210000Y-113727760D01*
X129093475Y-113553368D01*
X128886632Y-113346525D01*
X128643411Y-113184010D01*
X128373158Y-113072068D01*
X128086260Y-113015000D01*
X127793740Y-113015000D01*
X127506842Y-113072068D01*
X127236589Y-113184010D01*
X126993368Y-113346525D01*
X126786525Y-113553368D01*
X126670000Y-113727760D01*
X126553475Y-113553368D01*
X126346632Y-113346525D01*
X126103411Y-113184010D01*
X125833158Y-113072068D01*
X125546260Y-113015000D01*
X125253740Y-113015000D01*
X124966842Y-113072068D01*
X124696589Y-113184010D01*
X124453368Y-113346525D01*
X124246525Y-113553368D01*
X124130000Y-113727760D01*
X124013475Y-113553368D01*
X123806632Y-113346525D01*
X123563411Y-113184010D01*
X123293158Y-113072068D01*
X123006260Y-113015000D01*
X122713740Y-113015000D01*
X122426842Y-113072068D01*
X122156589Y-113184010D01*
X121913368Y-113346525D01*
X121706525Y-113553368D01*
X121590000Y-113727760D01*
X121473475Y-113553368D01*
X121266632Y-113346525D01*
X121023411Y-113184010D01*
X120753158Y-113072068D01*
X120466260Y-113015000D01*
X120173740Y-113015000D01*
X119886842Y-113072068D01*
X119616589Y-113184010D01*
X119373368Y-113346525D01*
X119166525Y-113553368D01*
X119050000Y-113727760D01*
X118933475Y-113553368D01*
X118726632Y-113346525D01*
X118483411Y-113184010D01*
X118213158Y-113072068D01*
X117926260Y-113015000D01*
X117633740Y-113015000D01*
X117346842Y-113072068D01*
X117076589Y-113184010D01*
X116833368Y-113346525D01*
X116626525Y-113553368D01*
X116510000Y-113727760D01*
X116393475Y-113553368D01*
X116186632Y-113346525D01*
X115943411Y-113184010D01*
X115673158Y-113072068D01*
X115386260Y-113015000D01*
X115093740Y-113015000D01*
X114806842Y-113072068D01*
X114536589Y-113184010D01*
X114293368Y-113346525D01*
X114086525Y-113553368D01*
X113970000Y-113727760D01*
X113853475Y-113553368D01*
X113646632Y-113346525D01*
X113403411Y-113184010D01*
X113133158Y-113072068D01*
X112846260Y-113015000D01*
X112553740Y-113015000D01*
X112266842Y-113072068D01*
X111996589Y-113184010D01*
X111753368Y-113346525D01*
X111546525Y-113553368D01*
X111430000Y-113727760D01*
X111313475Y-113553368D01*
X111106632Y-113346525D01*
X110863411Y-113184010D01*
X110593158Y-113072068D01*
X110306260Y-113015000D01*
X110013740Y-113015000D01*
X109726842Y-113072068D01*
X109456589Y-113184010D01*
X109213368Y-113346525D01*
X109006525Y-113553368D01*
X108890000Y-113727760D01*
X108773475Y-113553368D01*
X108566632Y-113346525D01*
X108323411Y-113184010D01*
X108053158Y-113072068D01*
X107766260Y-113015000D01*
X107473740Y-113015000D01*
X107186842Y-113072068D01*
X106916589Y-113184010D01*
X106673368Y-113346525D01*
X106466525Y-113553368D01*
X106350000Y-113727760D01*
X106233475Y-113553368D01*
X106026632Y-113346525D01*
X105783411Y-113184010D01*
X105513158Y-113072068D01*
X105226260Y-113015000D01*
X104933740Y-113015000D01*
X104646842Y-113072068D01*
X104376589Y-113184010D01*
X104133368Y-113346525D01*
X103926525Y-113553368D01*
X103804805Y-113735534D01*
X103735178Y-113618645D01*
X103540269Y-113402412D01*
X103306920Y-113228359D01*
X103044099Y-113103175D01*
X102896890Y-113058524D01*
X102667000Y-113179845D01*
X102413000Y-113179845D01*
X102183110Y-113058524D01*
X102035901Y-113103175D01*
X101773080Y-113228359D01*
X101539731Y-113402412D01*
X101463966Y-113486466D01*
X101439502Y-113405820D01*
X101380537Y-113295506D01*
X101301185Y-113198815D01*
X101204494Y-113119463D01*
X101094180Y-113060498D01*
X100974482Y-113024188D01*
X100850000Y-113011928D01*
X99150000Y-113011928D01*
X99025518Y-113024188D01*
X98905820Y-113060498D01*
X98795506Y-113119463D01*
X98698815Y-113198815D01*
X98619463Y-113295506D01*
X98560498Y-113405820D01*
X98524188Y-113525518D01*
X98511928Y-113650000D01*
X98410000Y-113650000D01*
X98410000Y-110998061D01*
X113165000Y-110998061D01*
X113165000Y-111201939D01*
X113204774Y-111401898D01*
X113282795Y-111590256D01*
X113396063Y-111759774D01*
X113540226Y-111903937D01*
X113709744Y-112017205D01*
X113898102Y-112095226D01*
X114098061Y-112135000D01*
X114301939Y-112135000D01*
X114501898Y-112095226D01*
X114690256Y-112017205D01*
X114859774Y-111903937D01*
X115003937Y-111759774D01*
X115117205Y-111590256D01*
X115195226Y-111401898D01*
X115235000Y-111201939D01*
X115235000Y-111098061D01*
X119765000Y-111098061D01*
X119765000Y-111301939D01*
X119804774Y-111501898D01*
X119882795Y-111690256D01*
X119996063Y-111859774D01*
X120140226Y-112003937D01*
X120309744Y-112117205D01*
X120498102Y-112195226D01*
X120698061Y-112235000D01*
X120901939Y-112235000D01*
X121101898Y-112195226D01*
X121290256Y-112117205D01*
X121459774Y-112003937D01*
X121603937Y-111859774D01*
X121645172Y-111798061D01*
X127265000Y-111798061D01*
X127265000Y-112001939D01*
X127304774Y-112201898D01*
X127382795Y-112390256D01*
X127496063Y-112559774D01*
X127640226Y-112703937D01*
X127809744Y-112817205D01*
X127998102Y-112895226D01*
X128198061Y-112935000D01*
X128401939Y-112935000D01*
X128601898Y-112895226D01*
X128790256Y-112817205D01*
X128959774Y-112703937D01*
X129103937Y-112559774D01*
X129217205Y-112390256D01*
X129295226Y-112201898D01*
X129335000Y-112001939D01*
X129335000Y-111798061D01*
X129295226Y-111598102D01*
X129217205Y-111409744D01*
X129103937Y-111240226D01*
X128959774Y-111096063D01*
X128790256Y-110982795D01*
X128601898Y-110904774D01*
X128401939Y-110865000D01*
X128198061Y-110865000D01*
X127998102Y-110904774D01*
X127809744Y-110982795D01*
X127640226Y-111096063D01*
X127496063Y-111240226D01*
X127382795Y-111409744D01*
X127304774Y-111598102D01*
X127265000Y-111798061D01*
X121645172Y-111798061D01*
X121717205Y-111690256D01*
X121795226Y-111501898D01*
X121835000Y-111301939D01*
X121835000Y-111098061D01*
X121795226Y-110898102D01*
X121717205Y-110709744D01*
X121603937Y-110540226D01*
X121459774Y-110396063D01*
X121290256Y-110282795D01*
X121101898Y-110204774D01*
X120901939Y-110165000D01*
X120698061Y-110165000D01*
X120498102Y-110204774D01*
X120309744Y-110282795D01*
X120140226Y-110396063D01*
X119996063Y-110540226D01*
X119882795Y-110709744D01*
X119804774Y-110898102D01*
X119765000Y-111098061D01*
X115235000Y-111098061D01*
X115235000Y-110998061D01*
X115195226Y-110798102D01*
X115117205Y-110609744D01*
X115003937Y-110440226D01*
X114859774Y-110296063D01*
X114690256Y-110182795D01*
X114501898Y-110104774D01*
X114301939Y-110065000D01*
X114098061Y-110065000D01*
X113898102Y-110104774D01*
X113709744Y-110182795D01*
X113540226Y-110296063D01*
X113396063Y-110440226D01*
X113282795Y-110609744D01*
X113204774Y-110798102D01*
X113165000Y-110998061D01*
X98410000Y-110998061D01*
X98410000Y-107798061D01*
X112665000Y-107798061D01*
X112665000Y-108001939D01*
X112704774Y-108201898D01*
X112782795Y-108390256D01*
X112896063Y-108559774D01*
X113040226Y-108703937D01*
X113209744Y-108817205D01*
X113398102Y-108895226D01*
X113598061Y-108935000D01*
X113801939Y-108935000D01*
X114001898Y-108895226D01*
X114190256Y-108817205D01*
X114359774Y-108703937D01*
X114503937Y-108559774D01*
X114617205Y-108390256D01*
X114695226Y-108201898D01*
X114735000Y-108001939D01*
X114735000Y-107798061D01*
X114695226Y-107598102D01*
X114617205Y-107409744D01*
X114609399Y-107398061D01*
X120865000Y-107398061D01*
X120865000Y-107601939D01*
X120904774Y-107801898D01*
X120982795Y-107990256D01*
X121096063Y-108159774D01*
X121108125Y-108171836D01*
X121082795Y-108209744D01*
X121004774Y-108398102D01*
X120965000Y-108598061D01*
X120965000Y-108801939D01*
X121004774Y-109001898D01*
X121082795Y-109190256D01*
X121196063Y-109359774D01*
X121340226Y-109503937D01*
X121509744Y-109617205D01*
X121698102Y-109695226D01*
X121898061Y-109735000D01*
X122101939Y-109735000D01*
X122301898Y-109695226D01*
X122365000Y-109669088D01*
X122365000Y-109794430D01*
X122404774Y-109994389D01*
X122482795Y-110182747D01*
X122596063Y-110352265D01*
X122740226Y-110496428D01*
X122909744Y-110609696D01*
X123098102Y-110687717D01*
X123298061Y-110727491D01*
X123501939Y-110727491D01*
X123701898Y-110687717D01*
X123890256Y-110609696D01*
X124059774Y-110496428D01*
X124203937Y-110352265D01*
X124317205Y-110182747D01*
X124395226Y-109994389D01*
X124435000Y-109794430D01*
X124435000Y-109590552D01*
X124395226Y-109390593D01*
X124317205Y-109202235D01*
X124203937Y-109032717D01*
X124144062Y-108972842D01*
X124198102Y-108995226D01*
X124398061Y-109035000D01*
X124601939Y-109035000D01*
X124801898Y-108995226D01*
X124910411Y-108950278D01*
X124819093Y-109041596D01*
X124705825Y-109211114D01*
X124627804Y-109399472D01*
X124588030Y-109599431D01*
X124588030Y-109803309D01*
X124627804Y-110003268D01*
X124705825Y-110191626D01*
X124819093Y-110361144D01*
X124963256Y-110505307D01*
X125132774Y-110618575D01*
X125321132Y-110696596D01*
X125521091Y-110736370D01*
X125724969Y-110736370D01*
X125924928Y-110696596D01*
X126113286Y-110618575D01*
X126282804Y-110505307D01*
X126426967Y-110361144D01*
X126540235Y-110191626D01*
X126618256Y-110003268D01*
X126658030Y-109803309D01*
X126658030Y-109599431D01*
X126618256Y-109399472D01*
X126540235Y-109211114D01*
X126426967Y-109041596D01*
X126282804Y-108897433D01*
X126134083Y-108798061D01*
X133565000Y-108798061D01*
X133565000Y-109001939D01*
X133604774Y-109201898D01*
X133682795Y-109390256D01*
X133796063Y-109559774D01*
X133940226Y-109703937D01*
X134109744Y-109817205D01*
X134298102Y-109895226D01*
X134498061Y-109935000D01*
X134701939Y-109935000D01*
X134901898Y-109895226D01*
X135090256Y-109817205D01*
X135259774Y-109703937D01*
X135403937Y-109559774D01*
X135517205Y-109390256D01*
X135595226Y-109201898D01*
X135635000Y-109001939D01*
X135635000Y-108798061D01*
X135595226Y-108598102D01*
X135517205Y-108409744D01*
X135403937Y-108240226D01*
X135259774Y-108096063D01*
X135090256Y-107982795D01*
X134901898Y-107904774D01*
X134701939Y-107865000D01*
X134498061Y-107865000D01*
X134298102Y-107904774D01*
X134109744Y-107982795D01*
X133940226Y-108096063D01*
X133796063Y-108240226D01*
X133682795Y-108409744D01*
X133604774Y-108598102D01*
X133565000Y-108798061D01*
X126134083Y-108798061D01*
X126113286Y-108784165D01*
X125924928Y-108706144D01*
X125905553Y-108702290D01*
X125990256Y-108667205D01*
X126159774Y-108553937D01*
X126303937Y-108409774D01*
X126417205Y-108240256D01*
X126468238Y-108117052D01*
X126547238Y-108117052D01*
X126747197Y-108077278D01*
X126935555Y-107999257D01*
X127105073Y-107885989D01*
X127249236Y-107741826D01*
X127362504Y-107572308D01*
X127440525Y-107383950D01*
X127480299Y-107183991D01*
X127480299Y-107171329D01*
X127490256Y-107167205D01*
X127659774Y-107053937D01*
X127803937Y-106909774D01*
X127917205Y-106740256D01*
X127995226Y-106551898D01*
X128035000Y-106351939D01*
X128035000Y-106340093D01*
X128090256Y-106317205D01*
X128259774Y-106203937D01*
X128315650Y-106148061D01*
X130427549Y-106148061D01*
X130427549Y-106351939D01*
X130467323Y-106551898D01*
X130545344Y-106740256D01*
X130658612Y-106909774D01*
X130802775Y-107053937D01*
X130972293Y-107167205D01*
X131160651Y-107245226D01*
X131360610Y-107285000D01*
X131564488Y-107285000D01*
X131764447Y-107245226D01*
X131952805Y-107167205D01*
X132122323Y-107053937D01*
X132266486Y-106909774D01*
X132379754Y-106740256D01*
X132457775Y-106551898D01*
X132497549Y-106351939D01*
X132497549Y-106148061D01*
X132457775Y-105948102D01*
X132379754Y-105759744D01*
X132266486Y-105590226D01*
X132122323Y-105446063D01*
X131952805Y-105332795D01*
X131764447Y-105254774D01*
X131564488Y-105215000D01*
X131360610Y-105215000D01*
X131160651Y-105254774D01*
X130972293Y-105332795D01*
X130802775Y-105446063D01*
X130658612Y-105590226D01*
X130545344Y-105759744D01*
X130467323Y-105948102D01*
X130427549Y-106148061D01*
X128315650Y-106148061D01*
X128403937Y-106059774D01*
X128517205Y-105890256D01*
X128595226Y-105701898D01*
X128635000Y-105501939D01*
X128635000Y-105298061D01*
X128595226Y-105098102D01*
X128517205Y-104909744D01*
X128403937Y-104740226D01*
X128380142Y-104716431D01*
X128403686Y-104598061D01*
X136065000Y-104598061D01*
X136065000Y-104801939D01*
X136104774Y-105001898D01*
X136182795Y-105190256D01*
X136296063Y-105359774D01*
X136440226Y-105503937D01*
X136609744Y-105617205D01*
X136798102Y-105695226D01*
X136998061Y-105735000D01*
X137201939Y-105735000D01*
X137401898Y-105695226D01*
X137590256Y-105617205D01*
X137759774Y-105503937D01*
X137903937Y-105359774D01*
X138017205Y-105190256D01*
X138095226Y-105001898D01*
X138135000Y-104801939D01*
X138135000Y-104598061D01*
X139965000Y-104598061D01*
X139965000Y-104801939D01*
X140004774Y-105001898D01*
X140082795Y-105190256D01*
X140196063Y-105359774D01*
X140340226Y-105503937D01*
X140509744Y-105617205D01*
X140698102Y-105695226D01*
X140898061Y-105735000D01*
X141101939Y-105735000D01*
X141301898Y-105695226D01*
X141490256Y-105617205D01*
X141659774Y-105503937D01*
X141803937Y-105359774D01*
X141917205Y-105190256D01*
X141995226Y-105001898D01*
X142035000Y-104801939D01*
X142035000Y-104598061D01*
X141995226Y-104398102D01*
X141917205Y-104209744D01*
X141803937Y-104040226D01*
X141659774Y-103896063D01*
X141490256Y-103782795D01*
X141301898Y-103704774D01*
X141101939Y-103665000D01*
X140898061Y-103665000D01*
X140698102Y-103704774D01*
X140509744Y-103782795D01*
X140340226Y-103896063D01*
X140196063Y-104040226D01*
X140082795Y-104209744D01*
X140004774Y-104398102D01*
X139965000Y-104598061D01*
X138135000Y-104598061D01*
X138095226Y-104398102D01*
X138017205Y-104209744D01*
X137903937Y-104040226D01*
X137759774Y-103896063D01*
X137590256Y-103782795D01*
X137401898Y-103704774D01*
X137201939Y-103665000D01*
X136998061Y-103665000D01*
X136798102Y-103704774D01*
X136609744Y-103782795D01*
X136440226Y-103896063D01*
X136296063Y-104040226D01*
X136182795Y-104209744D01*
X136104774Y-104398102D01*
X136065000Y-104598061D01*
X128403686Y-104598061D01*
X128418070Y-104525750D01*
X128418070Y-104321872D01*
X128378296Y-104121913D01*
X128300275Y-103933555D01*
X128187007Y-103764037D01*
X128042844Y-103619874D01*
X127873326Y-103506606D01*
X127684968Y-103428585D01*
X127485009Y-103388811D01*
X127281131Y-103388811D01*
X127081172Y-103428585D01*
X126892814Y-103506606D01*
X126723296Y-103619874D01*
X126579133Y-103764037D01*
X126465865Y-103933555D01*
X126387844Y-104121913D01*
X126348070Y-104321872D01*
X126348070Y-104525750D01*
X126387844Y-104725709D01*
X126465865Y-104914067D01*
X126579133Y-105083585D01*
X126602928Y-105107380D01*
X126565000Y-105298061D01*
X126565000Y-105309907D01*
X126509744Y-105332795D01*
X126340226Y-105446063D01*
X126196063Y-105590226D01*
X126082795Y-105759744D01*
X126004774Y-105948102D01*
X125965000Y-106148061D01*
X125965000Y-106160723D01*
X125955043Y-106164847D01*
X125785525Y-106278115D01*
X125641362Y-106422278D01*
X125528094Y-106591796D01*
X125477061Y-106715000D01*
X125398061Y-106715000D01*
X125198102Y-106754774D01*
X125009744Y-106832795D01*
X124840226Y-106946063D01*
X124784897Y-107001392D01*
X124601939Y-106965000D01*
X124398061Y-106965000D01*
X124388570Y-106966888D01*
X124303937Y-106840226D01*
X124159774Y-106696063D01*
X123990256Y-106582795D01*
X123980299Y-106578671D01*
X123980299Y-106566009D01*
X123940525Y-106366050D01*
X123862504Y-106177692D01*
X123749236Y-106008174D01*
X123605073Y-105864011D01*
X123435555Y-105750743D01*
X123435000Y-105750513D01*
X123435000Y-105698061D01*
X123395226Y-105498102D01*
X123317205Y-105309744D01*
X123203937Y-105140226D01*
X123059774Y-104996063D01*
X122890256Y-104882795D01*
X122701898Y-104804774D01*
X122501939Y-104765000D01*
X122298061Y-104765000D01*
X122098102Y-104804774D01*
X121909744Y-104882795D01*
X121740226Y-104996063D01*
X121596063Y-105140226D01*
X121482795Y-105309744D01*
X121404774Y-105498102D01*
X121365000Y-105698061D01*
X121365000Y-105901939D01*
X121404774Y-106101898D01*
X121482795Y-106290256D01*
X121596063Y-106459774D01*
X121633935Y-106497646D01*
X121598102Y-106504774D01*
X121409744Y-106582795D01*
X121240226Y-106696063D01*
X121096063Y-106840226D01*
X120982795Y-107009744D01*
X120904774Y-107198102D01*
X120865000Y-107398061D01*
X114609399Y-107398061D01*
X114503937Y-107240226D01*
X114359774Y-107096063D01*
X114190256Y-106982795D01*
X114001898Y-106904774D01*
X113801939Y-106865000D01*
X113598061Y-106865000D01*
X113398102Y-106904774D01*
X113209744Y-106982795D01*
X113040226Y-107096063D01*
X112896063Y-107240226D01*
X112782795Y-107409744D01*
X112704774Y-107598102D01*
X112665000Y-107798061D01*
X98410000Y-107798061D01*
X98410000Y-102698061D01*
X106765000Y-102698061D01*
X106765000Y-102901939D01*
X106804774Y-103101898D01*
X106882795Y-103290256D01*
X106996063Y-103459774D01*
X107140226Y-103603937D01*
X107309744Y-103717205D01*
X107498102Y-103795226D01*
X107698061Y-103835000D01*
X107897435Y-103835000D01*
X107865000Y-103998061D01*
X107865000Y-104201939D01*
X107904774Y-104401898D01*
X107982795Y-104590256D01*
X108096063Y-104759774D01*
X108240226Y-104903937D01*
X108409744Y-105017205D01*
X108598102Y-105095226D01*
X108622103Y-105100000D01*
X108598102Y-105104774D01*
X108409744Y-105182795D01*
X108240226Y-105296063D01*
X108096063Y-105440226D01*
X107982795Y-105609744D01*
X107904774Y-105798102D01*
X107865000Y-105998061D01*
X107865000Y-106201939D01*
X107904774Y-106401898D01*
X107982795Y-106590256D01*
X108096063Y-106759774D01*
X108240226Y-106903937D01*
X108409744Y-107017205D01*
X108598102Y-107095226D01*
X108798061Y-107135000D01*
X109001939Y-107135000D01*
X109201898Y-107095226D01*
X109390256Y-107017205D01*
X109559774Y-106903937D01*
X109703937Y-106759774D01*
X109817205Y-106590256D01*
X109895226Y-106401898D01*
X109935000Y-106201939D01*
X109935000Y-105998061D01*
X109895226Y-105798102D01*
X109817205Y-105609744D01*
X109703937Y-105440226D01*
X109561772Y-105298061D01*
X117765000Y-105298061D01*
X117765000Y-105501939D01*
X117804774Y-105701898D01*
X117882795Y-105890256D01*
X117996063Y-106059774D01*
X118140226Y-106203937D01*
X118309744Y-106317205D01*
X118498102Y-106395226D01*
X118698061Y-106435000D01*
X118901939Y-106435000D01*
X119101898Y-106395226D01*
X119290256Y-106317205D01*
X119459774Y-106203937D01*
X119603937Y-106059774D01*
X119717205Y-105890256D01*
X119795226Y-105701898D01*
X119835000Y-105501939D01*
X119835000Y-105298061D01*
X119795226Y-105098102D01*
X119717205Y-104909744D01*
X119603937Y-104740226D01*
X119459774Y-104596063D01*
X119290256Y-104482795D01*
X119101898Y-104404774D01*
X118901939Y-104365000D01*
X118698061Y-104365000D01*
X118498102Y-104404774D01*
X118309744Y-104482795D01*
X118140226Y-104596063D01*
X117996063Y-104740226D01*
X117882795Y-104909744D01*
X117804774Y-105098102D01*
X117765000Y-105298061D01*
X109561772Y-105298061D01*
X109559774Y-105296063D01*
X109390256Y-105182795D01*
X109201898Y-105104774D01*
X109177897Y-105100000D01*
X109201898Y-105095226D01*
X109390256Y-105017205D01*
X109559774Y-104903937D01*
X109703937Y-104759774D01*
X109817205Y-104590256D01*
X109895226Y-104401898D01*
X109935000Y-104201939D01*
X109935000Y-103998061D01*
X109895226Y-103798102D01*
X109817205Y-103609744D01*
X109703937Y-103440226D01*
X109561772Y-103298061D01*
X119565000Y-103298061D01*
X119565000Y-103501939D01*
X119604774Y-103701898D01*
X119682795Y-103890256D01*
X119796063Y-104059774D01*
X119940226Y-104203937D01*
X120109744Y-104317205D01*
X120298102Y-104395226D01*
X120498061Y-104435000D01*
X120701939Y-104435000D01*
X120901898Y-104395226D01*
X121090256Y-104317205D01*
X121259774Y-104203937D01*
X121403937Y-104059774D01*
X121517205Y-103890256D01*
X121595226Y-103701898D01*
X121635000Y-103501939D01*
X121635000Y-103298061D01*
X121595226Y-103098102D01*
X121517205Y-102909744D01*
X121403937Y-102740226D01*
X121259774Y-102596063D01*
X121090256Y-102482795D01*
X120901898Y-102404774D01*
X120701939Y-102365000D01*
X120498061Y-102365000D01*
X120298102Y-102404774D01*
X120109744Y-102482795D01*
X119940226Y-102596063D01*
X119796063Y-102740226D01*
X119682795Y-102909744D01*
X119604774Y-103098102D01*
X119565000Y-103298061D01*
X109561772Y-103298061D01*
X109559774Y-103296063D01*
X109390256Y-103182795D01*
X109201898Y-103104774D01*
X109001939Y-103065000D01*
X108802565Y-103065000D01*
X108835000Y-102901939D01*
X108835000Y-102698061D01*
X108795226Y-102498102D01*
X108717205Y-102309744D01*
X108603937Y-102140226D01*
X108459774Y-101996063D01*
X108290256Y-101882795D01*
X108101898Y-101804774D01*
X107901939Y-101765000D01*
X107698061Y-101765000D01*
X107498102Y-101804774D01*
X107309744Y-101882795D01*
X107140226Y-101996063D01*
X106996063Y-102140226D01*
X106882795Y-102309744D01*
X106804774Y-102498102D01*
X106765000Y-102698061D01*
X98410000Y-102698061D01*
X98410000Y-99150000D01*
X98511928Y-99150000D01*
X98511928Y-100850000D01*
X98524188Y-100974482D01*
X98560498Y-101094180D01*
X98619463Y-101204494D01*
X98698815Y-101301185D01*
X98795506Y-101380537D01*
X98905820Y-101439502D01*
X99025518Y-101475812D01*
X99150000Y-101488072D01*
X100850000Y-101488072D01*
X100974482Y-101475812D01*
X101094180Y-101439502D01*
X101204494Y-101380537D01*
X101301185Y-101301185D01*
X101380537Y-101204494D01*
X101439502Y-101094180D01*
X101463966Y-101013534D01*
X101539731Y-101097588D01*
X101773080Y-101271641D01*
X102035901Y-101396825D01*
X102183110Y-101441476D01*
X102413000Y-101320155D01*
X102413000Y-100127000D01*
X102393000Y-100127000D01*
X102393000Y-99873000D01*
X102413000Y-99873000D01*
X102413000Y-98679845D01*
X102183110Y-98558524D01*
X102035901Y-98603175D01*
X101773080Y-98728359D01*
X101539731Y-98902412D01*
X101463966Y-98986466D01*
X101439502Y-98905820D01*
X101380537Y-98795506D01*
X101301185Y-98698815D01*
X101204494Y-98619463D01*
X101094180Y-98560498D01*
X100974482Y-98524188D01*
X100850000Y-98511928D01*
X99150000Y-98511928D01*
X99025518Y-98524188D01*
X98905820Y-98560498D01*
X98795506Y-98619463D01*
X98698815Y-98698815D01*
X98619463Y-98795506D01*
X98560498Y-98905820D01*
X98524188Y-99025518D01*
X98511928Y-99150000D01*
X98410000Y-99150000D01*
X98410000Y-97910000D01*
X124688619Y-97910000D01*
X124586103Y-98063427D01*
%TA.AperFunction,Conductor*%
D14*
G36*
X124586103Y-98063427D02*
G01*
X124508082Y-98251785D01*
X124468308Y-98451744D01*
X124468308Y-98655622D01*
X124500073Y-98815318D01*
X124453368Y-98846525D01*
X124246525Y-99053368D01*
X124130000Y-99227760D01*
X124013475Y-99053368D01*
X123806632Y-98846525D01*
X123563411Y-98684010D01*
X123293158Y-98572068D01*
X123006260Y-98515000D01*
X122713740Y-98515000D01*
X122426842Y-98572068D01*
X122156589Y-98684010D01*
X121913368Y-98846525D01*
X121706525Y-99053368D01*
X121590000Y-99227760D01*
X121473475Y-99053368D01*
X121266632Y-98846525D01*
X121023411Y-98684010D01*
X120753158Y-98572068D01*
X120466260Y-98515000D01*
X120173740Y-98515000D01*
X119886842Y-98572068D01*
X119616589Y-98684010D01*
X119373368Y-98846525D01*
X119166525Y-99053368D01*
X119050000Y-99227760D01*
X118933475Y-99053368D01*
X118726632Y-98846525D01*
X118483411Y-98684010D01*
X118213158Y-98572068D01*
X117926260Y-98515000D01*
X117633740Y-98515000D01*
X117346842Y-98572068D01*
X117076589Y-98684010D01*
X116833368Y-98846525D01*
X116626525Y-99053368D01*
X116510000Y-99227760D01*
X116393475Y-99053368D01*
X116186632Y-98846525D01*
X115943411Y-98684010D01*
X115673158Y-98572068D01*
X115386260Y-98515000D01*
X115093740Y-98515000D01*
X114806842Y-98572068D01*
X114536589Y-98684010D01*
X114293368Y-98846525D01*
X114086525Y-99053368D01*
X113970000Y-99227760D01*
X113853475Y-99053368D01*
X113646632Y-98846525D01*
X113403411Y-98684010D01*
X113133158Y-98572068D01*
X112846260Y-98515000D01*
X112553740Y-98515000D01*
X112266842Y-98572068D01*
X111996589Y-98684010D01*
X111753368Y-98846525D01*
X111546525Y-99053368D01*
X111430000Y-99227760D01*
X111313475Y-99053368D01*
X111106632Y-98846525D01*
X110863411Y-98684010D01*
X110593158Y-98572068D01*
X110306260Y-98515000D01*
X110013740Y-98515000D01*
X109726842Y-98572068D01*
X109456589Y-98684010D01*
X109213368Y-98846525D01*
X109006525Y-99053368D01*
X108890000Y-99227760D01*
X108773475Y-99053368D01*
X108566632Y-98846525D01*
X108323411Y-98684010D01*
X108053158Y-98572068D01*
X107766260Y-98515000D01*
X107473740Y-98515000D01*
X107186842Y-98572068D01*
X106916589Y-98684010D01*
X106673368Y-98846525D01*
X106466525Y-99053368D01*
X106350000Y-99227760D01*
X106233475Y-99053368D01*
X106026632Y-98846525D01*
X105783411Y-98684010D01*
X105513158Y-98572068D01*
X105226260Y-98515000D01*
X104933740Y-98515000D01*
X104646842Y-98572068D01*
X104376589Y-98684010D01*
X104133368Y-98846525D01*
X103926525Y-99053368D01*
X103804805Y-99235534D01*
X103735178Y-99118645D01*
X103540269Y-98902412D01*
X103306920Y-98728359D01*
X103044099Y-98603175D01*
X102896890Y-98558524D01*
X102667000Y-98679845D01*
X102667000Y-99873000D01*
X102687000Y-99873000D01*
X102687000Y-100127000D01*
X102667000Y-100127000D01*
X102667000Y-101320155D01*
X102896890Y-101441476D01*
X103044099Y-101396825D01*
X103306920Y-101271641D01*
X103540269Y-101097588D01*
X103735178Y-100881355D01*
X103804805Y-100764466D01*
X103926525Y-100946632D01*
X104133368Y-101153475D01*
X104376589Y-101315990D01*
X104646842Y-101427932D01*
X104933740Y-101485000D01*
X105226260Y-101485000D01*
X105513158Y-101427932D01*
X105783411Y-101315990D01*
X106026632Y-101153475D01*
X106233475Y-100946632D01*
X106350000Y-100772240D01*
X106466525Y-100946632D01*
X106673368Y-101153475D01*
X106916589Y-101315990D01*
X107186842Y-101427932D01*
X107473740Y-101485000D01*
X107766260Y-101485000D01*
X108053158Y-101427932D01*
X108323411Y-101315990D01*
X108566632Y-101153475D01*
X108773475Y-100946632D01*
X108890000Y-100772240D01*
X109006525Y-100946632D01*
X109213368Y-101153475D01*
X109456589Y-101315990D01*
X109726842Y-101427932D01*
X110013740Y-101485000D01*
X110306260Y-101485000D01*
X110593158Y-101427932D01*
X110863411Y-101315990D01*
X111106632Y-101153475D01*
X111313475Y-100946632D01*
X111430000Y-100772240D01*
X111546525Y-100946632D01*
X111753368Y-101153475D01*
X111996589Y-101315990D01*
X112266842Y-101427932D01*
X112553740Y-101485000D01*
X112846260Y-101485000D01*
X113133158Y-101427932D01*
X113403411Y-101315990D01*
X113646632Y-101153475D01*
X113853475Y-100946632D01*
X113970000Y-100772240D01*
X114086525Y-100946632D01*
X114293368Y-101153475D01*
X114536589Y-101315990D01*
X114806842Y-101427932D01*
X115093740Y-101485000D01*
X115386260Y-101485000D01*
X115673158Y-101427932D01*
X115943411Y-101315990D01*
X116186632Y-101153475D01*
X116393475Y-100946632D01*
X116510000Y-100772240D01*
X116626525Y-100946632D01*
X116833368Y-101153475D01*
X117076589Y-101315990D01*
X117346842Y-101427932D01*
X117633740Y-101485000D01*
X117926260Y-101485000D01*
X118213158Y-101427932D01*
X118483411Y-101315990D01*
X118726632Y-101153475D01*
X118933475Y-100946632D01*
X119050000Y-100772240D01*
X119166525Y-100946632D01*
X119373368Y-101153475D01*
X119616589Y-101315990D01*
X119886842Y-101427932D01*
X120173740Y-101485000D01*
X120466260Y-101485000D01*
X120753158Y-101427932D01*
X121023411Y-101315990D01*
X121266632Y-101153475D01*
X121473475Y-100946632D01*
X121590000Y-100772240D01*
X121706525Y-100946632D01*
X121913368Y-101153475D01*
X122156589Y-101315990D01*
X122426842Y-101427932D01*
X122713740Y-101485000D01*
X123006260Y-101485000D01*
X123293158Y-101427932D01*
X123563411Y-101315990D01*
X123806632Y-101153475D01*
X124013475Y-100946632D01*
X124130000Y-100772240D01*
X124246525Y-100946632D01*
X124453368Y-101153475D01*
X124696589Y-101315990D01*
X124966842Y-101427932D01*
X125253740Y-101485000D01*
X125546260Y-101485000D01*
X125833158Y-101427932D01*
X126103411Y-101315990D01*
X126346632Y-101153475D01*
X126553475Y-100946632D01*
X126670000Y-100772240D01*
X126786525Y-100946632D01*
X126993368Y-101153475D01*
X127236589Y-101315990D01*
X127506842Y-101427932D01*
X127793740Y-101485000D01*
X128086260Y-101485000D01*
X128373158Y-101427932D01*
X128643411Y-101315990D01*
X128886632Y-101153475D01*
X129093475Y-100946632D01*
X129210000Y-100772240D01*
X129326525Y-100946632D01*
X129533368Y-101153475D01*
X129776589Y-101315990D01*
X130046842Y-101427932D01*
X130333740Y-101485000D01*
X130626260Y-101485000D01*
X130913158Y-101427932D01*
X131183411Y-101315990D01*
X131426632Y-101153475D01*
X131633475Y-100946632D01*
X131750000Y-100772240D01*
X131866525Y-100946632D01*
X132073368Y-101153475D01*
X132316589Y-101315990D01*
X132586842Y-101427932D01*
X132873740Y-101485000D01*
X133166260Y-101485000D01*
X133453158Y-101427932D01*
X133723411Y-101315990D01*
X133966632Y-101153475D01*
X134173475Y-100946632D01*
X134290000Y-100772240D01*
X134406525Y-100946632D01*
X134613368Y-101153475D01*
X134856589Y-101315990D01*
X135126842Y-101427932D01*
X135413740Y-101485000D01*
X135706260Y-101485000D01*
X135993158Y-101427932D01*
X136263411Y-101315990D01*
X136506632Y-101153475D01*
X136713475Y-100946632D01*
X136830000Y-100772240D01*
X136946525Y-100946632D01*
X137153368Y-101153475D01*
X137396589Y-101315990D01*
X137666842Y-101427932D01*
X137953740Y-101485000D01*
X138246260Y-101485000D01*
X138533158Y-101427932D01*
X138803411Y-101315990D01*
X139046632Y-101153475D01*
X139253475Y-100946632D01*
X139370000Y-100772240D01*
X139486525Y-100946632D01*
X139693368Y-101153475D01*
X139936589Y-101315990D01*
X140206842Y-101427932D01*
X140493740Y-101485000D01*
X140786260Y-101485000D01*
X141073158Y-101427932D01*
X141343411Y-101315990D01*
X141586632Y-101153475D01*
X141793475Y-100946632D01*
X141910000Y-100772240D01*
X142026525Y-100946632D01*
X142233368Y-101153475D01*
X142476589Y-101315990D01*
X142746842Y-101427932D01*
X143033740Y-101485000D01*
X143326260Y-101485000D01*
X143613158Y-101427932D01*
X143883411Y-101315990D01*
X144126632Y-101153475D01*
X144333475Y-100946632D01*
X144495990Y-100703411D01*
X144607932Y-100433158D01*
X144665000Y-100146260D01*
X144665000Y-99853740D01*
X144607932Y-99566842D01*
X144495990Y-99296589D01*
X144333475Y-99053368D01*
X144126632Y-98846525D01*
X143883411Y-98684010D01*
X143613158Y-98572068D01*
X143326260Y-98515000D01*
X143033740Y-98515000D01*
X142746842Y-98572068D01*
X142476589Y-98684010D01*
X142233368Y-98846525D01*
X142026525Y-99053368D01*
X141910000Y-99227760D01*
X141793475Y-99053368D01*
X141586632Y-98846525D01*
X141343411Y-98684010D01*
X141073158Y-98572068D01*
X140786260Y-98515000D01*
X140493740Y-98515000D01*
X140206842Y-98572068D01*
X139936589Y-98684010D01*
X139693368Y-98846525D01*
X139486525Y-99053368D01*
X139370000Y-99227760D01*
X139253475Y-99053368D01*
X139046632Y-98846525D01*
X138803411Y-98684010D01*
X138533158Y-98572068D01*
X138246260Y-98515000D01*
X137953740Y-98515000D01*
X137666842Y-98572068D01*
X137396589Y-98684010D01*
X137153368Y-98846525D01*
X136946525Y-99053368D01*
X136830000Y-99227760D01*
X136713475Y-99053368D01*
X136506632Y-98846525D01*
X136263411Y-98684010D01*
X135993158Y-98572068D01*
X135706260Y-98515000D01*
X135413740Y-98515000D01*
X135126842Y-98572068D01*
X134856589Y-98684010D01*
X134613368Y-98846525D01*
X134406525Y-99053368D01*
X134290000Y-99227760D01*
X134173475Y-99053368D01*
X133966632Y-98846525D01*
X133723411Y-98684010D01*
X133453158Y-98572068D01*
X133166260Y-98515000D01*
X132873740Y-98515000D01*
X132586842Y-98572068D01*
X132316589Y-98684010D01*
X132073368Y-98846525D01*
X131866525Y-99053368D01*
X131750000Y-99227760D01*
X131633475Y-99053368D01*
X131426632Y-98846525D01*
X131183411Y-98684010D01*
X130913158Y-98572068D01*
X130626260Y-98515000D01*
X130333740Y-98515000D01*
X130046842Y-98572068D01*
X129776589Y-98684010D01*
X129533368Y-98846525D01*
X129326525Y-99053368D01*
X129210000Y-99227760D01*
X129093475Y-99053368D01*
X128886632Y-98846525D01*
X128643411Y-98684010D01*
X128373158Y-98572068D01*
X128086260Y-98515000D01*
X127793740Y-98515000D01*
X127506842Y-98572068D01*
X127236589Y-98684010D01*
X126993368Y-98846525D01*
X126786525Y-99053368D01*
X126670000Y-99227760D01*
X126553475Y-99053368D01*
X126456695Y-98956588D01*
X126498534Y-98855581D01*
X126538308Y-98655622D01*
X126538308Y-98451744D01*
X126498534Y-98251785D01*
X126420513Y-98063427D01*
X126317997Y-97910000D01*
X144840000Y-97910000D01*
X144840000Y-104920557D01*
X144801898Y-104904774D01*
X144601939Y-104865000D01*
X144398061Y-104865000D01*
X144198102Y-104904774D01*
X144009744Y-104982795D01*
X143840226Y-105096063D01*
X143696063Y-105240226D01*
X143582795Y-105409744D01*
X143504774Y-105598102D01*
X143465000Y-105798061D01*
X143465000Y-106001939D01*
X143504774Y-106201898D01*
X143582795Y-106390256D01*
X143696063Y-106559774D01*
X143840226Y-106703937D01*
X144009744Y-106817205D01*
X144198102Y-106895226D01*
X144398061Y-106935000D01*
X144601939Y-106935000D01*
X144801898Y-106895226D01*
X144840000Y-106879443D01*
X144840001Y-116590000D01*
X98410000Y-116590000D01*
X98410000Y-113650000D01*
X98511928Y-113650000D01*
X98511928Y-115350000D01*
X98524188Y-115474482D01*
X98560498Y-115594180D01*
X98619463Y-115704494D01*
X98698815Y-115801185D01*
X98795506Y-115880537D01*
X98905820Y-115939502D01*
X99025518Y-115975812D01*
X99150000Y-115988072D01*
X100850000Y-115988072D01*
X100974482Y-115975812D01*
X101094180Y-115939502D01*
X101204494Y-115880537D01*
X101301185Y-115801185D01*
X101380537Y-115704494D01*
X101439502Y-115594180D01*
X101463966Y-115513534D01*
X101539731Y-115597588D01*
X101773080Y-115771641D01*
X102035901Y-115896825D01*
X102183110Y-115941476D01*
X102413000Y-115820155D01*
X102413000Y-114627000D01*
X102393000Y-114627000D01*
X102393000Y-114373000D01*
X102413000Y-114373000D01*
X102413000Y-113179845D01*
X102667000Y-113179845D01*
X102667000Y-114373000D01*
X102687000Y-114373000D01*
X102687000Y-114627000D01*
X102667000Y-114627000D01*
X102667000Y-115820155D01*
X102896890Y-115941476D01*
X103044099Y-115896825D01*
X103306920Y-115771641D01*
X103540269Y-115597588D01*
X103735178Y-115381355D01*
X103804805Y-115264466D01*
X103926525Y-115446632D01*
X104133368Y-115653475D01*
X104376589Y-115815990D01*
X104646842Y-115927932D01*
X104933740Y-115985000D01*
X105226260Y-115985000D01*
X105513158Y-115927932D01*
X105783411Y-115815990D01*
X106026632Y-115653475D01*
X106233475Y-115446632D01*
X106350000Y-115272240D01*
X106466525Y-115446632D01*
X106673368Y-115653475D01*
X106916589Y-115815990D01*
X107186842Y-115927932D01*
X107473740Y-115985000D01*
X107766260Y-115985000D01*
X108053158Y-115927932D01*
X108323411Y-115815990D01*
X108566632Y-115653475D01*
X108773475Y-115446632D01*
X108890000Y-115272240D01*
X109006525Y-115446632D01*
X109213368Y-115653475D01*
X109456589Y-115815990D01*
X109726842Y-115927932D01*
X110013740Y-115985000D01*
X110306260Y-115985000D01*
X110593158Y-115927932D01*
X110863411Y-115815990D01*
X111106632Y-115653475D01*
X111313475Y-115446632D01*
X111430000Y-115272240D01*
X111546525Y-115446632D01*
X111753368Y-115653475D01*
X111996589Y-115815990D01*
X112266842Y-115927932D01*
X112553740Y-115985000D01*
X112846260Y-115985000D01*
X113133158Y-115927932D01*
X113403411Y-115815990D01*
X113646632Y-115653475D01*
X113853475Y-115446632D01*
X113970000Y-115272240D01*
X114086525Y-115446632D01*
X114293368Y-115653475D01*
X114536589Y-115815990D01*
X114806842Y-115927932D01*
X115093740Y-115985000D01*
X115386260Y-115985000D01*
X115673158Y-115927932D01*
X115943411Y-115815990D01*
X116186632Y-115653475D01*
X116393475Y-115446632D01*
X116510000Y-115272240D01*
X116626525Y-115446632D01*
X116833368Y-115653475D01*
X117076589Y-115815990D01*
X117346842Y-115927932D01*
X117633740Y-115985000D01*
X117926260Y-115985000D01*
X118213158Y-115927932D01*
X118483411Y-115815990D01*
X118726632Y-115653475D01*
X118933475Y-115446632D01*
X119050000Y-115272240D01*
X119166525Y-115446632D01*
X119373368Y-115653475D01*
X119616589Y-115815990D01*
X119886842Y-115927932D01*
X120173740Y-115985000D01*
X120466260Y-115985000D01*
X120753158Y-115927932D01*
X121023411Y-115815990D01*
X121266632Y-115653475D01*
X121473475Y-115446632D01*
X121590000Y-115272240D01*
X121706525Y-115446632D01*
X121913368Y-115653475D01*
X122156589Y-115815990D01*
X122426842Y-115927932D01*
X122713740Y-115985000D01*
X123006260Y-115985000D01*
X123293158Y-115927932D01*
X123563411Y-115815990D01*
X123806632Y-115653475D01*
X124013475Y-115446632D01*
X124130000Y-115272240D01*
X124246525Y-115446632D01*
X124453368Y-115653475D01*
X124696589Y-115815990D01*
X124966842Y-115927932D01*
X125253740Y-115985000D01*
X125546260Y-115985000D01*
X125833158Y-115927932D01*
X126103411Y-115815990D01*
X126346632Y-115653475D01*
X126553475Y-115446632D01*
X126670000Y-115272240D01*
X126786525Y-115446632D01*
X126993368Y-115653475D01*
X127236589Y-115815990D01*
X127506842Y-115927932D01*
X127793740Y-115985000D01*
X128086260Y-115985000D01*
X128373158Y-115927932D01*
X128643411Y-115815990D01*
X128886632Y-115653475D01*
X129093475Y-115446632D01*
X129210000Y-115272240D01*
X129326525Y-115446632D01*
X129533368Y-115653475D01*
X129776589Y-115815990D01*
X130046842Y-115927932D01*
X130333740Y-115985000D01*
X130626260Y-115985000D01*
X130913158Y-115927932D01*
X131183411Y-115815990D01*
X131426632Y-115653475D01*
X131633475Y-115446632D01*
X131750000Y-115272240D01*
X131866525Y-115446632D01*
X132073368Y-115653475D01*
X132316589Y-115815990D01*
X132586842Y-115927932D01*
X132873740Y-115985000D01*
X133166260Y-115985000D01*
X133453158Y-115927932D01*
X133723411Y-115815990D01*
X133966632Y-115653475D01*
X134173475Y-115446632D01*
X134290000Y-115272240D01*
X134406525Y-115446632D01*
X134613368Y-115653475D01*
X134856589Y-115815990D01*
X135126842Y-115927932D01*
X135413740Y-115985000D01*
X135706260Y-115985000D01*
X135993158Y-115927932D01*
X136263411Y-115815990D01*
X136506632Y-115653475D01*
X136713475Y-115446632D01*
X136830000Y-115272240D01*
X136946525Y-115446632D01*
X137153368Y-115653475D01*
X137396589Y-115815990D01*
X137666842Y-115927932D01*
X137953740Y-115985000D01*
X138246260Y-115985000D01*
X138533158Y-115927932D01*
X138803411Y-115815990D01*
X139046632Y-115653475D01*
X139253475Y-115446632D01*
X139370000Y-115272240D01*
X139486525Y-115446632D01*
X139693368Y-115653475D01*
X139936589Y-115815990D01*
X140206842Y-115927932D01*
X140493740Y-115985000D01*
X140786260Y-115985000D01*
X141073158Y-115927932D01*
X141343411Y-115815990D01*
X141586632Y-115653475D01*
X141793475Y-115446632D01*
X141910000Y-115272240D01*
X142026525Y-115446632D01*
X142233368Y-115653475D01*
X142476589Y-115815990D01*
X142746842Y-115927932D01*
X143033740Y-115985000D01*
X143326260Y-115985000D01*
X143613158Y-115927932D01*
X143883411Y-115815990D01*
X144126632Y-115653475D01*
X144333475Y-115446632D01*
X144495990Y-115203411D01*
X144607932Y-114933158D01*
X144665000Y-114646260D01*
X144665000Y-114353740D01*
X144607932Y-114066842D01*
X144495990Y-113796589D01*
X144364264Y-113599447D01*
X144503937Y-113459774D01*
X144617205Y-113290256D01*
X144695226Y-113101898D01*
X144735000Y-112901939D01*
X144735000Y-112698061D01*
X144695226Y-112498102D01*
X144617205Y-112309744D01*
X144503937Y-112140226D01*
X144359774Y-111996063D01*
X144190256Y-111882795D01*
X144001898Y-111804774D01*
X143801939Y-111765000D01*
X143598061Y-111765000D01*
X143398102Y-111804774D01*
X143209744Y-111882795D01*
X143040226Y-111996063D01*
X142896063Y-112140226D01*
X142782795Y-112309744D01*
X142704774Y-112498102D01*
X142665000Y-112698061D01*
X142665000Y-112901939D01*
X142702494Y-113090437D01*
X142476589Y-113184010D01*
X142233368Y-113346525D01*
X142026525Y-113553368D01*
X141910000Y-113727760D01*
X141793475Y-113553368D01*
X141586632Y-113346525D01*
X141343411Y-113184010D01*
X141341266Y-113183121D01*
X141459774Y-113103937D01*
X141603937Y-112959774D01*
X141717205Y-112790256D01*
X141795226Y-112601898D01*
X141835000Y-112401939D01*
X141835000Y-112198061D01*
X141795226Y-111998102D01*
X141717205Y-111809744D01*
X141603937Y-111640226D01*
X141459774Y-111496063D01*
X141290256Y-111382795D01*
X141101898Y-111304774D01*
X140901939Y-111265000D01*
X140698061Y-111265000D01*
X140498102Y-111304774D01*
X140309744Y-111382795D01*
X140140226Y-111496063D01*
X139996063Y-111640226D01*
X139882795Y-111809744D01*
X139804774Y-111998102D01*
X139765000Y-112198061D01*
X139765000Y-112401939D01*
X139804774Y-112601898D01*
X139882795Y-112790256D01*
X139996063Y-112959774D01*
X140137203Y-113100914D01*
X139936589Y-113184010D01*
X139693368Y-113346525D01*
X139486525Y-113553368D01*
X139370000Y-113727760D01*
X139253475Y-113553368D01*
X139046632Y-113346525D01*
X138803411Y-113184010D01*
X138533158Y-113072068D01*
X138246260Y-113015000D01*
X137953740Y-113015000D01*
X137666842Y-113072068D01*
X137396589Y-113184010D01*
X137153368Y-113346525D01*
X136946525Y-113553368D01*
X136830000Y-113727760D01*
X136713475Y-113553368D01*
X136506632Y-113346525D01*
X136263411Y-113184010D01*
X135993158Y-113072068D01*
X135706260Y-113015000D01*
X135413740Y-113015000D01*
X135126842Y-113072068D01*
X134856589Y-113184010D01*
X134613368Y-113346525D01*
X134406525Y-113553368D01*
X134290000Y-113727760D01*
X134173475Y-113553368D01*
X133966632Y-113346525D01*
X133723411Y-113184010D01*
X133453158Y-113072068D01*
X133166260Y-113015000D01*
X132873740Y-113015000D01*
X132586842Y-113072068D01*
X132316589Y-113184010D01*
X132073368Y-113346525D01*
X131866525Y-113553368D01*
X131750000Y-113727760D01*
X131633475Y-113553368D01*
X131426632Y-113346525D01*
X131183411Y-113184010D01*
X130913158Y-113072068D01*
X130626260Y-113015000D01*
X130333740Y-113015000D01*
X130046842Y-113072068D01*
X129776589Y-113184010D01*
X129533368Y-113346525D01*
X129326525Y-113553368D01*
X129210000Y-113727760D01*
X129093475Y-113553368D01*
X128886632Y-113346525D01*
X128643411Y-113184010D01*
X128373158Y-113072068D01*
X128086260Y-113015000D01*
X127793740Y-113015000D01*
X127506842Y-113072068D01*
X127236589Y-113184010D01*
X126993368Y-113346525D01*
X126786525Y-113553368D01*
X126670000Y-113727760D01*
X126553475Y-113553368D01*
X126346632Y-113346525D01*
X126103411Y-113184010D01*
X125833158Y-113072068D01*
X125546260Y-113015000D01*
X125253740Y-113015000D01*
X124966842Y-113072068D01*
X124696589Y-113184010D01*
X124453368Y-113346525D01*
X124246525Y-113553368D01*
X124130000Y-113727760D01*
X124013475Y-113553368D01*
X123806632Y-113346525D01*
X123563411Y-113184010D01*
X123293158Y-113072068D01*
X123006260Y-113015000D01*
X122713740Y-113015000D01*
X122426842Y-113072068D01*
X122156589Y-113184010D01*
X121913368Y-113346525D01*
X121706525Y-113553368D01*
X121590000Y-113727760D01*
X121473475Y-113553368D01*
X121266632Y-113346525D01*
X121023411Y-113184010D01*
X120753158Y-113072068D01*
X120466260Y-113015000D01*
X120173740Y-113015000D01*
X119886842Y-113072068D01*
X119616589Y-113184010D01*
X119373368Y-113346525D01*
X119166525Y-113553368D01*
X119050000Y-113727760D01*
X118933475Y-113553368D01*
X118726632Y-113346525D01*
X118483411Y-113184010D01*
X118213158Y-113072068D01*
X117926260Y-113015000D01*
X117633740Y-113015000D01*
X117346842Y-113072068D01*
X117076589Y-113184010D01*
X116833368Y-113346525D01*
X116626525Y-113553368D01*
X116510000Y-113727760D01*
X116393475Y-113553368D01*
X116186632Y-113346525D01*
X115943411Y-113184010D01*
X115673158Y-113072068D01*
X115386260Y-113015000D01*
X115093740Y-113015000D01*
X114806842Y-113072068D01*
X114536589Y-113184010D01*
X114293368Y-113346525D01*
X114086525Y-113553368D01*
X113970000Y-113727760D01*
X113853475Y-113553368D01*
X113646632Y-113346525D01*
X113403411Y-113184010D01*
X113133158Y-113072068D01*
X112846260Y-113015000D01*
X112553740Y-113015000D01*
X112266842Y-113072068D01*
X111996589Y-113184010D01*
X111753368Y-113346525D01*
X111546525Y-113553368D01*
X111430000Y-113727760D01*
X111313475Y-113553368D01*
X111106632Y-113346525D01*
X110863411Y-113184010D01*
X110593158Y-113072068D01*
X110306260Y-113015000D01*
X110013740Y-113015000D01*
X109726842Y-113072068D01*
X109456589Y-113184010D01*
X109213368Y-113346525D01*
X109006525Y-113553368D01*
X108890000Y-113727760D01*
X108773475Y-113553368D01*
X108566632Y-113346525D01*
X108323411Y-113184010D01*
X108053158Y-113072068D01*
X107766260Y-113015000D01*
X107473740Y-113015000D01*
X107186842Y-113072068D01*
X106916589Y-113184010D01*
X106673368Y-113346525D01*
X106466525Y-113553368D01*
X106350000Y-113727760D01*
X106233475Y-113553368D01*
X106026632Y-113346525D01*
X105783411Y-113184010D01*
X105513158Y-113072068D01*
X105226260Y-113015000D01*
X104933740Y-113015000D01*
X104646842Y-113072068D01*
X104376589Y-113184010D01*
X104133368Y-113346525D01*
X103926525Y-113553368D01*
X103804805Y-113735534D01*
X103735178Y-113618645D01*
X103540269Y-113402412D01*
X103306920Y-113228359D01*
X103044099Y-113103175D01*
X102896890Y-113058524D01*
X102667000Y-113179845D01*
X102413000Y-113179845D01*
X102183110Y-113058524D01*
X102035901Y-113103175D01*
X101773080Y-113228359D01*
X101539731Y-113402412D01*
X101463966Y-113486466D01*
X101439502Y-113405820D01*
X101380537Y-113295506D01*
X101301185Y-113198815D01*
X101204494Y-113119463D01*
X101094180Y-113060498D01*
X100974482Y-113024188D01*
X100850000Y-113011928D01*
X99150000Y-113011928D01*
X99025518Y-113024188D01*
X98905820Y-113060498D01*
X98795506Y-113119463D01*
X98698815Y-113198815D01*
X98619463Y-113295506D01*
X98560498Y-113405820D01*
X98524188Y-113525518D01*
X98511928Y-113650000D01*
X98410000Y-113650000D01*
X98410000Y-110998061D01*
X113165000Y-110998061D01*
X113165000Y-111201939D01*
X113204774Y-111401898D01*
X113282795Y-111590256D01*
X113396063Y-111759774D01*
X113540226Y-111903937D01*
X113709744Y-112017205D01*
X113898102Y-112095226D01*
X114098061Y-112135000D01*
X114301939Y-112135000D01*
X114501898Y-112095226D01*
X114690256Y-112017205D01*
X114859774Y-111903937D01*
X115003937Y-111759774D01*
X115117205Y-111590256D01*
X115195226Y-111401898D01*
X115235000Y-111201939D01*
X115235000Y-111098061D01*
X119765000Y-111098061D01*
X119765000Y-111301939D01*
X119804774Y-111501898D01*
X119882795Y-111690256D01*
X119996063Y-111859774D01*
X120140226Y-112003937D01*
X120309744Y-112117205D01*
X120498102Y-112195226D01*
X120698061Y-112235000D01*
X120901939Y-112235000D01*
X121101898Y-112195226D01*
X121290256Y-112117205D01*
X121459774Y-112003937D01*
X121603937Y-111859774D01*
X121645172Y-111798061D01*
X127265000Y-111798061D01*
X127265000Y-112001939D01*
X127304774Y-112201898D01*
X127382795Y-112390256D01*
X127496063Y-112559774D01*
X127640226Y-112703937D01*
X127809744Y-112817205D01*
X127998102Y-112895226D01*
X128198061Y-112935000D01*
X128401939Y-112935000D01*
X128601898Y-112895226D01*
X128790256Y-112817205D01*
X128959774Y-112703937D01*
X129103937Y-112559774D01*
X129217205Y-112390256D01*
X129295226Y-112201898D01*
X129335000Y-112001939D01*
X129335000Y-111798061D01*
X129295226Y-111598102D01*
X129217205Y-111409744D01*
X129103937Y-111240226D01*
X128959774Y-111096063D01*
X128790256Y-110982795D01*
X128601898Y-110904774D01*
X128401939Y-110865000D01*
X128198061Y-110865000D01*
X127998102Y-110904774D01*
X127809744Y-110982795D01*
X127640226Y-111096063D01*
X127496063Y-111240226D01*
X127382795Y-111409744D01*
X127304774Y-111598102D01*
X127265000Y-111798061D01*
X121645172Y-111798061D01*
X121717205Y-111690256D01*
X121795226Y-111501898D01*
X121835000Y-111301939D01*
X121835000Y-111098061D01*
X121795226Y-110898102D01*
X121717205Y-110709744D01*
X121603937Y-110540226D01*
X121459774Y-110396063D01*
X121290256Y-110282795D01*
X121101898Y-110204774D01*
X120901939Y-110165000D01*
X120698061Y-110165000D01*
X120498102Y-110204774D01*
X120309744Y-110282795D01*
X120140226Y-110396063D01*
X119996063Y-110540226D01*
X119882795Y-110709744D01*
X119804774Y-110898102D01*
X119765000Y-111098061D01*
X115235000Y-111098061D01*
X115235000Y-110998061D01*
X115195226Y-110798102D01*
X115117205Y-110609744D01*
X115003937Y-110440226D01*
X114859774Y-110296063D01*
X114690256Y-110182795D01*
X114501898Y-110104774D01*
X114301939Y-110065000D01*
X114098061Y-110065000D01*
X113898102Y-110104774D01*
X113709744Y-110182795D01*
X113540226Y-110296063D01*
X113396063Y-110440226D01*
X113282795Y-110609744D01*
X113204774Y-110798102D01*
X113165000Y-110998061D01*
X98410000Y-110998061D01*
X98410000Y-107798061D01*
X112665000Y-107798061D01*
X112665000Y-108001939D01*
X112704774Y-108201898D01*
X112782795Y-108390256D01*
X112896063Y-108559774D01*
X113040226Y-108703937D01*
X113209744Y-108817205D01*
X113398102Y-108895226D01*
X113598061Y-108935000D01*
X113801939Y-108935000D01*
X114001898Y-108895226D01*
X114190256Y-108817205D01*
X114359774Y-108703937D01*
X114503937Y-108559774D01*
X114617205Y-108390256D01*
X114695226Y-108201898D01*
X114735000Y-108001939D01*
X114735000Y-107798061D01*
X114695226Y-107598102D01*
X114617205Y-107409744D01*
X114609399Y-107398061D01*
X120865000Y-107398061D01*
X120865000Y-107601939D01*
X120904774Y-107801898D01*
X120982795Y-107990256D01*
X121096063Y-108159774D01*
X121108125Y-108171836D01*
X121082795Y-108209744D01*
X121004774Y-108398102D01*
X120965000Y-108598061D01*
X120965000Y-108801939D01*
X121004774Y-109001898D01*
X121082795Y-109190256D01*
X121196063Y-109359774D01*
X121340226Y-109503937D01*
X121509744Y-109617205D01*
X121698102Y-109695226D01*
X121898061Y-109735000D01*
X122101939Y-109735000D01*
X122301898Y-109695226D01*
X122365000Y-109669088D01*
X122365000Y-109794430D01*
X122404774Y-109994389D01*
X122482795Y-110182747D01*
X122596063Y-110352265D01*
X122740226Y-110496428D01*
X122909744Y-110609696D01*
X123098102Y-110687717D01*
X123298061Y-110727491D01*
X123501939Y-110727491D01*
X123701898Y-110687717D01*
X123890256Y-110609696D01*
X124059774Y-110496428D01*
X124203937Y-110352265D01*
X124317205Y-110182747D01*
X124395226Y-109994389D01*
X124435000Y-109794430D01*
X124435000Y-109590552D01*
X124395226Y-109390593D01*
X124317205Y-109202235D01*
X124203937Y-109032717D01*
X124144062Y-108972842D01*
X124198102Y-108995226D01*
X124398061Y-109035000D01*
X124601939Y-109035000D01*
X124801898Y-108995226D01*
X124910411Y-108950278D01*
X124819093Y-109041596D01*
X124705825Y-109211114D01*
X124627804Y-109399472D01*
X124588030Y-109599431D01*
X124588030Y-109803309D01*
X124627804Y-110003268D01*
X124705825Y-110191626D01*
X124819093Y-110361144D01*
X124963256Y-110505307D01*
X125132774Y-110618575D01*
X125321132Y-110696596D01*
X125521091Y-110736370D01*
X125724969Y-110736370D01*
X125924928Y-110696596D01*
X126113286Y-110618575D01*
X126282804Y-110505307D01*
X126426967Y-110361144D01*
X126540235Y-110191626D01*
X126618256Y-110003268D01*
X126658030Y-109803309D01*
X126658030Y-109599431D01*
X126618256Y-109399472D01*
X126540235Y-109211114D01*
X126426967Y-109041596D01*
X126282804Y-108897433D01*
X126134083Y-108798061D01*
X133565000Y-108798061D01*
X133565000Y-109001939D01*
X133604774Y-109201898D01*
X133682795Y-109390256D01*
X133796063Y-109559774D01*
X133940226Y-109703937D01*
X134109744Y-109817205D01*
X134298102Y-109895226D01*
X134498061Y-109935000D01*
X134701939Y-109935000D01*
X134901898Y-109895226D01*
X135090256Y-109817205D01*
X135259774Y-109703937D01*
X135403937Y-109559774D01*
X135517205Y-109390256D01*
X135595226Y-109201898D01*
X135635000Y-109001939D01*
X135635000Y-108798061D01*
X135595226Y-108598102D01*
X135517205Y-108409744D01*
X135403937Y-108240226D01*
X135259774Y-108096063D01*
X135090256Y-107982795D01*
X134901898Y-107904774D01*
X134701939Y-107865000D01*
X134498061Y-107865000D01*
X134298102Y-107904774D01*
X134109744Y-107982795D01*
X133940226Y-108096063D01*
X133796063Y-108240226D01*
X133682795Y-108409744D01*
X133604774Y-108598102D01*
X133565000Y-108798061D01*
X126134083Y-108798061D01*
X126113286Y-108784165D01*
X125924928Y-108706144D01*
X125905553Y-108702290D01*
X125990256Y-108667205D01*
X126159774Y-108553937D01*
X126303937Y-108409774D01*
X126417205Y-108240256D01*
X126468238Y-108117052D01*
X126547238Y-108117052D01*
X126747197Y-108077278D01*
X126935555Y-107999257D01*
X127105073Y-107885989D01*
X127249236Y-107741826D01*
X127362504Y-107572308D01*
X127440525Y-107383950D01*
X127480299Y-107183991D01*
X127480299Y-107171329D01*
X127490256Y-107167205D01*
X127659774Y-107053937D01*
X127803937Y-106909774D01*
X127917205Y-106740256D01*
X127995226Y-106551898D01*
X128035000Y-106351939D01*
X128035000Y-106340093D01*
X128090256Y-106317205D01*
X128259774Y-106203937D01*
X128315650Y-106148061D01*
X130427549Y-106148061D01*
X130427549Y-106351939D01*
X130467323Y-106551898D01*
X130545344Y-106740256D01*
X130658612Y-106909774D01*
X130802775Y-107053937D01*
X130972293Y-107167205D01*
X131160651Y-107245226D01*
X131360610Y-107285000D01*
X131564488Y-107285000D01*
X131764447Y-107245226D01*
X131952805Y-107167205D01*
X132122323Y-107053937D01*
X132266486Y-106909774D01*
X132379754Y-106740256D01*
X132457775Y-106551898D01*
X132497549Y-106351939D01*
X132497549Y-106148061D01*
X132457775Y-105948102D01*
X132379754Y-105759744D01*
X132266486Y-105590226D01*
X132122323Y-105446063D01*
X131952805Y-105332795D01*
X131764447Y-105254774D01*
X131564488Y-105215000D01*
X131360610Y-105215000D01*
X131160651Y-105254774D01*
X130972293Y-105332795D01*
X130802775Y-105446063D01*
X130658612Y-105590226D01*
X130545344Y-105759744D01*
X130467323Y-105948102D01*
X130427549Y-106148061D01*
X128315650Y-106148061D01*
X128403937Y-106059774D01*
X128517205Y-105890256D01*
X128595226Y-105701898D01*
X128635000Y-105501939D01*
X128635000Y-105298061D01*
X128595226Y-105098102D01*
X128517205Y-104909744D01*
X128403937Y-104740226D01*
X128380142Y-104716431D01*
X128403686Y-104598061D01*
X136065000Y-104598061D01*
X136065000Y-104801939D01*
X136104774Y-105001898D01*
X136182795Y-105190256D01*
X136296063Y-105359774D01*
X136440226Y-105503937D01*
X136609744Y-105617205D01*
X136798102Y-105695226D01*
X136998061Y-105735000D01*
X137201939Y-105735000D01*
X137401898Y-105695226D01*
X137590256Y-105617205D01*
X137759774Y-105503937D01*
X137903937Y-105359774D01*
X138017205Y-105190256D01*
X138095226Y-105001898D01*
X138135000Y-104801939D01*
X138135000Y-104598061D01*
X139965000Y-104598061D01*
X139965000Y-104801939D01*
X140004774Y-105001898D01*
X140082795Y-105190256D01*
X140196063Y-105359774D01*
X140340226Y-105503937D01*
X140509744Y-105617205D01*
X140698102Y-105695226D01*
X140898061Y-105735000D01*
X141101939Y-105735000D01*
X141301898Y-105695226D01*
X141490256Y-105617205D01*
X141659774Y-105503937D01*
X141803937Y-105359774D01*
X141917205Y-105190256D01*
X141995226Y-105001898D01*
X142035000Y-104801939D01*
X142035000Y-104598061D01*
X141995226Y-104398102D01*
X141917205Y-104209744D01*
X141803937Y-104040226D01*
X141659774Y-103896063D01*
X141490256Y-103782795D01*
X141301898Y-103704774D01*
X141101939Y-103665000D01*
X140898061Y-103665000D01*
X140698102Y-103704774D01*
X140509744Y-103782795D01*
X140340226Y-103896063D01*
X140196063Y-104040226D01*
X140082795Y-104209744D01*
X140004774Y-104398102D01*
X139965000Y-104598061D01*
X138135000Y-104598061D01*
X138095226Y-104398102D01*
X138017205Y-104209744D01*
X137903937Y-104040226D01*
X137759774Y-103896063D01*
X137590256Y-103782795D01*
X137401898Y-103704774D01*
X137201939Y-103665000D01*
X136998061Y-103665000D01*
X136798102Y-103704774D01*
X136609744Y-103782795D01*
X136440226Y-103896063D01*
X136296063Y-104040226D01*
X136182795Y-104209744D01*
X136104774Y-104398102D01*
X136065000Y-104598061D01*
X128403686Y-104598061D01*
X128418070Y-104525750D01*
X128418070Y-104321872D01*
X128378296Y-104121913D01*
X128300275Y-103933555D01*
X128187007Y-103764037D01*
X128042844Y-103619874D01*
X127873326Y-103506606D01*
X127684968Y-103428585D01*
X127485009Y-103388811D01*
X127281131Y-103388811D01*
X127081172Y-103428585D01*
X126892814Y-103506606D01*
X126723296Y-103619874D01*
X126579133Y-103764037D01*
X126465865Y-103933555D01*
X126387844Y-104121913D01*
X126348070Y-104321872D01*
X126348070Y-104525750D01*
X126387844Y-104725709D01*
X126465865Y-104914067D01*
X126579133Y-105083585D01*
X126602928Y-105107380D01*
X126565000Y-105298061D01*
X126565000Y-105309907D01*
X126509744Y-105332795D01*
X126340226Y-105446063D01*
X126196063Y-105590226D01*
X126082795Y-105759744D01*
X126004774Y-105948102D01*
X125965000Y-106148061D01*
X125965000Y-106160723D01*
X125955043Y-106164847D01*
X125785525Y-106278115D01*
X125641362Y-106422278D01*
X125528094Y-106591796D01*
X125477061Y-106715000D01*
X125398061Y-106715000D01*
X125198102Y-106754774D01*
X125009744Y-106832795D01*
X124840226Y-106946063D01*
X124784897Y-107001392D01*
X124601939Y-106965000D01*
X124398061Y-106965000D01*
X124388570Y-106966888D01*
X124303937Y-106840226D01*
X124159774Y-106696063D01*
X123990256Y-106582795D01*
X123980299Y-106578671D01*
X123980299Y-106566009D01*
X123940525Y-106366050D01*
X123862504Y-106177692D01*
X123749236Y-106008174D01*
X123605073Y-105864011D01*
X123435555Y-105750743D01*
X123435000Y-105750513D01*
X123435000Y-105698061D01*
X123395226Y-105498102D01*
X123317205Y-105309744D01*
X123203937Y-105140226D01*
X123059774Y-104996063D01*
X122890256Y-104882795D01*
X122701898Y-104804774D01*
X122501939Y-104765000D01*
X122298061Y-104765000D01*
X122098102Y-104804774D01*
X121909744Y-104882795D01*
X121740226Y-104996063D01*
X121596063Y-105140226D01*
X121482795Y-105309744D01*
X121404774Y-105498102D01*
X121365000Y-105698061D01*
X121365000Y-105901939D01*
X121404774Y-106101898D01*
X121482795Y-106290256D01*
X121596063Y-106459774D01*
X121633935Y-106497646D01*
X121598102Y-106504774D01*
X121409744Y-106582795D01*
X121240226Y-106696063D01*
X121096063Y-106840226D01*
X120982795Y-107009744D01*
X120904774Y-107198102D01*
X120865000Y-107398061D01*
X114609399Y-107398061D01*
X114503937Y-107240226D01*
X114359774Y-107096063D01*
X114190256Y-106982795D01*
X114001898Y-106904774D01*
X113801939Y-106865000D01*
X113598061Y-106865000D01*
X113398102Y-106904774D01*
X113209744Y-106982795D01*
X113040226Y-107096063D01*
X112896063Y-107240226D01*
X112782795Y-107409744D01*
X112704774Y-107598102D01*
X112665000Y-107798061D01*
X98410000Y-107798061D01*
X98410000Y-102698061D01*
X106765000Y-102698061D01*
X106765000Y-102901939D01*
X106804774Y-103101898D01*
X106882795Y-103290256D01*
X106996063Y-103459774D01*
X107140226Y-103603937D01*
X107309744Y-103717205D01*
X107498102Y-103795226D01*
X107698061Y-103835000D01*
X107897435Y-103835000D01*
X107865000Y-103998061D01*
X107865000Y-104201939D01*
X107904774Y-104401898D01*
X107982795Y-104590256D01*
X108096063Y-104759774D01*
X108240226Y-104903937D01*
X108409744Y-105017205D01*
X108598102Y-105095226D01*
X108622103Y-105100000D01*
X108598102Y-105104774D01*
X108409744Y-105182795D01*
X108240226Y-105296063D01*
X108096063Y-105440226D01*
X107982795Y-105609744D01*
X107904774Y-105798102D01*
X107865000Y-105998061D01*
X107865000Y-106201939D01*
X107904774Y-106401898D01*
X107982795Y-106590256D01*
X108096063Y-106759774D01*
X108240226Y-106903937D01*
X108409744Y-107017205D01*
X108598102Y-107095226D01*
X108798061Y-107135000D01*
X109001939Y-107135000D01*
X109201898Y-107095226D01*
X109390256Y-107017205D01*
X109559774Y-106903937D01*
X109703937Y-106759774D01*
X109817205Y-106590256D01*
X109895226Y-106401898D01*
X109935000Y-106201939D01*
X109935000Y-105998061D01*
X109895226Y-105798102D01*
X109817205Y-105609744D01*
X109703937Y-105440226D01*
X109561772Y-105298061D01*
X117765000Y-105298061D01*
X117765000Y-105501939D01*
X117804774Y-105701898D01*
X117882795Y-105890256D01*
X117996063Y-106059774D01*
X118140226Y-106203937D01*
X118309744Y-106317205D01*
X118498102Y-106395226D01*
X118698061Y-106435000D01*
X118901939Y-106435000D01*
X119101898Y-106395226D01*
X119290256Y-106317205D01*
X119459774Y-106203937D01*
X119603937Y-106059774D01*
X119717205Y-105890256D01*
X119795226Y-105701898D01*
X119835000Y-105501939D01*
X119835000Y-105298061D01*
X119795226Y-105098102D01*
X119717205Y-104909744D01*
X119603937Y-104740226D01*
X119459774Y-104596063D01*
X119290256Y-104482795D01*
X119101898Y-104404774D01*
X118901939Y-104365000D01*
X118698061Y-104365000D01*
X118498102Y-104404774D01*
X118309744Y-104482795D01*
X118140226Y-104596063D01*
X117996063Y-104740226D01*
X117882795Y-104909744D01*
X117804774Y-105098102D01*
X117765000Y-105298061D01*
X109561772Y-105298061D01*
X109559774Y-105296063D01*
X109390256Y-105182795D01*
X109201898Y-105104774D01*
X109177897Y-105100000D01*
X109201898Y-105095226D01*
X109390256Y-105017205D01*
X109559774Y-104903937D01*
X109703937Y-104759774D01*
X109817205Y-104590256D01*
X109895226Y-104401898D01*
X109935000Y-104201939D01*
X109935000Y-103998061D01*
X109895226Y-103798102D01*
X109817205Y-103609744D01*
X109703937Y-103440226D01*
X109561772Y-103298061D01*
X119565000Y-103298061D01*
X119565000Y-103501939D01*
X119604774Y-103701898D01*
X119682795Y-103890256D01*
X119796063Y-104059774D01*
X119940226Y-104203937D01*
X120109744Y-104317205D01*
X120298102Y-104395226D01*
X120498061Y-104435000D01*
X120701939Y-104435000D01*
X120901898Y-104395226D01*
X121090256Y-104317205D01*
X121259774Y-104203937D01*
X121403937Y-104059774D01*
X121517205Y-103890256D01*
X121595226Y-103701898D01*
X121635000Y-103501939D01*
X121635000Y-103298061D01*
X121595226Y-103098102D01*
X121517205Y-102909744D01*
X121403937Y-102740226D01*
X121259774Y-102596063D01*
X121090256Y-102482795D01*
X120901898Y-102404774D01*
X120701939Y-102365000D01*
X120498061Y-102365000D01*
X120298102Y-102404774D01*
X120109744Y-102482795D01*
X119940226Y-102596063D01*
X119796063Y-102740226D01*
X119682795Y-102909744D01*
X119604774Y-103098102D01*
X119565000Y-103298061D01*
X109561772Y-103298061D01*
X109559774Y-103296063D01*
X109390256Y-103182795D01*
X109201898Y-103104774D01*
X109001939Y-103065000D01*
X108802565Y-103065000D01*
X108835000Y-102901939D01*
X108835000Y-102698061D01*
X108795226Y-102498102D01*
X108717205Y-102309744D01*
X108603937Y-102140226D01*
X108459774Y-101996063D01*
X108290256Y-101882795D01*
X108101898Y-101804774D01*
X107901939Y-101765000D01*
X107698061Y-101765000D01*
X107498102Y-101804774D01*
X107309744Y-101882795D01*
X107140226Y-101996063D01*
X106996063Y-102140226D01*
X106882795Y-102309744D01*
X106804774Y-102498102D01*
X106765000Y-102698061D01*
X98410000Y-102698061D01*
X98410000Y-99150000D01*
X98511928Y-99150000D01*
X98511928Y-100850000D01*
X98524188Y-100974482D01*
X98560498Y-101094180D01*
X98619463Y-101204494D01*
X98698815Y-101301185D01*
X98795506Y-101380537D01*
X98905820Y-101439502D01*
X99025518Y-101475812D01*
X99150000Y-101488072D01*
X100850000Y-101488072D01*
X100974482Y-101475812D01*
X101094180Y-101439502D01*
X101204494Y-101380537D01*
X101301185Y-101301185D01*
X101380537Y-101204494D01*
X101439502Y-101094180D01*
X101463966Y-101013534D01*
X101539731Y-101097588D01*
X101773080Y-101271641D01*
X102035901Y-101396825D01*
X102183110Y-101441476D01*
X102413000Y-101320155D01*
X102413000Y-100127000D01*
X102393000Y-100127000D01*
X102393000Y-99873000D01*
X102413000Y-99873000D01*
X102413000Y-98679845D01*
X102183110Y-98558524D01*
X102035901Y-98603175D01*
X101773080Y-98728359D01*
X101539731Y-98902412D01*
X101463966Y-98986466D01*
X101439502Y-98905820D01*
X101380537Y-98795506D01*
X101301185Y-98698815D01*
X101204494Y-98619463D01*
X101094180Y-98560498D01*
X100974482Y-98524188D01*
X100850000Y-98511928D01*
X99150000Y-98511928D01*
X99025518Y-98524188D01*
X98905820Y-98560498D01*
X98795506Y-98619463D01*
X98698815Y-98698815D01*
X98619463Y-98795506D01*
X98560498Y-98905820D01*
X98524188Y-99025518D01*
X98511928Y-99150000D01*
X98410000Y-99150000D01*
X98410000Y-97910000D01*
X124688619Y-97910000D01*
X124586103Y-98063427D01*
G37*
%TD.AperFunction*%
%TD*%
M02*
